<svg width="50" height="50" viewBox="0 0 50 50" fill="none" xmlns="http://www.w3.org/2000/svg">
<circle cx="25" cy="25" r="24" stroke="#2A9D8F" stroke-width="2" stroke-dasharray="2 2"/>
<path d="M15.625 32.5H34.375L32.8191 20.0447C32.8075 18.9991 32.8341 18.42 32.8341 18.42C32.5916 18.4947 32.2306 18.5234 31.7984 18.5234C31.7253 18.5234 31.6488 18.5222 31.5709 18.5206C31.5694 17.8678 31.5831 17.5 31.5831 17.5C31.2078 17.9938 30.4066 18.1194 29.4931 18.1194C28.5447 18.1194 27.4756 17.9841 26.6356 17.9841C25.3397 17.9841 25.0628 18.8513 25.0028 19.2241C24.9428 18.8497 24.6647 17.9862 23.3716 17.9862C22.5316 17.9862 21.4631 18.1216 20.515 18.1216C19.6006 18.1216 18.7994 17.9959 18.4241 17.5016C18.4241 17.5016 18.4378 17.8691 18.4359 18.5203C18.3587 18.5216 18.2819 18.5231 18.2084 18.5231C17.7756 18.5231 17.4156 18.4944 17.1731 18.4197C17.1731 18.4197 17.1984 18.9731 17.1888 19.9778L15.625 32.5ZM31.7984 19.1053C31.9563 19.1053 32.1009 19.1016 32.2337 19.0944C32.2175 20.7922 32.2897 25.4303 33.3241 31.4319C33.1324 31.4011 32.9415 31.3664 32.7513 31.3278C32.8738 31.2769 32.9709 31.2075 33.0366 31.1141C31.8509 26.0919 31.6125 21.4491 31.5769 19.1022C31.6519 19.1037 31.7266 19.1053 31.7984 19.1053ZM26.7575 18.7847C27.3922 18.7847 28.2416 18.8594 29.14 18.9384C29.7675 18.9937 30.4084 19.0494 30.9931 19.0806C31.0291 21.3916 31.2575 25.9259 32.3703 30.8331C32.2862 30.8472 32.1697 30.8581 32.0091 30.8581C31.4153 30.8581 30.5647 30.7072 29.7422 30.5609C28.8159 30.3966 27.8584 30.2262 27.0772 30.2262C26.4716 30.2262 25.9947 30.34 25.6187 30.5141C25.6044 30.52 25.5878 30.5244 25.5744 30.5306L25.5722 19.5897C25.5831 19.4353 25.6919 18.7847 26.7575 18.7847ZM19.015 19.0806C19.5997 19.0494 20.24 18.9937 20.8672 18.9384C21.7659 18.8597 22.6153 18.7847 23.2506 18.7847C24.2816 18.7847 24.4194 19.3872 24.4353 19.6025L24.4325 30.5303C24.4078 30.5194 24.3784 30.5106 24.3525 30.5003C23.9812 30.335 23.5169 30.2269 22.9291 30.2269C22.1478 30.2269 21.1903 30.3975 20.2644 30.5619C19.4413 30.7084 18.5909 30.8594 17.9972 30.8594C17.8366 30.8594 17.7197 30.8484 17.6369 30.8347C18.75 25.9269 18.9784 21.3909 19.015 19.0806ZM17.7741 19.0944C17.9072 19.1016 18.0516 19.1053 18.2094 19.1053C18.2813 19.1053 18.3562 19.1038 18.4312 19.1025C18.3953 21.4488 18.1566 26.0928 16.9703 31.1159C17.0356 31.2087 17.1319 31.2781 17.2528 31.3287C17.0588 31.3675 16.8678 31.4028 16.6822 31.4322C17.7175 25.4303 17.79 20.7922 17.7741 19.0944Z" fill="#2A9D8F"/>
<path d="M22.874 19.3488C23.6759 19.3488 23.9403 19.5306 23.9431 19.5325L24.0175 19.435L24.0934 19.3397C24.0625 19.3166 23.7656 19.1097 22.8825 19.1097C22.2178 19.1097 21.3972 19.2781 20.669 19.4263C20.1384 19.535 19.6787 19.6291 19.4156 19.6291L19.394 19.8722C19.6837 19.8722 20.1569 19.775 20.7034 19.6625C21.4222 19.5153 22.2328 19.3488 22.874 19.3488Z" fill="#2A9D8F"/>
<path d="M22.8322 20.5738C23.6497 20.5738 23.92 20.7628 23.9225 20.7647L23.9981 20.6641L24.0756 20.5647C24.044 20.5394 23.7415 20.3247 22.8409 20.3247C22.1631 20.3247 21.3262 20.4991 20.5837 20.6544C20.0422 20.7666 19.5734 20.8647 19.3053 20.8647L19.2825 21.1181C19.5781 21.1181 20.0603 21.0169 20.6181 20.9006C21.3506 20.7472 22.1784 20.5738 22.8322 20.5738Z" fill="#2A9D8F"/>
<path d="M22.7888 21.8487C23.6229 21.8487 23.8979 22.0447 23.901 22.0472L23.9782 21.9422L24.0576 21.8394C24.0251 21.8131 23.716 21.5897 22.7976 21.5897C22.1063 21.5897 21.2526 21.7712 20.4948 21.9325C19.942 22.0497 19.4632 22.1519 19.1901 22.1519L19.166 22.415C19.4679 22.415 19.9604 22.31 20.5291 22.1887C21.277 22.0284 22.1213 21.8487 22.7888 21.8487Z" fill="#2A9D8F"/>
<path d="M22.7427 23.1756C23.5937 23.1756 23.8746 23.3806 23.878 23.3825L23.9568 23.2734L24.0374 23.1653C24.0046 23.1387 23.6893 22.9056 22.7524 22.9056C22.0468 22.9056 21.1749 23.0947 20.4015 23.2631C19.8371 23.3853 19.349 23.4909 19.0693 23.4909L19.0449 23.7659C19.3524 23.7659 19.8562 23.6562 20.4368 23.5297C21.2005 23.3631 22.0618 23.1756 22.7427 23.1756Z" fill="#2A9D8F"/>
<path d="M22.6956 24.5584C23.5643 24.5584 23.8515 24.7722 23.854 24.7744L23.9353 24.6603L24.0178 24.5478C23.9837 24.52 23.6621 24.2775 22.7053 24.2775C21.9853 24.2775 21.095 24.4744 20.305 24.6494C19.7281 24.7766 19.2296 24.8875 18.944 24.8875L18.9187 25.1741C19.2328 25.1741 19.7465 25.0597 20.3403 24.9272C21.12 24.7538 21.9993 24.5584 22.6956 24.5584Z" fill="#2A9D8F"/>
<path d="M22.646 26.0006C23.5335 26.0006 23.8266 26.2231 23.8294 26.2256L23.9119 26.1069L23.9966 25.9897C23.9622 25.9606 23.6338 25.7075 22.6566 25.7075C21.921 25.7075 21.011 25.9131 20.2041 26.0956C19.6144 26.2288 19.1047 26.3441 18.8132 26.3441L18.7866 26.6425C19.1079 26.6425 19.6335 26.5234 20.2397 26.3859C21.0366 26.2044 21.9357 26.0006 22.646 26.0006Z" fill="#2A9D8F"/>
<path d="M22.5946 27.5063C23.5015 27.5063 23.8006 27.7394 23.8037 27.7419L23.8881 27.6175L23.974 27.495C23.939 27.4644 23.6034 27.2003 22.6046 27.2003C21.8531 27.2003 20.9234 27.4153 20.0981 27.6053C19.4959 27.7444 18.9743 27.8653 18.6768 27.8653L18.6487 28.1778C18.9771 28.1778 19.5143 28.0528 20.1343 27.9088C20.9493 27.7194 21.8684 27.5063 22.5946 27.5063Z" fill="#2A9D8F"/>
<path d="M22.5399 29.0797C23.468 29.0797 23.7733 29.3225 23.7764 29.325L23.8627 29.195L23.9511 29.0675C23.9149 29.0356 23.5724 28.7594 22.5514 28.7594C21.7827 28.7594 20.8318 28.9837 19.9877 29.1831C19.3718 29.3287 18.8383 29.4537 18.5339 29.4537L18.5049 29.7806C18.8402 29.7806 19.3896 29.6506 20.0239 29.5003C20.858 29.3025 21.798 29.0797 22.5399 29.0797Z" fill="#2A9D8F"/>
<path d="M26.0643 19.5325C26.0668 19.5306 26.3311 19.3488 27.133 19.3488C27.7749 19.3488 28.5852 19.5153 29.3036 19.6625C29.8502 19.775 30.3233 19.8722 30.6127 19.8722L30.5911 19.6291C30.328 19.6291 29.8683 19.535 29.3377 19.4263C28.6102 19.2781 27.7893 19.1097 27.1246 19.1097C26.2421 19.1097 25.9446 19.3166 25.9133 19.3397L25.9896 19.435L26.0643 19.5325Z" fill="#2A9D8F"/>
<path d="M27.1668 20.325C26.2659 20.325 25.9631 20.5397 25.9321 20.565L26.0096 20.6644L26.0849 20.765C26.0878 20.7634 26.3578 20.5741 27.1756 20.5741C27.8293 20.5741 28.6565 20.7472 29.389 20.9006C29.9465 21.0172 30.429 21.1181 30.7246 21.1181L30.7018 20.8647C30.4343 20.8647 29.9653 20.7669 29.4237 20.6544C28.6815 20.4994 27.8446 20.325 27.1668 20.325Z" fill="#2A9D8F"/>
<path d="M27.2099 21.5897C26.2914 21.5897 25.9824 21.8131 25.9502 21.8394L26.0293 21.9422L26.1064 22.0472C26.1093 22.045 26.3849 21.8487 27.2186 21.8487C27.8864 21.8487 28.7299 22.0284 29.478 22.1884C30.0468 22.3097 30.5396 22.4147 30.8408 22.4147L30.8174 22.1516C30.5439 22.1516 30.0655 22.0494 29.5124 21.9322C28.7555 21.7709 27.9011 21.5897 27.2099 21.5897Z" fill="#2A9D8F"/>
<path d="M27.255 22.9056C26.3175 22.9056 26.0022 23.1384 25.97 23.1653L26.0503 23.2734L26.1293 23.3825C26.1325 23.3806 26.4131 23.1756 27.2643 23.1756C27.9456 23.1756 28.8072 23.3631 29.5712 23.5294C30.1518 23.6559 30.655 23.7656 30.9628 23.7656L30.9375 23.4909C30.6581 23.4909 30.17 23.3853 29.6056 23.2631C28.8325 23.0947 27.9606 22.9056 27.255 22.9056Z" fill="#2A9D8F"/>
<path d="M27.3016 24.2775C26.3444 24.2775 26.0234 24.52 25.99 24.5478L26.0725 24.6603L26.1528 24.7744C26.1562 24.7722 26.4425 24.5584 27.3119 24.5584C28.0075 24.5584 28.8875 24.7538 29.6669 24.9272C30.2606 25.0597 30.7747 25.1741 31.0891 25.1741L31.0634 24.8875C30.7778 24.8875 30.2791 24.7766 29.7028 24.6494C28.9128 24.4744 28.0225 24.2775 27.3016 24.2775Z" fill="#2A9D8F"/>
<path d="M27.3503 25.7075C26.3731 25.7075 26.0449 25.9609 26.0103 25.9897L26.0949 26.1069L26.1774 26.2256C26.1799 26.2231 26.4731 26.0006 27.3606 26.0006C28.0706 26.0006 28.9699 26.2044 29.7671 26.3856C30.3734 26.5231 30.8987 26.6422 31.2199 26.6422L31.1931 26.3438C30.9018 26.3438 30.3921 26.2284 29.8034 26.0953C28.9962 25.9131 28.0865 25.7075 27.3503 25.7075Z" fill="#2A9D8F"/>
<path d="M27.4021 27.2C26.4033 27.2 26.068 27.4644 26.0327 27.4947L26.1183 27.6172L26.203 27.7416C26.2058 27.7391 26.5052 27.5059 27.4124 27.5059C28.1383 27.5059 29.0577 27.7194 29.8724 27.9081C30.4924 28.0522 31.0299 28.1772 31.358 28.1772L31.3296 27.8647C31.0318 27.8647 30.5105 27.7437 29.909 27.6047C29.0833 27.415 28.1537 27.2 27.4021 27.2Z" fill="#2A9D8F"/>
<path d="M27.4554 28.7591C26.4342 28.7591 26.0914 29.0356 26.0554 29.0672L26.1432 29.1947L26.2295 29.3247C26.2329 29.3222 26.5389 29.0794 27.466 29.0794C28.2089 29.0794 29.1489 29.3022 29.9823 29.5C30.6164 29.6503 31.166 29.7803 31.502 29.7803L31.4723 29.4534C31.1679 29.4534 30.6345 29.3284 30.0189 29.1828C29.1748 28.9834 28.2235 28.7591 27.4554 28.7591Z" fill="#2A9D8F"/>
</svg>
