<svg width="50" height="50" viewBox="0 0 50 50" fill="none" xmlns="http://www.w3.org/2000/svg">
<circle cx="25" cy="25" r="24" stroke="#2A9D8F" stroke-width="2" stroke-dasharray="2 2"/>
<path d="M15.7231 27.9822C15.6219 27.9024 15.5228 27.8197 15.426 27.7342C15.4952 27.8491 15.5965 27.9381 15.7231 27.9822Z" fill="#2A9D8F"/>
<path d="M16.4706 16.5127H33.4689V26.8123C34.0647 26.4701 34.3848 26.237 34.604 26.0876V15.9231C34.6039 15.7671 34.5439 15.6175 34.4373 15.5072C34.3307 15.3969 34.1863 15.335 34.0356 15.335H15.9022C15.5878 15.335 15.333 15.5989 15.333 15.9231V26.1137C15.5489 26.2547 15.8588 26.491 16.4706 26.8445V16.5127Z" fill="#2A9D8F"/>
<path d="M35.5815 25.9136C35.4351 25.7927 35.2324 25.7933 34.9107 25.9136C34.8169 25.949 34.7219 26.0079 34.6041 26.0876C34.3848 26.237 34.0651 26.4701 33.4689 26.8123C33.285 26.9167 33.0845 27.0292 32.8415 27.1554C32.7653 27.1948 32.6919 27.227 32.6166 27.2647C31.2466 27.9329 30.0143 28.1475 30.0143 28.1475H25.9333C25.856 28.1475 25.6085 28.1968 25.4898 28.3821C25.3727 28.5671 25.3923 28.8722 25.3923 28.8722V29.3872C25.5396 29.4954 25.6953 29.5923 25.8669 29.6535C27.0973 30.0879 27.9297 29.7091 28.2929 29.1813C28.7176 28.5625 28.9338 28.2159 29.4003 28.3969C29.8667 28.5778 29.4003 29.7541 28.8179 30.3582C28.2341 30.9625 27.5343 31.4454 26.5443 31.4454C26.1282 31.4454 25.725 31.3807 25.3923 31.3073V35.6953C25.3923 36.9336 26.663 37.5954 27.5366 37.5954C28.4099 37.5954 30.1593 37.0827 31.0049 34.9091C31.8497 32.7362 30.9475 29.8686 30.9475 29.8686C30.9475 29.8686 32.3162 29.2332 33.745 28.2986C35.1725 27.3633 35.5524 26.4872 35.5815 26.3643C35.6095 26.2404 35.726 26.0348 35.5815 25.9136Z" fill="#2A9D8F"/>
<path d="M28.8178 30.3579C29.4002 29.7538 29.8667 28.5776 29.4002 28.3966C28.9338 28.2156 28.7176 28.5622 28.2928 29.1811C27.9297 29.7089 27.0972 30.0876 25.8669 29.6532C25.6953 29.592 25.5396 29.4951 25.3923 29.387C24.7847 28.9395 24.3712 28.2156 24.0668 28.2156H19.9858C19.9858 28.2156 18.8538 28.0173 17.5543 27.4135C17.4238 27.3526 17.2925 27.2923 17.1592 27.223C16.9269 27.1023 16.6973 26.976 16.4707 26.8442C15.8589 26.4907 15.5489 26.2547 15.333 26.1134C15.2432 26.0546 15.167 26.0105 15.0892 25.9815C14.7688 25.8608 14.5647 25.8608 14.4188 25.9815C14.2738 26.1027 14.3897 26.3086 14.4188 26.4319C14.4412 26.5261 14.6745 27.0652 15.4257 27.734C15.6877 27.9645 15.965 28.1758 16.2554 28.3664C17.6828 29.3023 19.0528 29.9359 19.0528 29.9359C19.0528 29.9359 18.1493 32.8029 18.9954 34.9764C19.8405 37.1497 21.5891 37.6647 22.4632 37.6647C23.3377 37.6647 24.6083 36.9986 24.6083 35.7612V31.0832C24.6083 31.0832 24.9309 31.205 25.392 31.3067C25.7247 31.3801 26.1279 31.4448 26.544 31.4448C27.5343 31.4451 28.234 30.9622 28.8178 30.3579Z" fill="#2A9D8F"/>
<path d="M28.0848 21.9705C27.4122 21.9706 26.7672 22.2473 26.2916 22.7398C25.816 23.2324 25.5487 23.9004 25.5486 24.597C25.5486 26.0467 26.684 27.2233 28.0848 27.2233C29.4843 27.2233 30.6194 26.0467 30.6194 24.597C30.6194 23.147 29.4843 21.9705 28.0848 21.9705Z" fill="#2A9D8F"/>
<path d="M22.0724 21.9705C20.6724 21.9705 19.5376 23.147 19.5376 24.597C19.5376 26.0467 20.6722 27.2233 22.0724 27.2233C23.4733 27.2233 24.6087 26.0467 24.6087 24.597C24.6087 23.147 23.4733 21.9705 22.0724 21.9705Z" fill="#2A9D8F"/>
</svg>
