<svg width="342" height="240" viewBox="0 0 342 240" fill="none" xmlns="http://www.w3.org/2000/svg">
<path d="M19.409 0H171.179C176.325 0.00474081 181.259 1.67939 184.897 4.65655C188.536 7.63371 190.583 11.6702 190.588 15.8806V83.8165C190.583 88.0269 188.536 92.0634 184.897 95.0406C181.259 98.0177 176.325 99.6924 171.179 99.6971H19.409C14.2632 99.6924 9.32977 98.0177 5.69114 95.0406C2.0525 92.0634 0.0057824 88.0269 0 83.8165V15.8806C0.00578132 11.6702 2.0525 7.63371 5.69114 4.65655C9.32977 1.67939 14.2632 0.00474081 19.409 0Z" fill="#D5EEE2"/>
<path d="M19.4088 4.57169H171.179C174.844 4.57505 178.357 5.7676 180.948 7.8877C183.539 10.0078 184.997 12.8823 185.001 15.8806V83.8165C184.997 86.8148 183.539 89.6893 180.948 91.8094C178.357 93.9295 174.844 95.1221 171.179 95.1254H19.4088C15.7444 95.122 12.2312 93.9295 9.64013 91.8094C7.04901 89.6893 5.59151 86.8148 5.5874 83.8165V15.8806C5.5915 12.8823 7.049 10.0078 9.64012 7.88774C12.2312 5.76764 15.7444 4.57508 19.4088 4.57169Z" fill="#DFFDEF"/>
<path d="M20.89 124.02C20.432 124.019 19.9788 123.944 19.5563 123.8C18.9257 123.592 18.3863 123.234 18.0087 122.772C17.6311 122.309 17.433 121.765 17.4401 121.209V97.7235L55.7066 96.67L23.2922 123.192C22.9787 123.453 22.605 123.661 22.1926 123.803C21.7802 123.945 21.3375 124.019 20.89 124.02Z" fill="#D5EEE2"/>
<path d="M259.066 34.6484H107.296C102.15 34.6532 97.2165 36.3278 93.5778 39.305C89.9392 42.2821 87.8925 46.3187 87.8867 50.529V118.465C87.8925 122.675 89.9392 126.712 93.5778 129.689C97.2165 132.666 102.15 134.341 107.296 134.346H259.066C264.212 134.341 269.145 132.666 272.784 129.689C276.423 126.712 278.469 122.675 278.475 118.465V50.529C278.469 46.3187 276.423 42.2821 272.784 39.305C269.145 36.3278 264.212 34.6532 259.066 34.6484Z" fill="#D5EEE2"/>
<path d="M259.066 39.2201H107.296C103.631 39.2235 100.118 40.416 97.5269 42.5361C94.9358 44.6562 93.4782 47.5307 93.4741 50.529V118.465C93.4782 121.463 94.9358 124.338 97.5269 126.458C100.118 128.578 103.631 129.77 107.296 129.774H259.066C262.731 129.77 266.244 128.578 268.835 126.458C271.426 124.338 272.884 121.463 272.888 118.465V50.529C272.884 47.5308 271.426 44.6563 268.835 42.5362C266.244 40.4161 262.731 39.2235 259.066 39.2201Z" fill="#DFFDEF"/>
<path d="M247.52 157.84L215.106 131.318L253.372 132.372V155.857C253.38 156.413 253.181 156.958 252.804 157.42C252.426 157.883 251.887 158.241 251.256 158.448C250.834 158.593 250.381 158.668 249.923 158.669C249.475 158.668 249.032 158.594 248.62 158.452C248.208 158.309 247.834 158.102 247.52 157.84Z" fill="#D5EEE2"/>
</svg>
