<svg width="50" height="50" viewBox="0 0 50 50" fill="none" xmlns="http://www.w3.org/2000/svg">
<circle cx="25" cy="25" r="24" stroke="#2A9D8F" stroke-width="2" stroke-dasharray="2 2"/>
<path d="M32.5001 23.3333H30.8334V18.3333H31.6667V16.6667H18.3334V18.3333H19.1667V23.3333H17.5001C17.2791 23.3333 17.0671 23.4211 16.9108 23.5774C16.7545 23.7337 16.6667 23.9457 16.6667 24.1667V31.6667H33.3334V24.1667C33.3334 23.9457 33.2456 23.7337 33.0893 23.5774C32.9331 23.4211 32.7211 23.3333 32.5001 23.3333ZM26.6667 30V26.6667H23.3334V30H20.8334V18.3333H29.1667V30H26.6667Z" fill="#2A9D8F"/>
<path d="M22.5 20H24.1667V21.6667H22.5V20ZM25.8333 20H27.5V21.6667H25.8333V20ZM22.5 23.3333H24.1667V25H22.5V23.3333ZM25.8333 23.3333H27.5V25H25.8333V23.3333Z" fill="#2A9D8F"/>
</svg>
