<svg width="91" height="77" viewBox="0 0 91 77" fill="none" xmlns="http://www.w3.org/2000/svg">
<g clip-path="url(#clip0_1084_4180)">
<path d="M89.9998 38.5014V38.5C89.9998 17.9397 70.2393 1 45.4998 1C20.7603 1 0.999815 17.9397 0.999815 38.5V38.5019C0.987626 44.8588 2.90452 51.1233 6.58379 56.6968C7.24808 57.7019 7.96368 58.6771 8.73075 59.6224L8.73102 59.6227C10.9301 62.3351 13.5428 64.7969 16.5049 66.9434L16.5055 66.9439C17.3407 67.5501 18.2026 68.1295 19.0913 68.682C19.3062 68.8155 19.5225 68.9475 19.7401 69.0781L19.7404 69.0783C19.8197 69.1259 19.9008 69.1738 19.9854 69.2238L19.9874 69.225L19.9883 69.2256C20.0695 69.2737 20.1472 69.3197 20.2257 69.3654L20.2262 69.3657C20.4755 69.5112 20.7275 69.6544 20.9823 69.7955L20.9851 69.7971C21.9786 70.3517 22.9994 70.8728 24.0474 71.3603C24.2303 71.4452 24.4141 71.5287 24.5988 71.6107L24.6058 71.6139L24.6128 71.6171C24.6735 71.6452 24.7329 71.6714 24.802 71.7019C24.8198 71.7097 24.8382 71.7179 24.8574 71.7264L24.8647 71.7296L24.8711 71.7326L24.8719 71.7329L24.8795 71.7363L24.8806 71.7368C24.886 71.7392 24.8964 71.7438 24.9082 71.7491C27.8641 73.0529 30.987 74.0705 34.2174 74.7818L34.2196 74.7823L34.2904 74.7981C34.3946 74.8214 34.4934 74.8434 34.5934 74.8648C34.7388 74.8958 34.8746 74.9248 35.0103 74.9514L35.0224 74.9537L35.0344 74.9564C35.0774 74.9659 35.1235 74.975 35.1835 74.9868L35.1869 74.9875C36.5985 75.2704 38.0343 75.4946 39.4942 75.6601L39.4949 75.6602C41.485 75.8872 43.4911 76.0007 45.4995 76H45.4998C45.698 76 45.8961 75.9989 46.0929 75.9966H46.097C46.0994 75.9966 46.1018 75.9966 46.1042 75.9965C46.3 75.9943 46.4957 75.991 46.69 75.9866L46.6902 75.9866C47.0883 75.9776 47.4817 75.9653 47.8735 75.9475L47.8755 75.9474C48.0284 75.9408 48.1807 75.933 48.3373 75.925C48.5743 75.9128 48.81 75.8983 49.0494 75.8826C49.2484 75.8689 49.4399 75.8557 49.6303 75.8403L49.6366 75.8398C49.7851 75.8288 49.9337 75.8167 50.0822 75.8035L50.0866 75.8031C50.1672 75.7963 50.2405 75.7899 50.3137 75.7827L50.3247 75.7816L50.3247 75.7817C50.4752 75.7685 50.6246 75.7542 50.7743 75.7388L89.9998 38.5014ZM89.9998 38.5014C90.0067 43.2893 88.9216 48.0383 86.7981 52.4894C86.7972 52.4912 86.7964 52.4929 86.7956 52.4945L86.7907 52.5044L86.6802 52.7147V52.7335C85.2626 55.6415 83.4128 58.3908 81.1722 60.9144L81.1712 60.9156C80.729 61.4152 80.2728 61.9045 79.8024 62.3836L79.8017 62.3843C79.6308 62.5588 79.4564 62.7329 79.2809 62.9061C78.3811 63.7896 77.4341 64.6366 76.4395 65.4471L76.4383 65.448C76.2073 65.6368 75.9735 65.8235 75.7371 66.008L75.7345 66.01C75.7091 66.03 75.6833 66.05 75.6546 66.0723C75.6276 66.0932 75.598 66.1162 75.5679 66.1398C74.4101 67.0348 73.1965 67.8779 71.932 68.6653L71.9301 68.6664C71.0814 69.1976 70.2099 69.7022 69.3157 70.1802L69.3123 70.182C69.1177 70.287 68.9217 70.3902 68.7244 70.4915L68.7223 70.4927C68.3773 70.6709 68.0292 70.8451 67.6779 71.0153L67.6765 71.016C67.2185 71.2387 66.7546 71.4545 66.2848 71.6632L66.2787 71.666C66.0941 71.7495 65.9068 71.8304 65.7103 71.9153L65.7078 71.9164C65.4316 72.0365 65.1528 72.1528 64.8695 72.2677L64.8646 72.2697C64.8132 72.2908 64.7725 72.3076 64.7334 72.3228L64.7245 72.3262L64.7157 72.3299C64.5362 72.4036 64.3529 72.4757 64.1615 72.551M89.9998 38.5014L64.1615 72.551M56.5744 74.8287L56.572 74.8292L56.5711 74.8294L56.5701 74.8296C56.5644 74.8307 56.5492 74.8337 56.5312 74.8378C56.364 74.8739 56.195 74.9091 56.0255 74.9433L56.0184 74.9448C55.8945 74.9707 55.7687 74.9957 55.6422 75.0198L55.6023 75.0274L55.5934 75.0298L55.585 75.0315C55.3194 75.084 55.058 75.1335 54.7962 75.1782L54.7893 75.1794C54.6352 75.2069 54.4853 75.2336 54.336 75.2591L54.3359 75.259L54.3234 75.2613C54.2448 75.2757 54.1639 75.2885 54.0668 75.304L54.0611 75.3049C54.0048 75.3142 53.9484 75.3233 53.8899 75.3328L53.8279 75.3428C53.7895 75.349 53.7505 75.3554 53.7111 75.3619L53.7111 75.3618L53.7006 75.3636C53.6564 75.3714 53.6086 75.3783 53.5422 75.3875L53.5346 75.3885L53.527 75.3897C53.379 75.4125 53.2346 75.4347 53.0921 75.4557C52.8454 75.4916 52.5989 75.526 52.3553 75.5569L52.3514 75.5574C52.1718 75.5808 51.9941 75.6031 51.8157 75.6242L51.8123 75.6246C51.6038 75.65 51.394 75.6733 51.181 75.6957L51.1666 75.6972L51.1522 75.6991C51.1149 75.7041 51.0744 75.7082 51.0122 75.7141L51.0046 75.7149L50.7752 75.7387L56.5744 74.8287ZM56.5744 74.8287L56.579 74.8277C59.1843 74.2651 61.7223 73.503 64.1615 72.551M56.5744 74.8287L64.1615 72.551" fill="#EDEDED" stroke="#00BFA6" stroke-width="2"/>
<path opacity="0.2" d="M52.8164 75.9327C52.9618 75.9042 53.1058 75.8735 53.2499 75.8427C53.3778 75.8154 53.5043 75.7869 53.6322 75.7584C53.6389 75.5317 53.6483 75.2823 53.6578 75.0123C53.7372 72.8982 53.9243 69.4948 54.3658 65.3942C54.3901 65.1743 54.4143 64.953 54.4385 64.7301C54.596 63.3405 54.7804 61.879 55.0012 60.3641C55.0079 60.314 55.016 60.265 55.0228 60.2149C55.2018 58.987 55.4051 57.7261 55.6339 56.4412C55.7941 55.5425 55.9673 54.6339 56.1535 53.7155C56.167 53.6517 56.1804 53.5867 56.1939 53.523C56.2478 53.2576 56.3029 52.9933 56.3595 52.7268C56.517 51.9852 56.6853 51.2391 56.8616 50.4931C57.4822 47.8687 58.2212 45.2284 59.1029 42.6598C59.9986 39.996 61.1017 37.3853 62.4051 34.8448C63.4159 32.8712 64.62 30.9726 66.0047 29.1689C66.0249 29.1427 66.0451 29.1176 66.0653 29.0914C67.8354 26.8349 69.8587 24.9202 72.1687 23.4884L71.6895 22.9348C69.4764 24.3074 67.4464 26.1337 65.5995 28.4137C65.5901 28.4251 65.582 28.4353 65.5726 28.4467C64.1837 30.1894 62.9714 32.0283 61.9487 33.9438C60.5793 36.5059 59.4241 39.1463 58.4918 41.8454C57.6087 44.3536 56.8167 47.071 56.1158 49.9976C55.8695 51.0284 55.6344 52.0847 55.4104 53.1664C55.3728 53.351 55.3351 53.5355 55.2974 53.7211C55.2974 53.7234 55.296 53.7268 55.296 53.7291C55.2381 54.0139 55.1829 54.2986 55.1264 54.5868C54.9864 55.3124 54.8545 56.0323 54.7306 56.7465C54.5395 57.8468 54.3667 58.9281 54.2124 59.9905C54.1612 60.3413 54.1119 60.6895 54.0643 61.035C53.997 61.5225 53.9333 62.0036 53.8731 62.4782C53.7883 63.1388 53.7107 63.7854 53.6403 64.418L53.6201 64.5923C53.6093 64.6925 53.5985 64.7927 53.5878 64.8918C53.0412 69.8798 52.8703 73.9086 52.8164 75.9327Z" fill="black"/>
<path opacity="0.2" d="M63.136 72.6614C63.1508 72.6545 63.1669 72.6477 63.1818 72.6409C63.4591 72.519 63.7337 72.3948 64.0083 72.2673C64.0985 71.3583 64.2196 70.3594 64.3785 69.3091C64.4121 69.0927 64.4458 68.8729 64.4835 68.6519C64.5023 68.5335 64.5225 68.4139 64.5427 68.2931C64.7016 67.3682 64.89 66.4137 65.1162 65.4546C66.0356 61.5408 67.5621 57.5404 70.0969 55.071C70.2329 54.9377 70.3716 54.8101 70.5156 54.686C70.8725 54.3721 71.2603 54.0844 71.6746 53.826L71.1954 53.2736C70.617 53.6355 70.0846 54.0474 69.6069 54.5026C69.4387 54.6609 69.2744 54.8257 69.1143 54.9969C66.7814 57.4812 65.3248 61.1592 64.4175 64.8008C64.1806 65.7507 63.9814 66.6996 63.8118 67.6233C63.7687 67.8648 63.7274 68.104 63.6879 68.3409C63.4254 69.906 63.2518 71.3845 63.136 72.6614Z" fill="black"/>
<path opacity="0.2" d="M76.6956 23.4725C78.9326 23.4725 80.746 21.938 80.746 20.0452C80.746 18.1524 78.9326 16.618 76.6956 16.618C74.4587 16.618 72.6453 18.1524 72.6453 20.0452C72.6453 21.938 74.4587 23.4725 76.6956 23.4725Z" fill="black"/>
<path opacity="0.2" d="M75.3912 52.975C77.6282 52.975 79.4416 51.4406 79.4416 49.5478C79.4416 47.655 77.6282 46.1205 75.3912 46.1205C73.1542 46.1205 71.3408 47.655 71.3408 49.5478C71.3408 51.4406 73.1542 52.975 75.3912 52.975Z" fill="black"/>
<path opacity="0.2" d="M60.6152 25.802C61.4741 29.9023 59.5781 33.615 59.5781 33.615C59.5781 33.615 56.2895 30.6799 55.4306 26.5796C54.5716 22.4793 56.4677 18.7665 56.4677 18.7665C56.4677 18.7665 59.7563 21.7017 60.6152 25.802Z" fill="black"/>
<path opacity="0.2" d="M74.0765 35.5352C69.4545 36.9653 64.8101 36.0475 64.8101 36.0475C64.8101 36.0475 67.6593 32.8112 72.2814 31.3811C76.9034 29.951 81.5478 30.8687 81.5478 30.8687C81.5478 30.8687 78.6985 34.1051 74.0765 35.5352Z" fill="black"/>
<path opacity="0.2" d="M74.8603 61.6607C71.6206 62.6631 68.3606 62.0092 68.3606 62.0092C68.3606 62.0092 70.3531 59.7301 73.5928 58.7278C76.8324 57.7254 80.0924 58.3793 80.0924 58.3793C80.0924 58.3793 78.0999 60.6583 74.8603 61.6607Z" fill="black"/>
<path d="M59.2253 61.084L59.3896 61.1557C59.3734 61.3038 59.3344 61.395 59.2253 61.084Z" fill="#2F2E41"/>
<path d="M59.4423 61.1318C59.4437 61.1478 59.4464 61.1649 59.4477 61.1808L59.3896 61.1558C59.391 61.141 59.3923 61.125 59.395 61.1091C59.4086 60.9097 59.3924 60.6739 59.4423 61.1318Z" fill="#2F2E41"/>
<path d="M41.9574 55.6826C54.1656 55.6826 64.0624 47.3084 64.0624 36.9783C64.0624 26.6482 54.1656 18.274 41.9574 18.274C29.7491 18.274 19.8523 26.6482 19.8523 36.9783C19.8523 47.3084 29.7491 55.6826 41.9574 55.6826Z" fill="#2F2E41"/>
<path d="M43.7769 54.9202C51.1702 54.9202 57.1636 49.8489 57.1636 43.593C57.1636 37.3371 51.1702 32.2657 43.7769 32.2657C36.3836 32.2657 30.3901 37.3371 30.3901 43.593C30.3901 49.8489 36.3836 54.9202 43.7769 54.9202Z" fill="#D0CDE1"/>
<path d="M74.3441 65.3031L74.3279 65.3065L71.2142 65.9387L64.7312 67.2554L63.8467 67.4354L53.9875 69.4367L53.1502 69.6076L29.2304 74.4645C27.6134 73.9411 26.0335 73.3391 24.4987 72.6614C24.4839 72.6545 24.4677 72.6477 24.4529 72.6409C24.3654 72.6021 24.2792 72.5646 24.1931 72.5247C24.0033 72.4404 23.8144 72.3546 23.6264 72.2673C22.5562 71.7695 21.5133 71.2372 20.4979 70.6703C20.2367 70.5257 19.9783 70.3787 19.7225 70.2295C19.6404 70.1817 19.5596 70.1338 19.4789 70.086C19.3941 70.0359 19.3092 69.9857 19.2258 69.9356C19.0037 69.8023 18.7829 69.6676 18.5635 69.5313C20.8869 65.958 26.4196 63.5831 31.9523 62.2835C36.1281 61.3016 37.0462 58.0747 36.9667 55.2031C36.9466 54.5481 36.8809 53.8947 36.7702 53.2462C36.6015 52.2141 36.3332 51.1954 35.9679 50.2004L49.3554 50.5785L50.7366 53.2713C50.6988 53.567 50.6866 53.8647 50.7002 54.162C50.8052 56.3706 52.4166 57.799 54.4048 58.7205C54.6633 58.8401 54.9285 58.9517 55.1977 59.0554C58.4581 60.3095 62.296 60.3949 62.296 60.3949C63.4646 60.2856 64.6451 60.3044 65.8081 60.4507C66.0908 60.4872 66.3654 60.5308 66.6319 60.5817C68.1881 60.876 69.6582 61.4327 70.9544 62.2185C71.4495 62.5165 71.9179 62.8451 72.3558 63.2015C73.1341 63.8179 73.8037 64.5256 74.3441 65.3031Z" fill="#D0CDE1"/>
<path d="M76.3526 66.7963C76.296 66.8408 76.2395 66.8841 76.183 66.9285C74.9971 67.8454 73.7546 68.7085 72.4608 69.5141C71.5926 70.0575 70.7014 70.5734 69.7874 71.0621C69.5868 71.1703 69.3849 71.2766 69.1816 71.381C68.8289 71.5633 68.4731 71.7414 68.1141 71.9152C67.6456 72.1431 67.1713 72.3637 66.6912 72.577C66.4974 72.6647 66.3022 72.749 66.107 72.8333C65.8216 72.9575 65.5349 73.0771 65.2455 73.1944C65.1956 73.2149 65.1458 73.2354 65.096 73.2548L64.5266 72.855L71.2143 65.9386L72.5591 64.5479C72.5591 64.5479 73.0962 64.5479 74.328 65.3065C75.0088 65.7352 75.6521 66.2049 76.253 66.7121C76.2853 66.7405 76.3189 66.7679 76.3526 66.7963Z" fill="#D0CDE1"/>
<path d="M76.2583 66.7189C76.2402 66.7905 76.215 66.8606 76.1829 66.9285C74.9971 67.8454 73.7546 68.7085 72.4608 69.5142C71.3382 69.8566 70.1736 70.0908 68.9891 70.2124C68.9891 70.2124 69.09 70.6407 69.1816 71.3811C68.8289 71.5633 68.473 71.7414 68.1141 71.9153C67.6456 72.1431 67.1713 72.3637 66.6912 72.5771C66.4973 72.6648 66.3022 72.7491 66.107 72.8334C65.8216 72.9575 65.5348 73.0771 65.2454 73.1944C65.1956 73.2149 65.1458 73.2354 65.096 73.2548C64.9075 73.3323 64.7164 73.4074 64.5252 73.4826C62.0357 74.4542 59.4467 75.2316 56.7902 75.8051C56.7754 75.8086 56.762 75.8108 56.7472 75.8143C56.5735 75.8519 56.3985 75.8883 56.2235 75.9236C56.0929 75.9509 55.961 75.9771 55.8291 76.0022C55.8128 76.0067 55.7962 76.0101 55.7793 76.0125C55.5087 76.066 55.2381 76.1172 54.9648 76.1639C54.8114 76.1913 54.6579 76.2186 54.5045 76.2448C54.4116 76.2619 54.3173 76.2767 54.2245 76.2915C54.1073 76.3109 53.9916 76.3291 53.8745 76.3485C53.8098 76.3599 53.7452 76.369 53.6793 76.3781C53.5312 76.4009 53.3831 76.4237 53.2364 76.4453C52.986 76.4817 52.7329 76.5171 52.4812 76.5489C52.2981 76.5729 52.1164 76.5957 51.9333 76.6173C51.7179 76.6435 51.5025 76.6674 51.2858 76.6902C51.2266 76.6982 51.1673 76.7039 51.1081 76.7096C51.0314 76.7175 50.9547 76.7255 50.8779 76.7335C50.7231 76.7494 50.5683 76.7642 50.4122 76.7779C50.3314 76.7859 50.252 76.7927 50.1712 76.7995C50.0177 76.8132 49.8643 76.8257 49.7108 76.8371C49.5129 76.8531 49.315 76.8667 49.1158 76.8804C48.8735 76.8964 48.6325 76.9112 48.3889 76.9237C48.2327 76.9317 48.0766 76.9396 47.9191 76.9465C47.5179 76.9647 47.1168 76.9772 46.7129 76.9863C46.5123 76.9909 46.3104 76.9943 46.1085 76.9966H46.1045C45.9039 76.9989 45.702 77 45.5 77C43.4537 77.0007 41.4097 76.8851 39.3818 76.6537C37.8943 76.4852 36.4305 76.2566 34.9906 75.968C34.9327 75.9566 34.8748 75.9453 34.8183 75.9327C34.6729 75.9042 34.5289 75.8735 34.3848 75.8427C34.257 75.8154 34.1304 75.7869 34.0025 75.7584C30.7067 75.0327 27.5184 73.9937 24.4987 72.6614C24.4839 72.6545 24.4677 72.6477 24.4529 72.6409C24.3654 72.6021 24.2793 72.5645 24.1931 72.5247C31.5822 71.0678 43.2587 68.7704 53.3912 66.8021C53.6752 66.7474 53.9575 66.6927 54.2379 66.638C57.9802 65.9113 61.4856 65.2347 64.4512 64.6686C64.7581 64.6105 65.0588 64.5536 65.3531 64.4978C68.5395 63.8918 71.0137 63.4316 72.3558 63.2015C72.7176 63.1316 73.0833 63.0772 73.4516 63.0386L76.2529 66.7121L76.2583 66.7189Z" fill="#2F2E41"/>
<path d="M21.7334 29.0191C25.3699 29.0191 28.3179 26.5246 28.3179 23.4476C28.3179 20.3705 25.3699 17.8761 21.7334 17.8761C18.0969 17.8761 15.1489 20.3705 15.1489 23.4476C15.1489 26.5246 18.0969 29.0191 21.7334 29.0191Z" fill="#2F2E41"/>
<path d="M62.1812 27.4272C65.8177 27.4272 68.7657 24.9328 68.7657 21.8557C68.7657 18.7787 65.8177 16.2842 62.1812 16.2842C58.5447 16.2842 55.5967 18.7787 55.5967 21.8557C55.5967 24.9328 58.5447 27.4272 62.1812 27.4272Z" fill="#2F2E41"/>
<path d="M55.1263 19.4679C55.1265 18.0938 55.7269 16.7682 56.8121 15.7458C57.8972 14.7235 59.3906 14.0766 61.0053 13.9294C60.0857 13.8444 59.1554 13.9243 58.2748 14.1639C57.3942 14.4035 56.5831 14.7974 55.8944 15.3199C55.2057 15.8424 54.6549 16.4819 54.2778 17.1966C53.9007 17.9113 53.7058 18.6852 53.7058 19.4679C53.7058 20.2506 53.9007 21.0245 54.2778 21.7392C54.6549 22.4539 55.2057 23.0934 55.8944 23.6159C56.5831 24.1385 57.3942 24.5324 58.2748 24.772C59.1554 25.0116 60.0857 25.0915 61.0053 25.0065C59.3906 24.8593 57.8972 24.2123 56.8121 23.19C55.7269 22.1677 55.1265 20.8421 55.1263 19.4679Z" fill="#2F2E41"/>
<path d="M14.3764 27.9542C13.24 26.9726 12.5724 25.6702 12.5019 24.2973C12.4315 22.9244 12.9631 21.578 13.9947 20.5167C13.2676 21.0005 12.6691 21.6085 12.2383 22.3011C11.8074 22.9938 11.5539 23.7554 11.4942 24.5365C11.4345 25.3175 11.5699 26.1005 11.8917 26.8343C12.2135 27.5681 12.7144 28.2363 13.3618 28.7954C14.0092 29.3545 14.7885 29.7918 15.649 30.079C16.5095 30.3662 17.4318 30.4968 18.3559 30.4622C19.28 30.4276 20.1851 30.2286 21.0123 29.8783C21.8395 29.5279 22.5701 29.0341 23.1566 28.4288C21.8815 29.2799 20.2798 29.7021 18.6591 29.6145C17.0384 29.5269 15.5131 28.9356 14.3764 27.9542Z" fill="#2F2E41"/>
<path d="M41.9573 28.2231C34.1647 28.2231 27.8477 31.3412 27.8477 35.1875C27.8477 36.9085 29.1174 38.4814 31.2134 39.6965L33.9297 38.0312L33.191 40.6401C33.4975 40.7603 33.8105 40.8766 34.1369 40.9841L38.1947 36.9783V41.8995C39.439 42.0681 40.6971 42.1525 41.9573 42.1519C49.7498 42.1519 56.0669 39.0338 56.0669 35.1875C56.0669 31.3412 49.7498 28.2231 41.9573 28.2231Z" fill="#2F2E41"/>
<path d="M55.5965 21.8557C55.5965 21.8557 54.5739 25.8353 60.9642 27.4272L55.5965 21.8557Z" fill="#2F2E41"/>
<path d="M27.8477 22.58C27.8477 22.58 30.1993 27.0292 23.1445 29.019L27.8477 22.58Z" fill="#2F2E41"/>
<path d="M31.3352 48.04C31.9285 47.8995 32.0863 46.8088 31.6877 45.604C31.2891 44.3991 30.4849 43.5363 29.8916 43.6769C29.2983 43.8174 29.1405 44.9081 29.5392 46.1129C29.9378 47.3178 30.7419 48.1806 31.3352 48.04Z" fill="#D0CDE1"/>
<path d="M58.5004 44.0286C58.5913 42.7798 58.1664 41.7415 57.5515 41.7094C56.9366 41.6774 56.3644 42.6637 56.2735 43.9125C56.1826 45.1614 56.6074 46.1997 57.2223 46.2317C57.8373 46.2638 58.4095 45.2774 58.5004 44.0286Z" fill="#D0CDE1"/>
</g>
<defs>
<clipPath id="clip0_1084_4180">
<rect width="91" height="77" fill="white"/>
</clipPath>
</defs>
</svg>
