<svg width="460" height="312" viewBox="0 0 460 312" fill="none" xmlns="http://www.w3.org/2000/svg">
<path d="M293.135 233.897V309.107H91.7621C68.8184 309.107 50.1511 292.237 50.1511 271.502C50.1511 250.767 68.8183 233.897 91.7621 233.897H293.135Z" fill="#F2F2F2"/>
<path d="M298.081 308.529C298.081 309.296 297.755 310.031 297.175 310.574C296.596 311.116 295.81 311.421 294.99 311.421H88.1754C76.9429 311.421 66.1705 307.246 58.2279 299.814C50.2853 292.382 45.8232 282.302 45.8232 271.791C45.8232 261.281 50.2853 251.201 58.2279 243.769C66.1705 236.336 76.9429 232.161 88.1754 232.161H294.99C295.81 232.161 296.596 232.466 297.176 233.008C297.756 233.551 298.081 234.287 298.081 235.054C298.081 235.821 297.756 236.557 297.176 237.099C296.596 237.642 295.81 237.947 294.99 237.947H88.1754C78.5827 237.947 69.3829 241.512 62.5998 247.859C55.8167 254.207 52.006 262.815 52.006 271.791C52.006 280.767 55.8167 289.376 62.5998 295.723C69.3829 302.07 78.5827 305.636 88.1754 305.636H294.99C295.81 305.636 296.596 305.941 297.175 306.484C297.755 307.026 298.081 307.762 298.081 308.529Z" fill="#00BFA6"/>
<path d="M293.135 251.253H76.7372C76.5732 251.253 76.4159 251.192 76.3 251.084C76.184 250.975 76.1189 250.828 76.1189 250.674C76.1189 250.521 76.184 250.374 76.3 250.265C76.4159 250.157 76.5732 250.096 76.7372 250.096H293.135C293.299 250.096 293.456 250.157 293.572 250.265C293.688 250.374 293.753 250.521 293.753 250.674C293.753 250.828 293.688 250.975 293.572 251.084C293.456 251.192 293.299 251.253 293.135 251.253Z" fill="#CCCCCC"/>
<path d="M293.135 265.138H76.7372C76.5732 265.138 76.4159 265.077 76.3 264.969C76.184 264.86 76.1189 264.713 76.1189 264.559C76.1189 264.406 76.184 264.259 76.3 264.15C76.4159 264.042 76.5732 263.981 76.7372 263.981H293.135C293.299 263.981 293.456 264.042 293.572 264.15C293.688 264.259 293.753 264.406 293.753 264.559C293.753 264.713 293.688 264.86 293.572 264.969C293.456 265.077 293.299 265.138 293.135 265.138Z" fill="#CCCCCC"/>
<path d="M293.135 279.023H76.7372C76.5732 279.023 76.4159 278.962 76.3 278.854C76.184 278.745 76.1189 278.598 76.1189 278.445C76.1189 278.291 76.184 278.144 76.3 278.035C76.4159 277.927 76.5732 277.866 76.7372 277.866H293.135C293.299 277.866 293.456 277.927 293.572 278.035C293.688 278.144 293.753 278.291 293.753 278.445C293.753 278.598 293.688 278.745 293.572 278.854C293.456 278.962 293.299 279.023 293.135 279.023Z" fill="#CCCCCC"/>
<path d="M293.135 292.908H76.7372C76.5732 292.908 76.4159 292.847 76.3 292.739C76.184 292.63 76.1189 292.483 76.1189 292.33C76.1189 292.176 76.184 292.029 76.3 291.92C76.4159 291.812 76.5732 291.751 76.7372 291.751H293.135C293.299 291.751 293.456 291.812 293.572 291.92C293.688 292.029 293.753 292.176 293.753 292.33C293.753 292.483 293.688 292.63 293.572 292.739C293.456 292.847 293.299 292.908 293.135 292.908Z" fill="#CCCCCC"/>
<path d="M448.767 248.054L398.337 306.619L241.532 188.394C223.666 174.924 220.442 150.828 234.345 134.682C248.248 118.536 274.096 116.359 291.962 129.829L448.767 248.054Z" fill="#F2F2F2"/>
<path d="M402.577 309.073C402.062 309.67 401.315 310.051 400.5 310.133C399.685 310.215 398.868 309.991 398.23 309.51L237.187 188.09C228.441 181.495 222.852 171.92 221.651 161.469C220.449 151.019 223.734 140.55 230.781 132.366C237.829 124.182 248.062 118.952 259.23 117.828C270.398 116.704 281.586 119.777 290.333 126.372L451.375 247.792C451.691 248.03 451.955 248.324 452.149 248.658C452.344 248.991 452.467 249.357 452.51 249.735C452.554 250.113 452.518 250.495 452.403 250.86C452.289 251.224 452.099 251.564 451.844 251.86C451.589 252.156 451.275 252.402 450.918 252.584C450.562 252.766 450.17 252.881 449.767 252.921C449.363 252.962 448.954 252.928 448.565 252.82C448.175 252.713 447.812 252.535 447.496 252.297L286.453 130.877C282.755 128.086 278.505 126.004 273.947 124.751C269.389 123.497 264.611 123.096 259.887 123.571C255.164 124.046 250.586 125.387 246.416 127.517C242.246 129.647 238.565 132.526 235.585 135.988C232.604 139.449 230.381 143.427 229.043 147.692C227.705 151.958 227.279 156.429 227.788 160.849C228.297 165.269 229.732 169.552 232.01 173.453C234.288 177.354 237.366 180.797 241.067 183.585L402.109 305.005C402.747 305.487 403.155 306.186 403.243 306.948C403.33 307.711 403.091 308.475 402.577 309.073V309.073Z" fill="#CCCCCC"/>
<path d="M437.129 261.569L268.624 134.523C268.561 134.475 268.509 134.416 268.47 134.349C268.431 134.283 268.406 134.21 268.398 134.134C268.389 134.059 268.396 133.982 268.419 133.909C268.442 133.836 268.48 133.768 268.531 133.709C268.582 133.65 268.645 133.601 268.716 133.564C268.787 133.528 268.865 133.505 268.946 133.497C269.027 133.489 269.109 133.496 269.186 133.517C269.264 133.538 269.337 133.574 269.4 133.622L437.905 260.668C437.968 260.716 438.021 260.775 438.06 260.841C438.099 260.908 438.124 260.981 438.132 261.057C438.141 261.132 438.134 261.209 438.111 261.282C438.088 261.355 438.05 261.423 437.999 261.482C437.948 261.541 437.885 261.591 437.814 261.627C437.743 261.663 437.664 261.686 437.583 261.694C437.503 261.702 437.421 261.696 437.343 261.674C437.265 261.653 437.192 261.617 437.129 261.569V261.569Z" fill="#CCCCCC"/>
<path d="M427.819 272.381L259.314 145.335C259.187 145.238 259.105 145.099 259.088 144.946C259.071 144.794 259.119 144.641 259.221 144.522C259.324 144.402 259.473 144.326 259.636 144.31C259.799 144.293 259.962 144.338 260.09 144.434L428.595 271.48C428.658 271.528 428.711 271.587 428.75 271.653C428.789 271.72 428.813 271.793 428.822 271.869C428.831 271.945 428.824 272.021 428.801 272.094C428.778 272.167 428.74 272.235 428.689 272.294C428.638 272.353 428.575 272.403 428.504 272.439C428.432 272.475 428.354 272.498 428.273 272.506C428.192 272.515 428.111 272.508 428.033 272.486C427.955 272.465 427.882 272.429 427.819 272.381V272.381Z" fill="#CCCCCC"/>
<path d="M418.509 283.193L250.004 156.147C249.877 156.05 249.795 155.911 249.777 155.758C249.76 155.606 249.808 155.453 249.911 155.333C250.014 155.214 250.163 155.137 250.326 155.121C250.489 155.105 250.652 155.149 250.78 155.246L419.285 282.292C419.348 282.34 419.401 282.399 419.44 282.465C419.479 282.532 419.503 282.605 419.512 282.681C419.52 282.756 419.513 282.833 419.49 282.906C419.467 282.979 419.429 283.047 419.378 283.106C419.327 283.165 419.265 283.214 419.193 283.25C419.122 283.287 419.044 283.31 418.963 283.318C418.882 283.326 418.801 283.319 418.723 283.298C418.645 283.276 418.572 283.241 418.509 283.193V283.193Z" fill="#CCCCCC"/>
<path d="M409.199 294.005L240.694 166.959C240.631 166.911 240.578 166.852 240.54 166.786C240.501 166.719 240.476 166.646 240.467 166.57C240.459 166.495 240.466 166.418 240.489 166.345C240.512 166.272 240.55 166.204 240.601 166.145C240.652 166.086 240.715 166.037 240.786 166C240.857 165.964 240.935 165.941 241.016 165.933C241.097 165.925 241.178 165.932 241.256 165.953C241.334 165.975 241.407 166.01 241.47 166.058L409.975 293.104C410.038 293.152 410.091 293.211 410.13 293.277C410.169 293.344 410.193 293.417 410.202 293.493C410.211 293.568 410.204 293.645 410.181 293.718C410.158 293.791 410.12 293.859 410.069 293.918C410.018 293.977 409.955 294.027 409.884 294.063C409.812 294.099 409.734 294.122 409.653 294.13C409.572 294.138 409.491 294.132 409.413 294.11C409.335 294.089 409.262 294.053 409.199 294.005V294.005Z" fill="#CCCCCC"/>
<path d="M459.382 312H0.61828C0.454302 312 0.297039 311.939 0.181089 311.831C0.0651395 311.722 0 311.575 0 311.421C0 311.268 0.0651395 311.121 0.181089 311.012C0.297039 310.904 0.454302 310.843 0.61828 310.843H459.382C459.546 310.843 459.703 310.904 459.819 311.012C459.935 311.121 460 311.268 460 311.421C460 311.575 459.935 311.722 459.819 311.831C459.703 311.939 459.546 312 459.382 312Z" fill="#CCCCCC"/>
<path d="M209.029 225.992L201.96 225.991L198.599 200.479L209.031 200.481L209.029 225.992Z" fill="#FFB8B8"/>
<path d="M196.911 224.101H210.543V232.132H188.328C188.328 231.078 188.55 230.033 188.982 229.059C189.413 228.085 190.045 227.199 190.842 226.453C191.639 225.708 192.585 225.116 193.627 224.713C194.668 224.309 195.784 224.101 196.911 224.101V224.101Z" fill="#2F2E41"/>
<path d="M136.817 225.992L129.749 225.991L126.387 200.479L136.819 200.481L136.817 225.992Z" fill="#FFB8B8"/>
<path d="M124.7 224.101H138.331V232.132H116.117C116.117 231.078 116.339 230.033 116.77 229.059C117.201 228.085 117.834 227.199 118.631 226.453C119.428 225.708 120.374 225.116 121.415 224.713C122.456 224.309 123.572 224.101 124.7 224.101V224.101Z" fill="#2F2E41"/>
<path d="M160.426 36.7566V33.8638C160.426 28.9154 162.526 24.1697 166.266 20.6706C170.005 17.1716 175.077 15.2058 180.365 15.2058H180.365C185.653 15.2058 190.725 17.1716 194.464 20.6706C198.204 24.1697 200.305 28.9154 200.305 33.8638V36.7566C200.305 40.324 198.79 43.7454 196.094 46.268C193.398 48.7905 189.742 50.2077 185.93 50.2077H174.801C172.913 50.2077 171.044 49.8598 169.299 49.1838C167.555 48.5078 165.971 47.517 164.636 46.268C163.301 45.0189 162.242 43.5361 161.52 41.9041C160.797 40.2721 160.426 38.523 160.426 36.7566V36.7566Z" fill="#2F2E41"/>
<path d="M180.365 51.203C188.752 51.203 195.551 44.8412 195.551 36.9934C195.551 29.1457 188.752 22.7838 180.365 22.7838C171.978 22.7838 165.179 29.1457 165.179 36.9934C165.179 44.8412 171.978 51.203 180.365 51.203Z" fill="#FFB8B8"/>
<path d="M97.7652 85.83C98.3815 85.2855 99.1178 84.874 99.9224 84.6246C100.727 84.3752 101.58 84.2939 102.422 84.3864C103.264 84.4789 104.074 84.743 104.794 85.1601C105.515 85.5772 106.13 86.1371 106.594 86.8004L119.612 84.4963L123.038 91.5571L104.606 94.5694C103.363 95.2259 101.906 95.4331 100.511 95.1517C99.1164 94.8704 97.8802 94.12 97.037 93.0427C96.1938 91.9654 95.8023 90.6362 95.9365 89.3069C96.0707 87.9775 96.7214 86.7404 97.7652 85.8299V85.83Z" fill="#FFB8B8"/>
<path d="M168.526 60.1518L168.696 60.3931L147.35 73.5517L111.33 84.3145C110.852 84.4581 110.443 84.7521 110.171 85.1464C109.899 85.5407 109.782 86.011 109.839 86.4773L110.624 92.8104C110.659 93.0907 110.756 93.3611 110.909 93.6042C111.062 93.8473 111.268 94.0578 111.513 94.2223C111.758 94.3867 112.037 94.5014 112.332 94.559C112.628 94.6166 112.933 94.6158 113.227 94.5567L147.127 87.7572C148.768 87.43 150.319 86.7909 151.685 85.8796L175.667 69.9136C176.536 69.3316 177.23 68.5491 177.681 67.642C178.131 66.7349 178.323 65.7342 178.238 64.7371C178.15 63.7386 177.786 62.7788 177.181 61.952C176.577 61.1252 175.752 60.46 174.79 60.0217C173.827 59.5834 172.759 59.3871 171.69 59.4523C170.622 59.5174 169.59 59.8417 168.696 60.3931L168.526 60.1518Z" fill="#CCCCCC"/>
<path d="M202.087 218.752C201.544 218.752 201.013 218.604 200.559 218.327C200.105 218.049 199.747 217.654 199.528 217.189L167.124 142.267C167.049 142.105 166.922 141.968 166.76 141.875C166.599 141.782 166.411 141.738 166.222 141.748C166.033 141.758 165.852 141.822 165.703 141.931C165.553 142.04 165.444 142.19 165.388 142.359L138.951 215.298C138.84 215.637 138.655 215.952 138.409 216.222C138.163 216.492 137.86 216.713 137.519 216.869C137.179 217.026 136.807 217.116 136.428 217.133C136.049 217.151 135.67 217.095 135.315 216.971L126.45 213.86C125.969 213.693 125.546 213.404 125.23 213.025C124.914 212.647 124.716 212.194 124.659 211.717C120.67 179.207 155.449 97.1479 155.801 96.323L155.898 96.0945L187.602 102.657L187.668 102.724C200.316 115.636 210.713 197.074 212.669 213.268C212.742 213.853 212.6 214.444 212.266 214.943C211.932 215.442 211.426 215.82 210.832 216.014L203.007 218.604C202.711 218.702 202.4 218.752 202.087 218.752Z" fill="#2F2E41"/>
<path d="M174.771 105.298C167.089 105.298 158.526 103.865 155.89 97.9502L155.829 97.8143L155.911 97.6883C157.992 94.4939 160.742 89.0446 159.264 88.0217C156.352 86.0073 154.939 82.6933 155.065 78.1718C155.337 68.3564 162.484 59.6418 172.85 56.4866H172.85C175.743 55.6202 178.688 54.9108 181.669 54.362C183.842 53.9517 186.085 53.9968 188.237 54.4942C190.389 54.9915 192.397 55.9286 194.116 57.2383C195.857 58.5566 197.264 60.2193 198.236 62.1069C199.209 63.9946 199.722 66.0604 199.74 68.1558C199.849 78.6453 198.123 93.2549 189.284 103.285C188.869 103.75 188.293 104.064 187.656 104.171C183.403 104.891 179.092 105.268 174.771 105.298Z" fill="#CCCCCC"/>
<path d="M171.913 104.905C172.331 103.502 173.324 102.31 174.676 101.588C176.028 100.866 177.63 100.673 179.134 101.05C179.441 101.13 179.74 101.234 180.029 101.36L189.913 92.9429L196.787 97.2763L182.652 108.981C182.014 110.058 181.009 110.904 179.798 111.385C178.586 111.865 177.238 111.953 175.967 111.634C175.226 111.445 174.533 111.12 173.928 110.678C173.323 110.236 172.817 109.687 172.44 109.061C172.063 108.435 171.823 107.746 171.732 107.032C171.642 106.319 171.703 105.596 171.913 104.905V104.905Z" fill="#FFB8B8"/>
<path d="M188.348 105.012C187.706 105.013 187.085 104.805 186.588 104.425L182.69 101.444C182.365 101.196 182.105 100.882 181.928 100.526C181.751 100.17 181.663 99.7808 181.669 99.3882C181.676 98.9956 181.777 98.6094 181.965 98.2587C182.154 97.9079 182.425 97.6016 182.758 97.3626L199.106 85.6299C199.3 85.4901 199.427 85.2845 199.46 85.0576C199.493 84.8308 199.429 84.6009 199.281 84.418L189.191 71.9353C188.019 70.4898 187.431 68.7029 187.531 66.8907C187.631 65.0786 188.414 63.3581 189.74 62.0339V62.0339C191.136 60.6228 193.048 59.7544 195.097 59.6011C197.145 59.4477 199.181 60.0207 200.799 61.2062L200.863 61.2692L211.4 75.387C212.539 76.223 213.457 77.294 214.08 78.5166C214.704 79.7392 215.018 81.0802 214.996 82.4349C214.975 83.7895 214.619 85.1212 213.956 86.3258C213.294 87.5305 212.343 88.5756 211.177 89.3794L190.004 104.502C189.524 104.833 188.944 105.012 188.348 105.012Z" fill="#CCCCCC"/>
<path d="M166.914 32.9961V25.9459L180.365 20.4497L193.191 25.9459V32.9961C193.191 33.3029 193.061 33.5973 192.829 33.8143C192.597 34.0312 192.282 34.1532 191.954 34.1532H168.151C167.823 34.1532 167.508 34.0312 167.276 33.8143C167.044 33.5973 166.914 33.3029 166.914 32.9961Z" fill="#2F2E41"/>
<path d="M179.747 16.1411C177.77 10.2177 181.923 3.42919 188.064 1.08454C194.204 -1.2601 201.551 0.378877 206.732 4.25258C211.913 8.12628 215.128 13.9284 216.831 19.926C218.535 25.9236 218.858 32.1777 219.172 38.3765C226.717 39.6732 231.849 48.0464 229.235 54.7946C226.622 61.5427 216.949 64.8952 210.268 61.3682C203.587 57.8411 201.652 48.3598 206.474 42.7774C208.755 40.136 210.03 36.8578 210.095 33.4621C210.161 30.0663 209.014 26.7472 206.836 24.0304C204.658 21.3135 201.573 19.3543 198.071 18.4629C194.569 17.5716 190.849 17.7991 187.5 19.1094C183.782 20.5644 179.117 16.784 179.747 16.1411Z" fill="#2F2E41"/>
<path d="M94.9764 58.4807C85.9437 58.4252 77.024 56.5972 68.7934 53.1147C68.3035 52.9104 67.8876 52.5772 67.5965 52.1556C67.3054 51.734 67.1516 51.2423 67.1538 50.7404V29.6711C67.1547 28.9808 67.448 28.3191 67.9696 27.831C68.4912 27.3429 69.1984 27.0684 69.9361 27.0676H120.017C120.754 27.0684 121.462 27.3429 121.983 27.831C122.505 28.3191 122.798 28.9808 122.799 29.6711V50.7404C122.801 51.2424 122.647 51.734 122.356 52.1556C122.065 52.5772 121.649 52.9104 121.159 53.1148C112.929 56.5972 104.009 58.4252 94.9764 58.4807V58.4807Z" fill="#00BFA6"/>
<path d="M94.9695 41.412C94.5983 41.4123 94.2307 41.3432 93.8884 41.2086L54.1751 25.5303C53.6629 25.3282 53.2273 24.9871 52.9242 24.5511C52.6212 24.1151 52.4646 23.6041 52.4748 23.0841C52.485 22.5641 52.6615 22.0588 52.9814 21.6335C53.3013 21.2082 53.75 20.8822 54.2697 20.6978L93.9836 6.6C94.6232 6.37189 95.3304 6.3733 95.969 6.60395L135.151 20.7017C135.667 20.8877 136.113 21.2136 136.431 21.638C136.748 22.0623 136.924 22.5656 136.934 23.0836C136.944 23.6016 136.789 24.1106 136.488 24.5456C136.188 24.9807 135.755 25.3218 135.246 25.5255L96.0638 41.2035C95.7178 41.3414 95.3456 41.4123 94.9695 41.412V41.412Z" fill="#00BFA6"/>
<path d="M71.791 54.5485C73.8398 54.5485 75.5007 52.9943 75.5007 51.0772C75.5007 49.1601 73.8398 47.606 71.791 47.606C69.7422 47.606 68.0813 49.1601 68.0813 51.0772C68.0813 52.9943 69.7422 54.5485 71.791 54.5485Z" fill="#3F3D56"/>
<path opacity="0.2" d="M135.381 23.3001L96.1992 38.9781C95.8938 39.1003 95.5651 39.1637 95.2329 39.1645C94.9007 39.1652 94.5717 39.1033 94.2656 38.9825L54.5523 23.3046C54.0536 23.1125 53.6375 22.7702 53.3698 22.3321C53.1947 22.6162 53.0862 22.9319 53.0515 23.2583C53.0167 23.5847 53.0566 23.9143 53.1685 24.2251C53.2803 24.536 53.4615 24.821 53.7001 25.0613C53.9387 25.3016 54.2292 25.4916 54.5523 25.6188L94.2656 41.2966C94.5717 41.4175 94.9007 41.4794 95.2329 41.4786C95.5651 41.4779 95.8938 41.4145 96.1992 41.2923L135.381 25.6142C135.703 25.4859 135.992 25.2953 136.229 25.0549C136.466 24.8145 136.645 24.5298 136.756 24.2196C136.867 23.9094 136.906 23.5808 136.871 23.2554C136.836 22.9301 136.727 22.6153 136.553 22.332C136.287 22.7667 135.875 23.107 135.381 23.3001V23.3001Z" fill="black"/>
<path d="M72.1027 51.0636C72.2666 51.0636 72.4239 51.0026 72.5399 50.8941C72.6558 50.7856 72.7209 50.6385 72.7209 50.485V31.1262L93.1125 24.1749C93.2765 24.1772 93.4347 24.1184 93.5524 24.0115C93.6701 23.9047 93.7376 23.7584 93.74 23.605C93.7425 23.4515 93.6797 23.3035 93.5655 23.1934C93.4512 23.0833 93.2949 23.0201 93.131 23.0178L72.7394 29.9691C72.5753 29.9656 72.4121 29.9932 72.2598 30.0504C72.1074 30.1076 71.9691 30.1932 71.8531 30.3019C71.7359 30.4092 71.6429 30.5375 71.5796 30.6791C71.5163 30.8207 71.4839 30.9727 71.4844 31.1262V50.485C71.4844 50.6385 71.5495 50.7856 71.6655 50.8941C71.7814 51.0026 71.9387 51.0636 72.1027 51.0636V51.0636Z" fill="#3F3D56"/>
</svg>
