<svg width="50" height="50" viewBox="0 0 50 50" fill="none" xmlns="http://www.w3.org/2000/svg">
<circle cx="25" cy="25" r="24" stroke="#2A9D8F" stroke-width="2" stroke-dasharray="2 2"/>
<path d="M27.5 30.25C27.125 30.25 26.875 30.125 26.5 30L25 29.375L23.5 30C23.25 30.125 22.875 30.25 22.5 30.25C22.25 30.25 22.125 30.25 21.875 30.125L21.25 35L25 32.5L28.75 35L28 30.125C27.875 30.25 27.625 30.25 27.5 30.25Z" fill="#2A9D8F"/>
<path d="M31.1249 22.375C30.9999 22.125 30.9999 21.75 31.1249 21.5L31.8749 20C32.1249 19.5 31.8749 18.875 31.2499 18.625L29.6249 18C29.3749 17.875 29.1249 17.625 28.9999 17.375L28.3749 15.75C28.2499 15.25 27.8749 15 27.4999 15C27.3749 15 27.1249 15 26.9999 15.125L25.3749 15.875H24.9999C24.8749 15.875 24.7499 15.875 24.6249 15.75L22.9999 15.125C22.8749 15 22.6249 15 22.4999 15C22.1249 15 21.7499 15.25 21.4999 15.625L20.8749 17.375C20.8749 17.625 20.6249 17.875 20.3749 18L18.6249 18.625C18.1249 18.75 17.8749 19.375 18.1249 20L18.8749 21.625C18.9999 21.875 18.9999 22.25 18.8749 22.5L18.1249 24C17.8749 24.5 18.1249 25.125 18.7499 25.375L20.3749 26C20.6249 26.125 20.8749 26.375 20.9999 26.625L21.6249 28.25C21.7499 28.75 22.1249 29 22.4999 29C22.6249 29 22.7499 29 22.8749 28.875L24.4999 28.125C24.6249 28.125 24.7499 28 24.8749 28C24.9999 28 25.1249 28 25.2499 28.125L26.8749 28.875C26.9999 29 27.1249 29 27.2499 29C27.6249 29 27.9999 28.75 28.2499 28.375L28.8749 26.75C28.9999 26.5 29.2499 26.25 29.4999 26.125L31.1249 25.5C31.6249 25.25 31.9999 24.625 31.7499 24.125L31.1249 22.375ZM24.9999 27C22.2499 27 19.9999 24.75 19.9999 22C19.9999 19.25 22.2499 17 24.9999 17C27.7499 17 29.9999 19.25 29.9999 22C29.9999 24.75 27.7499 27 24.9999 27Z" fill="#2A9D8F"/>
<path d="M28.75 22C28.75 22.9946 28.3549 23.9484 27.6517 24.6516C26.9484 25.3549 25.9946 25.75 25 25.75C24.0054 25.75 23.0516 25.3549 22.3483 24.6516C21.6451 23.9484 21.25 22.9946 21.25 22C21.25 21.0054 21.6451 20.0516 22.3483 19.3483C23.0516 18.6451 24.0054 18.25 25 18.25C25.9946 18.25 26.9484 18.6451 27.6517 19.3483C28.3549 20.0516 28.75 21.0054 28.75 22Z" fill="#2A9D8F"/>
</svg>
