<svg width="50" height="50" viewBox="0 0 50 50" fill="none" xmlns="http://www.w3.org/2000/svg">
<circle cx="25" cy="25" r="24" stroke="#2A9D8F" stroke-width="2" stroke-dasharray="2 2"/>
<path d="M21.53 19.008C21.9754 18.2321 22.6681 17.6279 23.4973 17.2921C24.3266 16.9562 25.2445 16.908 26.1043 17.1553C26.9641 17.4025 27.7163 17.9309 28.2405 18.6559C28.7646 19.3809 29.0306 20.2607 28.9959 21.1547C28.9612 22.0487 28.6278 22.9053 28.0489 23.5875C27.4701 24.2697 26.6793 24.7381 25.8028 24.9179C24.9264 25.0977 24.015 24.9785 23.2143 24.5793C22.4136 24.1802 21.7699 23.5241 21.386 22.716C21.1295 22.9036 20.8198 23.0045 20.502 23.004H20.002V23.259C20.002 23.449 20.074 23.622 20.192 23.753C20.2928 23.639 20.426 23.5584 20.5737 23.522C20.7215 23.4856 20.8768 23.4951 21.0191 23.5491C21.1614 23.6032 21.2838 23.6994 21.37 23.8247C21.4563 23.9501 21.5023 24.0988 21.502 24.251C21.5019 24.3555 21.48 24.4589 21.4376 24.5544C21.3952 24.65 21.3334 24.7356 21.256 24.8058C21.1786 24.8761 21.0874 24.9294 20.9882 24.9623C20.889 24.9952 20.784 25.007 20.68 24.997C20.2296 24.9812 19.8029 24.7912 19.4899 24.4669C19.1769 24.1427 19.0019 23.7097 19.002 23.259V19.507C19.002 19.3744 19.0546 19.2472 19.1484 19.1534C19.2422 19.0597 19.3693 19.007 19.502 19.007H21.502L21.53 19.008ZM20.002 22.004H20.502C20.6346 22.004 20.7617 21.9513 20.8555 21.8576C20.9493 21.7638 21.002 21.6366 21.002 21.504V21.134C20.999 21.0447 20.999 20.9553 21.002 20.866V20.007H20.002V22.004Z" fill="#2A9D8F"/>
<path d="M18 28C18 26.887 18.903 26 20.009 26H30C30.5304 26 31.0391 26.2107 31.4142 26.5858C31.7893 26.9609 32 27.4696 32 28C32 29.691 31.167 30.966 29.865 31.797C28.583 32.614 26.855 33 25 33C23.145 33 21.417 32.614 20.135 31.797C18.833 30.967 18 29.69 18 28Z" fill="#2A9D8F"/>
</svg>
