<svg width="398" height="302" viewBox="0 0 398 302" fill="none" xmlns="http://www.w3.org/2000/svg">
<g filter="url(#filter0_f_1083_3896)">
<rect x="4" y="4" width="337" height="294" fill="#F1F1F1"/>
</g>
<g filter="url(#filter1_f_1083_3896)">
<path d="M4 4H341V298H4V4Z" fill="#F1F1F1"/>
<path d="M4 4H341V298H4V4Z" fill="#F1F1F1"/>
</g>
<path d="M131.142 68L99.4482 86.5397C99.9901 87.5473 100.339 88.6622 100.475 89.8182C100.611 90.9743 100.53 92.148 100.238 93.2698C99.946 94.3915 99.4484 95.4386 98.7748 96.3489C98.1012 97.2592 97.2652 98.0143 96.3164 98.5693C95.3677 99.1243 94.3254 99.4679 93.2514 99.5799C92.1774 99.6919 91.0935 99.57 90.0639 99.2213C89.0343 98.8726 88.0801 98.3043 87.2576 97.55C86.4351 96.7957 85.7612 95.8708 85.2759 94.83L74.4692 101.152L102.462 156.963L159.134 123.812L131.142 68Z" fill="#F2F2F2"/>
<path d="M91.9945 97.9783C95.608 97.9783 98.5374 94.8147 98.5374 90.9123C98.5374 87.0098 95.608 83.8463 91.9945 83.8463C88.381 83.8463 85.4517 87.0098 85.4517 90.9123C85.4517 94.8147 88.381 97.9783 91.9945 97.9783Z" fill="#00BFA6"/>
<path d="M210.725 217.412L244.992 205.341C244.627 204.244 244.47 203.079 244.529 201.916C244.589 200.752 244.864 199.614 245.338 198.567C245.812 197.52 246.476 196.587 247.291 195.823C248.105 195.058 249.054 194.478 250.079 194.117C251.105 193.756 252.188 193.62 253.263 193.719C254.338 193.818 255.384 194.149 256.338 194.692C257.293 195.235 258.137 195.98 258.82 196.882C259.503 197.784 260.012 198.824 260.316 199.943L272 195.827L253.774 135.483L192.499 157.068L210.725 217.412Z" fill="#F2F2F2"/>
<path d="M253.054 209.555C256.667 209.555 259.596 206.392 259.596 202.489C259.596 198.587 256.667 195.423 253.054 195.423C249.44 195.423 246.511 198.587 246.511 202.489C246.511 206.392 249.44 209.555 253.054 209.555Z" fill="#00BFA6"/>
<path d="M254.404 101.106H96.1899V178.732H254.404V101.106Z" fill="#3F3D56"/>
<path d="M251.794 103.924H98.8V174.395H251.794V103.924Z" fill="white"/>
<path d="M236.233 171.034H221.376V176.455H236.233V171.034Z" fill="#3F3D56"/>
<path d="M220.573 175.154H209.73V176.672H220.573V175.154Z" fill="#00BFA6"/>
<path d="M111.248 130.595H169.675L178.733 135.361L193.166 142.954L202.603 123.873H229.306" stroke="#3F3D56" stroke-width="2" stroke-miterlimit="10"/>
<path d="M134.222 130.595L138.554 141.653H149.195" stroke="#3F3D56" stroke-width="2" stroke-miterlimit="10"/>
<path d="M150.462 130.595L165.258 121.922H175.698" stroke="#3F3D56" stroke-width="2" stroke-miterlimit="10"/>
<path d="M134.137 132.546C135.135 132.546 135.944 131.673 135.944 130.595C135.944 129.517 135.135 128.643 134.137 128.643C133.139 128.643 132.33 129.517 132.33 130.595C132.33 131.673 133.139 132.546 134.137 132.546Z" fill="#00BFA6"/>
<path d="M151.003 132.546C152.001 132.546 152.81 131.673 152.81 130.595C152.81 129.517 152.001 128.643 151.003 128.643C150.005 128.643 149.196 129.517 149.196 130.595C149.196 131.673 150.005 132.546 151.003 132.546Z" fill="#00BFA6"/>
<path d="M178.71 135.365L179.915 154.663H190.355" stroke="#3F3D56" stroke-width="2" stroke-miterlimit="10"/>
<path d="M198.818 131.526L187.344 121.922H198.186" stroke="#3F3D56" stroke-width="2" stroke-miterlimit="10"/>
<path d="M217.772 123.873L228.905 133.414H239.345" stroke="#3F3D56" stroke-width="2" stroke-miterlimit="10"/>
<path d="M178.71 137.317C179.708 137.317 180.517 136.443 180.517 135.365C180.517 134.287 179.708 133.414 178.71 133.414C177.712 133.414 176.903 134.287 176.903 135.365C176.903 136.443 177.712 137.317 178.71 137.317Z" fill="#00BFA6"/>
<path d="M217.661 125.825C218.659 125.825 219.468 124.951 219.468 123.873C219.468 122.795 218.659 121.922 217.661 121.922C216.663 121.922 215.854 122.795 215.854 123.873C215.854 124.951 216.663 125.825 217.661 125.825Z" fill="#00BFA6"/>
<path d="M198.788 133.414C199.786 133.414 200.595 132.54 200.595 131.462C200.595 130.384 199.786 129.511 198.788 129.511C197.79 129.511 196.981 130.384 196.981 131.462C196.981 132.54 197.79 133.414 198.788 133.414Z" fill="#00BFA6"/>
<path d="M138.755 143.388H149.196" stroke="#3F3D56" stroke-width="2" stroke-miterlimit="10"/>
<path d="M235.539 87.5768C237.175 87.5768 238.502 86.1444 238.502 84.3773C238.502 82.6103 237.175 81.1779 235.539 81.1779C233.903 81.1779 232.576 82.6103 232.576 84.3773C232.576 86.1444 233.903 87.5768 235.539 87.5768Z" stroke="#3F3D56" stroke-width="2" stroke-miterlimit="10"/>
<path d="M103.518 235C120.373 235 134.037 232.282 134.037 228.929C134.037 225.576 120.373 222.857 103.518 222.857C86.6636 222.857 73 225.576 73 228.929C73 232.282 86.6636 235 103.518 235Z" fill="#F2F2F2"/>
<path d="M124.477 175.041L119.033 178.008L119.385 178.766L124.83 175.799L124.477 175.041Z" fill="#00BFA6"/>
<path d="M123.592 169.524L123.348 171.109C123.348 171.109 123.715 182.071 121.024 178.637C118.333 175.203 120.168 170.58 120.168 170.58L120.902 169.26L123.592 169.524Z" fill="#FBBEBE"/>
<path d="M107.938 118.806C107.938 118.806 107.449 124.353 107.204 124.618C106.96 124.882 110.873 129.901 110.873 129.901L114.298 126.467C114.298 126.467 114.053 121.448 114.787 120.391C115.521 119.335 107.938 118.806 107.938 118.806Z" fill="#FBBEBE"/>
<path opacity="0.1" d="M107.938 118.806C107.938 118.806 107.449 124.353 107.204 124.618C106.96 124.882 110.873 129.901 110.873 129.901L114.298 126.467C114.298 126.467 114.053 121.448 114.787 120.391C115.521 119.335 107.938 118.806 107.938 118.806Z" fill="black"/>
<path d="M98.8881 219.977V224.732L97.1759 224.996L94.73 224.203L95.4636 219.184L98.8881 219.977Z" fill="#3F3D56"/>
<path d="M96.6867 222.354C96.6867 222.354 95.9529 220.241 94.73 220.505C93.507 220.769 93.2624 222.354 93.2624 222.354C93.2624 222.354 92.284 226.317 90.8164 227.637C89.3489 228.958 87.8813 232.392 90.8164 232.921C93.7516 233.449 96.1975 232.128 96.1975 231.864C96.1975 231.6 96.9313 230.015 98.1543 229.751C99.3773 229.487 100.356 229.222 100.356 228.166C100.356 227.109 99.6219 226.053 99.6219 226.053C99.6219 226.053 99.3773 221.042 98.8881 221.698C98.5498 222.217 98.3012 222.797 98.1543 223.411L96.6867 222.354Z" fill="#2F2E41"/>
<path d="M109.406 217.6L108.427 221.562L110.873 222.09L112.096 220.77L112.341 217.336L109.406 217.6Z" fill="#3F3D56"/>
<path d="M109.161 221.034C109.161 221.034 110.139 220.241 110.629 220.241H111.362C111.362 220.241 111.362 218.392 112.585 218.392C113.808 218.392 113.564 219.713 113.564 219.713C113.564 219.713 116.254 224.203 116.988 224.996C117.722 225.788 121.635 228.166 118.456 229.222C115.276 230.279 113.075 230.279 111.607 228.43C111.607 228.43 110.139 227.637 109.161 227.637C108.183 227.637 106.96 227.109 106.96 226.317C106.96 225.524 107.694 223.939 107.694 223.939C107.694 223.939 108.183 219.185 108.427 219.713C108.672 220.241 109.161 221.034 109.161 221.034Z" fill="#2F2E41"/>
<path d="M98.6435 156.844V165.561C98.6435 165.561 95.953 182.467 95.953 188.014C95.953 193.562 91.7948 219.977 93.7516 220.505C95.7084 221.034 100.356 221.826 100.6 221.034C100.845 220.241 102.557 195.147 102.802 194.882C103.046 194.618 108.183 173.75 108.183 173.75L109.161 174.014L109.65 197.788C109.65 197.788 107.204 219.185 108.427 219.185C109.65 219.185 114.787 218.92 114.787 217.335C114.787 215.751 117.477 186.43 117.477 186.43C117.477 186.43 120.657 163.184 119.434 160.807C118.211 158.429 118.211 157.109 118.211 157.109L98.6435 156.844Z" fill="#2F2E41"/>
<path d="M111.974 122.901C114.676 122.901 116.866 120.535 116.866 117.618C116.866 114.7 114.676 112.334 111.974 112.334C109.272 112.334 107.082 114.7 107.082 117.618C107.082 120.535 109.272 122.901 111.974 122.901Z" fill="#FBBEBE"/>
<path d="M110.873 126.731C110.873 126.731 107.816 123.957 107.571 122.901C107.571 122.901 105.981 124.618 105.981 124.882C105.981 125.146 99.1326 125.938 97.4205 128.052C95.7083 130.165 94.2407 134.655 94.2407 134.655L98.3989 143.108C98.3989 143.108 98.6435 147.863 98.6435 148.391C98.6435 148.92 97.4205 157.373 97.9097 157.637C98.3989 157.901 103.291 160.543 107.449 160.014C111.607 159.486 115.765 158.693 116.988 158.693C118.211 158.693 119.189 159.222 119.189 158.693C119.189 158.165 118.456 157.109 118.456 156.58C118.456 156.052 118.211 154.731 118.211 153.939C118.211 153.146 117.722 151.825 117.722 150.769C117.722 149.712 123.103 135.448 123.103 135.448C123.103 135.448 122.858 130.957 118.945 128.844C115.031 126.731 114.542 125.938 114.542 125.938C114.542 125.938 114.466 124.353 114.259 124.353C114.053 124.353 113.319 126.731 111.362 126.995L110.873 126.731Z" fill="#D0CDE1"/>
<path d="M97.665 161.863L99.3773 164.769L103.78 163.712L100.6 159.75L97.665 161.863Z" fill="#FBBEBE"/>
<path d="M121.636 133.335L123.103 135.448C123.103 135.448 126.038 150.769 125.549 156.316C125.06 161.863 124.571 166.09 124.571 166.09C124.571 166.09 125.549 170.052 124.815 170.052C124.081 170.052 119.679 170.316 119.679 169.524C119.679 168.731 120.168 163.712 120.168 163.712L118.945 152.09L116.254 148.127L121.636 133.335Z" fill="#D0CDE1"/>
<path d="M108.651 115.053C108.951 114.915 109.298 115.027 109.619 114.968C109.996 114.9 110.334 114.598 110.714 114.636C110.895 114.672 111.07 114.733 111.236 114.819C111.319 114.861 111.409 114.884 111.501 114.888C111.593 114.892 111.684 114.875 111.77 114.839C111.811 114.819 111.847 114.789 111.876 114.751C111.905 114.714 111.925 114.67 111.936 114.623C111.948 114.576 111.949 114.527 111.94 114.479C111.931 114.431 111.913 114.386 111.886 114.347C112.208 114.316 112.513 114.175 112.755 113.943C112.803 113.889 112.859 113.844 112.921 113.809C112.993 113.788 113.068 113.784 113.141 113.797C113.214 113.809 113.284 113.837 113.347 113.88L113.907 114.159C114.033 114.207 114.144 114.293 114.227 114.406C114.293 114.518 114.306 114.669 114.401 114.755C114.521 114.864 114.701 114.811 114.858 114.821C115 114.836 115.133 114.907 115.23 115.021C115.327 115.134 115.383 115.283 115.386 115.437C115.383 115.615 115.324 115.832 115.454 115.941C115.529 116.004 115.636 115.994 115.724 116.032C115.953 116.133 115.954 116.477 115.92 116.741C115.886 117.005 115.903 117.353 116.138 117.435C116.304 117.492 116.473 117.37 116.645 117.343C116.905 117.302 117.145 117.477 117.376 117.611C117.607 117.745 117.914 117.836 118.114 117.653C118.3 117.482 118.288 117.171 118.237 116.913C118.163 116.544 118.043 116.187 117.878 115.854C117.817 115.755 117.781 115.642 117.774 115.524C117.788 115.441 117.818 115.362 117.862 115.292C117.907 115.223 117.964 115.164 118.031 115.12C118.314 114.879 118.639 114.635 118.731 114.259C118.798 113.982 118.722 113.69 118.728 113.404C118.735 113.056 118.864 112.71 118.803 112.368C118.695 111.748 118.056 111.45 117.644 111.003C117.077 110.389 116.893 109.407 116.225 108.928C115.69 108.544 114.99 108.59 114.381 108.37C113.712 108.129 113.173 107.575 112.513 107.306C112.153 107.163 111.768 107.107 111.386 107.143C111.003 107.18 110.633 107.307 110.301 107.516C110.104 107.673 109.884 107.795 109.651 107.875C109.454 107.899 109.255 107.897 109.059 107.867C108.669 107.846 108.28 107.932 107.93 108.119C107.796 108.177 107.684 108.282 107.613 108.418C107.495 108.702 107.667 109.145 107.408 109.28C107.287 109.344 107.144 109.283 107.01 109.286C106.749 109.292 106.549 109.538 106.425 109.786C106.328 110.048 106.189 110.289 106.014 110.499C105.695 110.8 105.116 110.85 105.033 111.299C105.031 111.489 105.041 111.679 105.063 111.868C105.038 112.266 104.644 112.568 104.665 112.966C104.689 113.425 105.229 113.649 105.373 114.082C105.483 114.411 105.338 114.767 105.239 115.1C105.139 115.434 105.109 115.861 105.366 116.074C105.467 116.158 105.597 116.192 105.699 116.273C105.965 116.482 105.962 116.903 105.933 117.257C105.916 117.331 105.915 117.407 105.932 117.481C105.949 117.554 105.982 117.622 106.029 117.679C106.073 117.707 106.122 117.726 106.173 117.732C106.224 117.739 106.276 117.734 106.325 117.717C106.485 117.675 106.635 117.599 106.766 117.492C106.897 117.385 107.007 117.251 107.089 117.096C107.174 116.943 107.191 116.809 107.347 116.727C107.453 116.672 107.581 116.721 107.688 116.65C108.2 116.31 108.024 115.34 108.651 115.053Z" fill="#2F2E41"/>
<path d="M94.9745 133.863L94.2408 134.655C94.2408 134.655 89.838 148.92 91.3056 152.09C92.7732 155.259 95.7083 163.184 96.6867 162.92C97.6651 162.656 101.089 160.278 101.089 160.014C101.089 159.75 96.9313 152.354 96.9313 152.354C96.9313 152.354 96.4421 150.769 96.6867 150.505C96.9313 150.24 96.9313 150.505 96.6867 149.976C96.4421 149.448 96.4421 149.976 96.9313 149.448C97.4205 148.92 97.4205 148.92 97.4205 148.656C97.4205 148.391 98.8881 141.788 98.8881 141.788L94.9745 133.863Z" fill="#D0CDE1"/>
<path d="M98.7659 164.901L104.147 163.052L104.881 164.901L99.0106 166.222L98.7659 164.901Z" fill="#2F2E41"/>
<path opacity="0.1" d="M98.7659 164.901L104.147 163.052L104.881 164.901L99.0106 166.222L98.7659 164.901Z" fill="black"/>
<path opacity="0.1" d="M106.104 125.014L110.262 128.712L110.751 127.919L106.104 125.014Z" fill="black"/>
<path opacity="0.1" d="M114.42 126.07L111.485 127.919L111.729 128.712L114.42 126.07Z" fill="black"/>
<rect x="288.312" y="237.19" width="75.0508" height="75.9269" transform="rotate(-45 288.312 237.19)" fill="#00BFA6" stroke="#F3F3F3" stroke-width="3"/>
<path d="M320.679 230.068C321.495 229.42 321.867 229.12 321.795 229.168C324.147 227.224 325.995 225.628 327.339 224.38C328.707 223.132 329.859 221.824 330.795 220.456C331.731 219.088 332.199 217.756 332.199 216.46C332.199 215.476 331.971 214.708 331.515 214.156C331.059 213.604 330.375 213.328 329.463 213.328C328.551 213.328 327.831 213.676 327.303 214.372C326.799 215.044 326.547 216.004 326.547 217.252H320.607C320.655 215.212 321.087 213.508 321.903 212.14C322.743 210.772 323.835 209.764 325.179 209.116C326.547 208.468 328.059 208.144 329.715 208.144C332.571 208.144 334.719 208.876 336.159 210.34C337.623 211.804 338.355 213.712 338.355 216.064C338.355 218.632 337.479 221.02 335.727 223.228C333.975 225.412 331.743 227.548 329.031 229.636H338.751V234.64H320.679V230.068ZM341.861 221.5C341.861 217.372 342.653 214.12 344.237 211.744C345.845 209.368 348.425 208.18 351.977 208.18C355.529 208.18 358.097 209.368 359.681 211.744C361.289 214.12 362.093 217.372 362.093 221.5C362.093 225.676 361.289 228.952 359.681 231.328C358.097 233.704 355.529 234.892 351.977 234.892C348.425 234.892 345.845 233.704 344.237 231.328C342.653 228.952 341.861 225.676 341.861 221.5ZM356.045 221.5C356.045 219.076 355.781 217.216 355.253 215.92C354.725 214.6 353.633 213.94 351.977 213.94C350.321 213.94 349.229 214.6 348.701 215.92C348.173 217.216 347.909 219.076 347.909 221.5C347.909 223.132 348.005 224.488 348.197 225.568C348.389 226.624 348.773 227.488 349.349 228.16C349.949 228.808 350.825 229.132 351.977 229.132C353.129 229.132 353.993 228.808 354.569 228.16C355.169 227.488 355.565 226.624 355.757 225.568C355.949 224.488 356.045 223.132 356.045 221.5Z" fill="white"/>
<path d="M324.964 242.03L322.694 246.37V249H321.784V246.37L319.504 242.03H320.514L322.234 245.56L323.954 242.03H324.964ZM331.324 246.05C331.324 246.223 331.314 246.407 331.294 246.6H326.914C326.947 247.14 327.13 247.563 327.464 247.87C327.804 248.17 328.214 248.32 328.694 248.32C329.087 248.32 329.414 248.23 329.674 248.05C329.94 247.863 330.127 247.617 330.234 247.31H331.214C331.067 247.837 330.774 248.267 330.334 248.6C329.894 248.927 329.347 249.09 328.694 249.09C328.174 249.09 327.707 248.973 327.294 248.74C326.887 248.507 326.567 248.177 326.334 247.75C326.1 247.317 325.984 246.817 325.984 246.25C325.984 245.683 326.097 245.187 326.324 244.76C326.55 244.333 326.867 244.007 327.274 243.78C327.687 243.547 328.16 243.43 328.694 243.43C329.214 243.43 329.674 243.543 330.074 243.77C330.474 243.997 330.78 244.31 330.994 244.71C331.214 245.103 331.324 245.55 331.324 246.05ZM330.384 245.86C330.384 245.513 330.307 245.217 330.154 244.97C330 244.717 329.79 244.527 329.524 244.4C329.264 244.267 328.974 244.2 328.654 244.2C328.194 244.2 327.8 244.347 327.474 244.64C327.154 244.933 326.97 245.34 326.924 245.86H330.384ZM332.585 246.24C332.585 245.68 332.698 245.19 332.925 244.77C333.152 244.343 333.462 244.013 333.855 243.78C334.255 243.547 334.698 243.43 335.185 243.43C335.665 243.43 336.082 243.533 336.435 243.74C336.788 243.947 337.052 244.207 337.225 244.52V243.52H338.145V249H337.225V247.98C337.045 248.3 336.775 248.567 336.415 248.78C336.062 248.987 335.648 249.09 335.175 249.09C334.688 249.09 334.248 248.97 333.855 248.73C333.462 248.49 333.152 248.153 332.925 247.72C332.698 247.287 332.585 246.793 332.585 246.24ZM337.225 246.25C337.225 245.837 337.142 245.477 336.975 245.17C336.808 244.863 336.582 244.63 336.295 244.47C336.015 244.303 335.705 244.22 335.365 244.22C335.025 244.22 334.715 244.3 334.435 244.46C334.155 244.62 333.932 244.853 333.765 245.16C333.598 245.467 333.515 245.827 333.515 246.24C333.515 246.66 333.598 247.027 333.765 247.34C333.932 247.647 334.155 247.883 334.435 248.05C334.715 248.21 335.025 248.29 335.365 248.29C335.705 248.29 336.015 248.21 336.295 248.05C336.582 247.883 336.808 247.647 336.975 247.34C337.142 247.027 337.225 246.663 337.225 246.25ZM340.993 244.41C341.153 244.097 341.379 243.853 341.673 243.68C341.973 243.507 342.336 243.42 342.763 243.42V244.36H342.523C341.503 244.36 340.993 244.913 340.993 246.02V249H340.083V243.52H340.993V244.41ZM346.153 249.09C345.733 249.09 345.356 249.02 345.023 248.88C344.69 248.733 344.426 248.533 344.233 248.28C344.04 248.02 343.933 247.723 343.913 247.39H344.853C344.88 247.663 345.006 247.887 345.233 248.06C345.466 248.233 345.77 248.32 346.143 248.32C346.49 248.32 346.763 248.243 346.963 248.09C347.163 247.937 347.263 247.743 347.263 247.51C347.263 247.27 347.156 247.093 346.943 246.98C346.73 246.86 346.4 246.743 345.953 246.63C345.546 246.523 345.213 246.417 344.953 246.31C344.7 246.197 344.48 246.033 344.293 245.82C344.113 245.6 344.023 245.313 344.023 244.96C344.023 244.68 344.106 244.423 344.273 244.19C344.44 243.957 344.676 243.773 344.983 243.64C345.29 243.5 345.64 243.43 346.033 243.43C346.64 243.43 347.13 243.583 347.503 243.89C347.876 244.197 348.076 244.617 348.103 245.15H347.193C347.173 244.863 347.056 244.633 346.843 244.46C346.636 244.287 346.356 244.2 346.003 244.2C345.676 244.2 345.416 244.27 345.223 244.41C345.03 244.55 344.933 244.733 344.933 244.96C344.933 245.14 344.99 245.29 345.103 245.41C345.223 245.523 345.37 245.617 345.543 245.69C345.723 245.757 345.97 245.833 346.283 245.92C346.676 246.027 346.996 246.133 347.243 246.24C347.49 246.34 347.7 246.493 347.873 246.7C348.053 246.907 348.146 247.177 348.153 247.51C348.153 247.81 348.07 248.08 347.903 248.32C347.736 248.56 347.5 248.75 347.193 248.89C346.893 249.023 346.546 249.09 346.153 249.09ZM356.064 249.07C355.417 249.07 354.827 248.92 354.294 248.62C353.76 248.313 353.337 247.89 353.024 247.35C352.717 246.803 352.564 246.19 352.564 245.51C352.564 244.83 352.717 244.22 353.024 243.68C353.337 243.133 353.76 242.71 354.294 242.41C354.827 242.103 355.417 241.95 356.064 241.95C356.717 241.95 357.31 242.103 357.844 242.41C358.377 242.71 358.797 243.13 359.104 243.67C359.41 244.21 359.564 244.823 359.564 245.51C359.564 246.197 359.41 246.81 359.104 247.35C358.797 247.89 358.377 248.313 357.844 248.62C357.31 248.92 356.717 249.07 356.064 249.07ZM356.064 248.28C356.55 248.28 356.987 248.167 357.374 247.94C357.767 247.713 358.074 247.39 358.294 246.97C358.52 246.55 358.634 246.063 358.634 245.51C358.634 244.95 358.52 244.463 358.294 244.05C358.074 243.63 357.77 243.307 357.384 243.08C356.997 242.853 356.557 242.74 356.064 242.74C355.57 242.74 355.13 242.853 354.744 243.08C354.357 243.307 354.05 243.63 353.824 244.05C353.604 244.463 353.494 244.95 353.494 245.51C353.494 246.063 353.604 246.55 353.824 246.97C354.05 247.39 354.357 247.713 354.744 247.94C355.137 248.167 355.577 248.28 356.064 248.28ZM363.395 244.27H362.245V249H361.335V244.27H360.625V243.52H361.335V243.13C361.335 242.517 361.492 242.07 361.805 241.79C362.125 241.503 362.635 241.36 363.335 241.36V242.12C362.935 242.12 362.652 242.2 362.485 242.36C362.325 242.513 362.245 242.77 362.245 243.13V243.52H363.395V244.27ZM314.412 252.77V255.1H316.952V255.85H314.412V258.25H317.252V259H313.502V252.02H317.252V252.77H314.412ZM321.889 259L320.589 256.96L319.339 259H318.389L320.159 256.28L318.389 253.52H319.419L320.719 255.55L321.959 253.52H322.909L321.149 256.23L322.919 259H321.889ZM325.124 254.53C325.304 254.217 325.571 253.957 325.924 253.75C326.284 253.537 326.701 253.43 327.174 253.43C327.661 253.43 328.101 253.547 328.494 253.78C328.894 254.013 329.208 254.343 329.434 254.77C329.661 255.19 329.774 255.68 329.774 256.24C329.774 256.793 329.661 257.287 329.434 257.72C329.208 258.153 328.894 258.49 328.494 258.73C328.101 258.97 327.661 259.09 327.174 259.09C326.708 259.09 326.294 258.987 325.934 258.78C325.581 258.567 325.311 258.303 325.124 257.99V261.6H324.214V253.52H325.124V254.53ZM328.844 256.24C328.844 255.827 328.761 255.467 328.594 255.16C328.428 254.853 328.201 254.62 327.914 254.46C327.634 254.3 327.324 254.22 326.984 254.22C326.651 254.22 326.341 254.303 326.054 254.47C325.774 254.63 325.548 254.867 325.374 255.18C325.208 255.487 325.124 255.843 325.124 256.25C325.124 256.663 325.208 257.027 325.374 257.34C325.548 257.647 325.774 257.883 326.054 258.05C326.341 258.21 326.651 258.29 326.984 258.29C327.324 258.29 327.634 258.21 327.914 258.05C328.201 257.883 328.428 257.647 328.594 257.34C328.761 257.027 328.844 256.66 328.844 256.24ZM336.372 256.05C336.372 256.223 336.362 256.407 336.342 256.6H331.962C331.995 257.14 332.179 257.563 332.512 257.87C332.852 258.17 333.262 258.32 333.742 258.32C334.135 258.32 334.462 258.23 334.722 258.05C334.989 257.863 335.175 257.617 335.282 257.31H336.262C336.115 257.837 335.822 258.267 335.382 258.6C334.942 258.927 334.395 259.09 333.742 259.09C333.222 259.09 332.755 258.973 332.342 258.74C331.935 258.507 331.615 258.177 331.382 257.75C331.149 257.317 331.032 256.817 331.032 256.25C331.032 255.683 331.145 255.187 331.372 254.76C331.599 254.333 331.915 254.007 332.322 253.78C332.735 253.547 333.209 253.43 333.742 253.43C334.262 253.43 334.722 253.543 335.122 253.77C335.522 253.997 335.829 254.31 336.042 254.71C336.262 255.103 336.372 255.55 336.372 256.05ZM335.432 255.86C335.432 255.513 335.355 255.217 335.202 254.97C335.049 254.717 334.839 254.527 334.572 254.4C334.312 254.267 334.022 254.2 333.702 254.2C333.242 254.2 332.849 254.347 332.522 254.64C332.202 254.933 332.019 255.34 331.972 255.86H335.432ZM338.883 254.41C339.043 254.097 339.27 253.853 339.563 253.68C339.863 253.507 340.227 253.42 340.653 253.42V254.36H340.413C339.393 254.36 338.883 254.913 338.883 256.02V259H337.973V253.52H338.883V254.41ZM342.574 252.63C342.4 252.63 342.254 252.57 342.134 252.45C342.014 252.33 341.954 252.183 341.954 252.01C341.954 251.837 342.014 251.69 342.134 251.57C342.254 251.45 342.4 251.39 342.574 251.39C342.74 251.39 342.88 251.45 342.994 251.57C343.114 251.69 343.174 251.837 343.174 252.01C343.174 252.183 343.114 252.33 342.994 252.45C342.88 252.57 342.74 252.63 342.574 252.63ZM343.014 253.52V259H342.104V253.52H343.014ZM349.965 256.05C349.965 256.223 349.955 256.407 349.935 256.6H345.555C345.588 257.14 345.771 257.563 346.105 257.87C346.445 258.17 346.855 258.32 347.335 258.32C347.728 258.32 348.055 258.23 348.315 258.05C348.581 257.863 348.768 257.617 348.875 257.31H349.855C349.708 257.837 349.415 258.267 348.975 258.6C348.535 258.927 347.988 259.09 347.335 259.09C346.815 259.09 346.348 258.973 345.935 258.74C345.528 258.507 345.208 258.177 344.975 257.75C344.741 257.317 344.625 256.817 344.625 256.25C344.625 255.683 344.738 255.187 344.965 254.76C345.191 254.333 345.508 254.007 345.915 253.78C346.328 253.547 346.801 253.43 347.335 253.43C347.855 253.43 348.315 253.543 348.715 253.77C349.115 253.997 349.421 254.31 349.635 254.71C349.855 255.103 349.965 255.55 349.965 256.05ZM349.025 255.86C349.025 255.513 348.948 255.217 348.795 254.97C348.641 254.717 348.431 254.527 348.165 254.4C347.905 254.267 347.615 254.2 347.295 254.2C346.835 254.2 346.441 254.347 346.115 254.64C345.795 254.933 345.611 255.34 345.565 255.86H349.025ZM354.236 253.42C354.903 253.42 355.443 253.623 355.856 254.03C356.269 254.43 356.476 255.01 356.476 255.77V259H355.576V255.9C355.576 255.353 355.439 254.937 355.166 254.65C354.893 254.357 354.519 254.21 354.046 254.21C353.566 254.21 353.183 254.36 352.896 254.66C352.616 254.96 352.476 255.397 352.476 255.97V259H351.566V253.52H352.476V254.3C352.656 254.02 352.899 253.803 353.206 253.65C353.519 253.497 353.863 253.42 354.236 253.42ZM358.022 256.25C358.022 255.683 358.136 255.19 358.362 254.77C358.589 254.343 358.902 254.013 359.302 253.78C359.709 253.547 360.172 253.43 360.692 253.43C361.366 253.43 361.919 253.593 362.352 253.92C362.792 254.247 363.082 254.7 363.222 255.28H362.242C362.149 254.947 361.966 254.683 361.692 254.49C361.426 254.297 361.092 254.2 360.692 254.2C360.172 254.2 359.752 254.38 359.432 254.74C359.112 255.093 358.952 255.597 358.952 256.25C358.952 256.91 359.112 257.42 359.432 257.78C359.752 258.14 360.172 258.32 360.692 258.32C361.092 258.32 361.426 258.227 361.692 258.04C361.959 257.853 362.142 257.587 362.242 257.24H363.222C363.076 257.8 362.782 258.25 362.342 258.59C361.902 258.923 361.352 259.09 360.692 259.09C360.172 259.09 359.709 258.973 359.302 258.74C358.902 258.507 358.589 258.177 358.362 257.75C358.136 257.323 358.022 256.823 358.022 256.25ZM369.837 256.05C369.837 256.223 369.827 256.407 369.807 256.6H365.427C365.46 257.14 365.643 257.563 365.977 257.87C366.317 258.17 366.727 258.32 367.207 258.32C367.6 258.32 367.927 258.23 368.187 258.05C368.453 257.863 368.64 257.617 368.747 257.31H369.727C369.58 257.837 369.287 258.267 368.847 258.6C368.407 258.927 367.86 259.09 367.207 259.09C366.687 259.09 366.22 258.973 365.807 258.74C365.4 258.507 365.08 258.177 364.847 257.75C364.613 257.317 364.497 256.817 364.497 256.25C364.497 255.683 364.61 255.187 364.837 254.76C365.063 254.333 365.38 254.007 365.787 253.78C366.2 253.547 366.673 253.43 367.207 253.43C367.727 253.43 368.187 253.543 368.587 253.77C368.987 253.997 369.293 254.31 369.507 254.71C369.727 255.103 369.837 255.55 369.837 256.05ZM368.897 255.86C368.897 255.513 368.82 255.217 368.667 254.97C368.513 254.717 368.303 254.527 368.037 254.4C367.777 254.267 367.487 254.2 367.167 254.2C366.707 254.2 366.313 254.347 365.987 254.64C365.667 254.933 365.483 255.34 365.437 255.86H368.897Z" fill="#D3D3D3"/>
<defs>
<filter id="filter0_f_1083_3896" x="0" y="0" width="345" height="302" filterUnits="userSpaceOnUse" color-interpolation-filters="sRGB">
<feFlood flood-opacity="0" result="BackgroundImageFix"/>
<feBlend mode="normal" in="SourceGraphic" in2="BackgroundImageFix" result="shape"/>
<feGaussianBlur stdDeviation="2" result="effect1_foregroundBlur_1083_3896"/>
</filter>
<filter id="filter1_f_1083_3896" x="0" y="0" width="345" height="302" filterUnits="userSpaceOnUse" color-interpolation-filters="sRGB">
<feFlood flood-opacity="0" result="BackgroundImageFix"/>
<feBlend mode="normal" in="SourceGraphic" in2="BackgroundImageFix" result="shape"/>
<feGaussianBlur stdDeviation="2" result="effect1_foregroundBlur_1083_3896"/>
</filter>
</defs>
</svg>
