<svg id="Layer_1" data-name="Layer 1" xmlns="http://www.w3.org/2000/svg" width="644.9551" height="381.96661" viewBox="0 0 644.9551 381.96661">
  <defs>
    <style>
      .cls-1 {
        fill: none;
      }

      .cls-2 {
        fill: #3a3b3c;
      }

      .cls-3, .cls-4 {
        fill: #434345;
      }

      .cls-3 {
        stroke: #fff;
        stroke-miterlimit: 10;
        stroke-width: 0.75px;
      }

      .cls-5 {
        fill: #fff;
      }
    </style>
  </defs>
  <rect class="cls-1" x="32.95509" width="612" height="381.85714"/>
  <path class="cls-2" d="M114.49309,418.71429q-7.48132,3.92766-14.96265,7.85529V343.63672q7.48132,3.095,14.96265,6.19Z" transform="translate(32.95509 -205.07143)"/>
  <path class="cls-2" d="M605.95624,329.74689q-55.00378,22.39238-110.00754,44.78473a449.83325,449.83325,0,0,0-280.30585.53982c-11.57815-4.54663-96.1558-37.80722-109.34566-45.32467-1.861-1.06064-6.04338-3.51194-6.04334-6.82453,0-2.72058,2.01433-5.44116,6.04294-6.82428l245.13033-84.16a14.795,14.795,0,0,1,9.37357-.00013l245.156,84.15994C614.01465,318.864,614.0144,326.9809,605.95624,329.74689Z" transform="translate(32.95509 -205.07143)"/>
  <path class="cls-2" d="M479.1594,511.11932H232.37327c-6.59688,0-11.9447-5.63922-11.9447-12.59552V386.019q134.45055-41.15945,270.67554,0V498.5238C491.10411,505.4801,485.75627,511.11932,479.1594,511.11932Z" transform="translate(32.95509 -205.07143)"/>
  <path class="cls-2" d="M49.77949,511.247l-82.73458-12.33953,149.23271-66.66229Q97.77148,509.64161,79.26534,587.038,64.52241,549.14249,49.77949,511.247Z" transform="translate(32.95509 -205.07143)"/>
  <path class="cls-3" d="M126.92857,515.21429" transform="translate(32.95509 -205.07143)"/>
  <path class="cls-4" d="M46.14286,74.85714" transform="translate(32.95509 -205.07143)"/>
  <path class="cls-5" d="M129.5,558.28571" transform="translate(32.95509 -205.07143)"/>
  <path class="cls-5" d="M184.78572,172.57143" transform="translate(32.95509 -205.07143)"/>
  <path class="cls-5" d="M357.63687,429.63583" transform="translate(32.95509 -205.07143)"/>
  <path class="cls-5" d="M501.07144,401.42856" transform="translate(32.95509 -205.07143)"/>
  <path class="cls-5" d="M258.71429,550.57141" transform="translate(32.95509 -205.07143)"/>
  <path class="cls-5" d="M463.78571,537.07141" transform="translate(32.95509 -205.07143)"/>
  <path class="cls-5" d="M322.35715,595.57141" transform="translate(32.95509 -205.07143)"/>
</svg>
