<svg width="444" height="226" viewBox="0 0 444 226" fill="none" xmlns="http://www.w3.org/2000/svg">
<g clip-path="url(#clip0_1516_3888)">
<path d="M370.223 5.09062e-09H5.24304C3.85286 0.000942747 2.51998 0.412678 1.53699 1.14483C0.553995 1.87698 0.00122114 2.86971 0 3.90511V188.108C0.00121955 189.144 0.553995 190.136 1.53699 190.869C2.51998 191.601 3.85285 192.012 5.24304 192.013H370.223C370.982 192.013 371.731 191.891 372.419 191.654C373.107 191.418 373.718 191.073 374.21 190.643C374.252 190.609 374.29 190.573 374.324 190.535C374.637 190.25 374.891 189.932 375.076 189.591C375.34 189.121 375.475 188.617 375.473 188.108V3.90513C375.471 2.869 374.917 1.8757 373.933 1.14346C372.949 0.411223 371.615 -5.28332e-05 370.223 5.09062e-09V5.09062e-09ZM373.976 188.108C373.976 188.653 373.761 189.186 373.356 189.64C372.997 190.039 372.509 190.366 371.937 190.589C371.407 190.793 370.82 190.899 370.223 190.898H5.24304C4.2499 190.897 3.29779 190.603 2.59554 190.08C1.89329 189.557 1.49823 188.848 1.49703 188.108V3.90513C1.49823 3.16545 1.89329 2.45633 2.59554 1.93329C3.29779 1.41026 4.2499 1.11602 5.24304 1.11512H370.223C371.218 1.11503 372.171 1.4088 372.875 1.93191C373.578 2.45503 373.974 3.16473 373.976 3.90513V188.108Z" fill="#B5B5BE"/>
<path d="M374.721 15.6514H0.747192V16.7678H374.721V15.6514Z" fill="#B5B5BE"/>
<path d="M13.4878 11.7218C15.9712 11.7218 17.9844 10.2224 17.9844 8.37272C17.9844 6.52306 15.9712 5.02362 13.4878 5.02362C11.0043 5.02362 8.99109 6.52306 8.99109 8.37272C8.99109 10.2224 11.0043 11.7218 13.4878 11.7218Z" fill="#E0F55C"/>
<path d="M26.4157 11.7218C28.8992 11.7218 30.9124 10.2224 30.9124 8.37272C30.9124 6.52306 28.8992 5.02362 26.4157 5.02362C23.9323 5.02362 21.9191 6.52306 21.9191 8.37272C21.9191 10.2224 23.9323 11.7218 26.4157 11.7218Z" fill="#05C59A"/>
<path d="M39.3437 11.7218C41.8271 11.7218 43.8403 10.2224 43.8403 8.37272C43.8403 6.52306 41.8271 5.02362 39.3437 5.02362C36.8602 5.02362 34.847 6.52306 34.847 8.37272C34.847 10.2224 36.8602 11.7218 39.3437 11.7218Z" fill="#FF0000"/>
<path d="M242.205 78.5325C239.806 78.5325 237.461 78.0026 235.466 77.0099C233.471 76.0171 231.916 74.6061 230.998 72.9552C230.08 71.3043 229.84 69.4878 230.308 67.7352C230.776 65.9826 231.931 64.3728 233.628 63.1093C235.324 61.8458 237.486 60.9853 239.839 60.6367C242.192 60.2881 244.631 60.467 246.847 61.1508C249.064 61.8346 250.958 62.9926 252.291 64.4784C253.624 65.9641 254.336 67.7109 254.336 69.4978C254.332 71.8931 253.053 74.1895 250.779 75.8833C248.505 77.577 245.421 78.5298 242.205 78.5325V78.5325ZM242.205 61.3193C240.033 61.3193 237.91 61.799 236.105 62.6976C234.299 63.5963 232.891 64.8736 232.06 66.368C231.229 67.8624 231.012 69.5069 231.435 71.0933C231.859 72.6798 232.905 74.1371 234.441 75.2808C235.976 76.4246 237.933 77.2035 240.063 77.5191C242.193 77.8347 244.401 77.6727 246.407 77.0537C248.414 76.4347 250.129 75.3864 251.335 74.0415C252.542 72.6966 253.186 71.1153 253.186 69.4978C253.183 67.3295 252.025 65.2507 249.966 63.7174C247.908 62.1842 245.116 61.3218 242.205 61.3193V61.3193Z" fill="#05C59A"/>
<path d="M241.06 72.7809C240.8 72.7813 240.547 72.7186 240.339 72.6025L240.326 72.5953L237.61 71.048C237.356 70.903 237.19 70.6887 237.148 70.4524C237.106 70.216 237.192 69.977 237.387 69.7878C237.582 69.5986 237.869 69.4748 238.187 69.4435C238.504 69.4123 238.825 69.4763 239.079 69.6213L240.838 70.626L244.995 66.5871C245.091 66.4934 245.211 66.4148 245.348 66.3558C245.486 66.2968 245.637 66.2584 245.794 66.243C245.951 66.2275 246.111 66.2353 246.264 66.2657C246.417 66.2962 246.56 66.3489 246.686 66.4207L246.686 66.4209L246.661 66.4475L246.687 66.4209C246.941 66.5661 247.107 66.7803 247.148 67.0165C247.19 67.2527 247.105 67.4916 246.91 67.6808L242.021 72.4293C241.908 72.5387 241.762 72.6273 241.596 72.6881C241.43 72.7489 241.246 72.7803 241.061 72.7798L241.06 72.7809Z" fill="#05C59A"/>
<path d="M276.914 78.5325C274.515 78.5325 272.17 78.0026 270.175 77.0099C268.18 76.0171 266.625 74.6061 265.707 72.9552C264.789 71.3043 264.549 69.4878 265.017 67.7352C265.485 65.9826 266.64 64.3728 268.337 63.1093C270.033 61.8458 272.195 60.9853 274.548 60.6367C276.901 60.2881 279.34 60.467 281.556 61.1508C283.773 61.8346 285.667 62.9926 287 64.4784C288.333 65.9641 289.045 67.7109 289.045 69.4978C289.041 71.8931 287.762 74.1896 285.488 75.8833C283.214 77.5771 280.13 78.5298 276.914 78.5325V78.5325ZM276.914 61.3193C274.742 61.3193 272.619 61.799 270.814 62.6976C269.008 63.5963 267.6 64.8736 266.769 66.368C265.938 67.8624 265.721 69.5069 266.144 71.0933C266.568 72.6798 267.614 74.1371 269.15 75.2808C270.685 76.4246 272.642 77.2035 274.772 77.5191C276.902 77.8347 279.11 77.6727 281.116 77.0537C283.123 76.4347 284.838 75.3864 286.044 74.0415C287.251 72.6966 287.895 71.1153 287.895 69.4978C287.892 67.3295 286.734 65.2506 284.675 63.7174C282.617 62.1842 279.826 61.3217 276.914 61.3193V61.3193Z" fill="#E6E6E6"/>
<path d="M281.281 72.6238C281.135 72.732 280.938 72.7928 280.732 72.7928C280.526 72.7928 280.328 72.732 280.183 72.6238L277.272 70.4558C277.207 70.4075 277.119 70.3804 277.027 70.3804C276.935 70.3804 276.847 70.4075 276.783 70.4557L273.872 72.6237C273.726 72.7322 273.529 72.7931 273.323 72.7931C273.117 72.7931 272.919 72.7322 272.774 72.6237C272.628 72.5152 272.546 72.3681 272.546 72.2147C272.546 72.0614 272.628 71.9143 272.774 71.8058L275.684 69.6378C275.749 69.5895 275.786 69.524 275.786 69.4557C275.786 69.3874 275.749 69.3218 275.684 69.2735L272.773 67.1054C272.628 66.997 272.546 66.8499 272.546 66.6965C272.546 66.5432 272.628 66.3961 272.773 66.2876C272.919 66.1792 273.116 66.1183 273.322 66.1183C273.528 66.1183 273.726 66.1792 273.871 66.2876L276.782 68.4557C276.847 68.504 276.935 68.5311 277.027 68.5311C277.119 68.5311 277.207 68.5039 277.272 68.4557L280.182 66.2877C280.328 66.1793 280.526 66.1183 280.731 66.1183C280.937 66.1183 281.135 66.1793 281.281 66.2877C281.426 66.3962 281.508 66.5433 281.508 66.6967C281.508 66.8501 281.426 66.9972 281.281 67.1056L278.37 69.2736C278.305 69.322 278.269 69.3875 278.269 69.4558C278.269 69.5241 278.305 69.5897 278.37 69.638L281.281 71.806C281.426 71.9145 281.508 72.0616 281.508 72.2149C281.508 72.3682 281.426 72.5152 281.281 72.6238V72.6238Z" fill="#E6E6E6"/>
<path d="M242.205 107.216C239.806 107.216 237.461 106.686 235.466 105.693C233.471 104.701 231.916 103.29 230.998 101.639C230.08 99.9879 229.84 98.1713 230.308 96.4188C230.776 94.6662 231.931 93.0564 233.628 91.7929C235.324 90.5293 237.486 89.6689 239.839 89.3203C242.192 88.9717 244.631 89.1506 246.847 89.8344C249.064 90.5182 250.958 91.6762 252.291 93.162C253.624 94.6477 254.336 96.3945 254.336 98.1814C254.332 100.577 253.053 102.873 250.779 104.567C248.505 106.261 245.421 107.213 242.205 107.216V107.216ZM242.205 90.0029C240.033 90.0029 237.91 90.4826 236.105 91.3812C234.299 92.2799 232.891 93.5572 232.06 95.0516C231.229 96.546 231.012 98.1904 231.435 99.7769C231.859 101.363 232.905 102.821 234.441 103.964C235.976 105.108 237.933 105.887 240.063 106.203C242.193 106.518 244.401 106.356 246.407 105.737C248.414 105.118 250.129 104.07 251.335 102.725C252.542 101.38 253.186 99.7989 253.186 98.1814C253.183 96.0131 252.025 93.9343 249.966 92.401C247.908 90.8678 245.116 90.0054 242.205 90.0029V90.0029Z" fill="#05C59A"/>
<path d="M241.06 101.465C240.8 101.465 240.547 101.402 240.339 101.286L240.326 101.279L237.61 99.7316C237.356 99.5866 237.19 99.3723 237.148 99.136C237.106 98.8996 237.192 98.6606 237.387 98.4714C237.582 98.2822 237.869 98.1584 238.187 98.1271C238.504 98.0959 238.825 98.1599 239.079 98.3049L240.838 99.3096L244.995 95.2707C245.091 95.177 245.211 95.0984 245.348 95.0394C245.486 94.9804 245.637 94.942 245.794 94.9266C245.951 94.9111 246.111 94.9189 246.264 94.9493C246.417 94.9798 246.56 95.0325 246.686 95.1043L246.686 95.1045L246.661 95.1311L246.687 95.1045C246.941 95.2496 247.107 95.4639 247.148 95.7001C247.19 95.9363 247.105 96.1752 246.91 96.3644L242.021 101.113C241.908 101.222 241.762 101.311 241.596 101.372C241.43 101.432 241.246 101.464 241.061 101.463L241.06 101.465Z" fill="#05C59A"/>
<path d="M276.914 107.216C274.515 107.216 272.17 106.686 270.175 105.693C268.18 104.701 266.625 103.29 265.707 101.639C264.789 99.9879 264.549 98.1713 265.017 96.4188C265.485 94.6662 266.64 93.0564 268.337 91.7929C270.033 90.5293 272.195 89.6689 274.548 89.3203C276.901 88.9717 279.34 89.1506 281.556 89.8344C283.773 90.5182 285.667 91.6762 287 93.162C288.333 94.6477 289.045 96.3945 289.045 98.1814C289.041 100.577 287.762 102.873 285.488 104.567C283.214 106.261 280.13 107.213 276.914 107.216ZM276.914 90.0029C274.742 90.0029 272.619 90.4826 270.814 91.3812C269.008 92.2799 267.6 93.5572 266.769 95.0516C265.938 96.546 265.721 98.1904 266.144 99.7769C266.568 101.363 267.614 102.821 269.15 103.964C270.685 105.108 272.642 105.887 274.772 106.203C276.902 106.518 279.11 106.356 281.116 105.737C283.123 105.118 284.838 104.07 286.044 102.725C287.251 101.38 287.895 99.7989 287.895 98.1814C287.892 96.013 286.734 93.9342 284.675 92.401C282.617 90.8678 279.826 90.0053 276.914 90.0029V90.0029Z" fill="#E6E6E6"/>
<path d="M281.281 101.307C281.135 101.416 280.937 101.476 280.732 101.476C280.526 101.476 280.328 101.416 280.183 101.307L277.272 99.1394C277.207 99.0911 277.119 99.064 277.027 99.064C276.935 99.064 276.847 99.0911 276.782 99.1393L273.872 101.307C273.726 101.416 273.528 101.477 273.323 101.477C273.117 101.477 272.919 101.416 272.773 101.307C272.628 101.199 272.546 101.052 272.546 100.898C272.546 100.745 272.628 100.598 272.773 100.489L275.684 98.3214C275.749 98.2731 275.786 98.2076 275.786 98.1393C275.786 98.071 275.749 98.0054 275.684 97.9571L272.773 95.789C272.628 95.6806 272.546 95.5335 272.546 95.3801C272.546 95.2268 272.628 95.0797 272.773 94.9712C272.919 94.8628 273.116 94.8019 273.322 94.8019C273.528 94.8019 273.726 94.8628 273.871 94.9712L276.782 97.1393C276.847 97.1876 276.935 97.2147 277.027 97.2147C277.119 97.2147 277.207 97.1875 277.272 97.1393L280.182 94.9713C280.328 94.8628 280.526 94.8019 280.731 94.8019C280.937 94.8019 281.135 94.8628 281.281 94.9713C281.426 95.0798 281.508 95.2269 281.508 95.3803C281.508 95.5336 281.426 95.6808 281.281 95.7892L278.37 97.9572C278.305 98.0056 278.269 98.0711 278.269 98.1394C278.269 98.2077 278.305 98.2733 278.37 98.3216L281.281 100.49C281.426 100.598 281.508 100.745 281.508 100.898C281.508 101.052 281.426 101.199 281.281 101.307V101.307Z" fill="#E6E6E6"/>
<path d="M242.205 135.9C239.806 135.9 237.461 135.37 235.466 134.377C233.471 133.384 231.916 131.973 230.998 130.322C230.08 128.672 229.84 126.855 230.308 125.102C230.776 123.35 231.931 121.74 233.628 120.477C235.324 119.213 237.486 118.353 239.839 118.004C242.192 117.655 244.631 117.834 246.847 118.518C249.064 119.202 250.958 120.36 252.291 121.846C253.624 123.331 254.336 125.078 254.336 126.865C254.332 129.26 253.053 131.557 250.779 133.251C248.505 134.944 245.421 135.897 242.205 135.9V135.9ZM242.205 118.687C240.033 118.687 237.91 119.166 236.105 120.065C234.299 120.964 232.891 122.241 232.06 123.735C231.229 125.23 231.012 126.874 231.435 128.461C231.859 130.047 232.905 131.504 234.441 132.648C235.976 133.792 237.933 134.571 240.063 134.886C242.193 135.202 244.401 135.04 246.407 134.421C248.414 133.802 250.129 132.754 251.335 131.409C252.542 130.064 253.186 128.483 253.186 126.865C253.183 124.697 252.025 122.618 249.966 121.085C247.908 119.551 245.116 118.689 242.205 118.687V118.687Z" fill="#E6E6E6"/>
<path d="M241.06 130.148C240.8 130.148 240.547 130.086 240.339 129.97L240.326 129.962L237.61 128.415C237.356 128.27 237.19 128.056 237.148 127.82C237.106 127.583 237.192 127.344 237.387 127.155C237.582 126.966 237.869 126.842 238.187 126.811C238.504 126.78 238.825 126.843 239.079 126.988L240.838 127.993L244.995 123.954C245.091 123.861 245.211 123.782 245.348 123.723C245.486 123.664 245.637 123.626 245.794 123.61C245.951 123.595 246.111 123.602 246.264 123.633C246.417 123.663 246.56 123.716 246.686 123.788L246.686 123.788L246.661 123.815L246.687 123.788C246.941 123.933 247.107 124.147 247.148 124.384C247.19 124.62 247.105 124.859 246.91 125.048L242.021 129.797C241.908 129.906 241.762 129.994 241.596 130.055C241.43 130.116 241.246 130.147 241.061 130.147L241.06 130.148Z" fill="#E6E6E6"/>
<path d="M276.914 135.9C274.515 135.9 272.17 135.37 270.175 134.377C268.18 133.384 266.625 131.973 265.707 130.322C264.789 128.672 264.549 126.855 265.017 125.102C265.485 123.35 266.64 121.74 268.337 120.477C270.033 119.213 272.195 118.353 274.548 118.004C276.901 117.655 279.34 117.834 281.556 118.518C283.773 119.202 285.667 120.36 287 121.846C288.333 123.331 289.045 125.078 289.045 126.865C289.041 129.26 287.762 131.557 285.488 133.251C283.214 134.944 280.13 135.897 276.914 135.9ZM276.914 118.687C274.742 118.687 272.619 119.166 270.814 120.065C269.008 120.964 267.6 122.241 266.769 123.735C265.938 125.23 265.721 126.874 266.144 128.461C266.568 130.047 267.614 131.504 269.15 132.648C270.685 133.792 272.642 134.571 274.772 134.886C276.902 135.202 279.11 135.04 281.116 134.421C283.123 133.802 284.838 132.754 286.044 131.409C287.251 130.064 287.895 128.483 287.895 126.865C287.892 124.697 286.734 122.618 284.675 121.085C282.617 119.551 279.826 118.689 276.914 118.687V118.687Z" fill="#E6E6E6"/>
<path d="M281.281 129.991C281.135 130.099 280.937 130.16 280.732 130.16C280.526 130.16 280.328 130.099 280.183 129.991L277.272 127.823C277.207 127.775 277.119 127.748 277.027 127.748C276.935 127.748 276.847 127.775 276.782 127.823L273.872 129.991C273.726 130.099 273.528 130.16 273.323 130.16C273.117 130.16 272.919 130.099 272.773 129.991C272.628 129.882 272.546 129.735 272.546 129.582C272.546 129.429 272.628 129.281 272.773 129.173L275.684 127.005C275.749 126.957 275.786 126.891 275.786 126.823C275.786 126.755 275.749 126.689 275.684 126.641L272.773 124.473C272.628 124.364 272.546 124.217 272.546 124.064C272.546 123.91 272.628 123.763 272.773 123.655C272.919 123.546 273.116 123.485 273.322 123.485C273.528 123.485 273.726 123.546 273.871 123.655L276.782 125.823C276.847 125.871 276.935 125.898 277.027 125.898C277.119 125.898 277.207 125.871 277.272 125.823L280.182 123.655C280.328 123.547 280.525 123.486 280.731 123.486C280.937 123.486 281.134 123.547 281.279 123.656C281.425 123.764 281.507 123.911 281.507 124.064C281.507 124.217 281.426 124.364 281.281 124.473L278.37 126.641C278.305 126.689 278.269 126.755 278.269 126.823C278.269 126.891 278.305 126.957 278.37 127.005L281.281 129.173C281.426 129.282 281.508 129.429 281.508 129.582C281.508 129.735 281.426 129.882 281.281 129.991V129.991Z" fill="#E6E6E6"/>
<path d="M443.399 225.868H214.309C214.149 225.868 213.996 225.821 213.884 225.737C213.771 225.653 213.708 225.539 213.708 225.42C213.708 225.301 213.771 225.187 213.884 225.103C213.996 225.019 214.149 224.972 214.309 224.972H443.399C443.558 224.972 443.711 225.019 443.824 225.103C443.937 225.187 444 225.301 444 225.42C444 225.539 443.937 225.653 443.824 225.737C443.711 225.821 443.558 225.868 443.399 225.868Z" fill="#B5B5BE"/>
<path d="M246.923 103.648C247.68 103.988 248.527 104.201 249.406 104.271C250.285 104.342 251.174 104.268 252.01 104.054C252.847 103.841 253.61 103.494 254.246 103.037C254.883 102.58 255.378 102.025 255.695 101.411L277.17 101.943L271.336 94.8522L251.838 95.4338C250.416 95.1051 248.883 95.1761 247.527 95.6334C246.171 96.0906 245.088 96.9024 244.482 97.9149C243.876 98.9273 243.79 100.07 244.24 101.127C244.69 102.183 245.645 103.08 246.923 103.648V103.648Z" fill="#FFB8B8"/>
<path d="M368.007 138.292C368.589 137.797 369.019 137.213 369.266 136.581C369.513 135.948 369.571 135.284 369.435 134.633C369.3 133.982 368.974 133.362 368.482 132.815C367.99 132.268 367.343 131.808 366.586 131.468L371.051 115.814L360.655 118.85L358.009 133.25C357.326 134.234 357.151 135.372 357.518 136.446C357.885 137.52 358.769 138.456 360.001 139.078C361.233 139.699 362.729 139.963 364.204 139.818C365.68 139.673 367.033 139.13 368.007 138.292V138.292Z" fill="#FFB8B8"/>
<path d="M317.701 219.875L310.329 219.874L306.822 198.697L317.702 198.698L317.701 219.875Z" fill="#FFB8B8"/>
<path d="M319.58 225.197L295.811 225.196V224.972C295.811 224.067 296.051 223.171 296.515 222.335C296.98 221.499 297.662 220.74 298.521 220.1C299.38 219.46 300.4 218.953 301.522 218.606C302.645 218.26 303.848 218.082 305.063 218.082H305.064L319.581 218.082L319.58 225.197Z" fill="#2F2E41"/>
<path d="M353.778 219.875L346.406 219.874L342.899 198.697L353.779 198.698L353.778 219.875Z" fill="#FFB8B8"/>
<path d="M355.658 225.197L331.888 225.196V224.972C331.888 224.067 332.128 223.171 332.593 222.335C333.058 221.499 333.739 220.74 334.598 220.1C335.457 219.46 336.477 218.953 337.6 218.606C338.722 218.26 339.925 218.082 341.14 218.082H341.141L355.658 218.082L355.658 225.197Z" fill="#2F2E41"/>
<path d="M318.468 208.817L308.033 208.506C307.321 208.483 306.65 208.253 306.165 207.864C305.679 207.476 305.418 206.961 305.437 206.431L308.377 134.608L308.569 134.556C326.858 129.628 341.988 130.001 354.824 135.693L354.967 135.757L356.728 205.71C356.735 205.978 356.67 206.244 356.537 206.493C356.404 206.742 356.206 206.968 355.954 207.16C355.702 207.351 355.402 207.503 355.07 207.606C354.739 207.71 354.383 207.763 354.023 207.763H345.224C344.597 207.762 343.99 207.6 343.506 207.303C343.022 207.007 342.691 206.595 342.569 206.137L330.582 160.722C330.541 160.565 330.425 160.425 330.257 160.325C330.089 160.226 329.878 160.175 329.664 160.18C329.449 160.186 329.244 160.249 329.086 160.357C328.928 160.466 328.827 160.612 328.802 160.771L321.263 207.046C321.18 207.534 320.861 207.983 320.367 208.309C319.873 208.635 319.236 208.816 318.575 208.818C318.54 208.818 318.504 208.818 318.468 208.817Z" fill="#2F2E41"/>
<path d="M328.62 71.6208C336.777 71.6208 343.388 66.6963 343.388 60.6216C343.388 54.5469 336.777 49.6223 328.62 49.6223C320.464 49.6223 313.852 54.5469 313.852 60.6216C313.852 66.6963 320.464 71.6208 328.62 71.6208Z" fill="#FFB8B8"/>
<path d="M259.192 101.048C259.027 100.657 259.027 100.237 259.191 99.8456L260.721 96.1943C260.888 95.7992 261.214 95.4519 261.654 95.1992C262.095 94.9466 262.629 94.8008 263.185 94.7815L282.56 94.1436L313.994 82.1423C315.085 81.8827 316.235 81.7858 317.376 81.8573C318.518 81.9287 319.63 82.1671 320.647 82.5588C321.665 82.9505 322.569 83.4877 323.308 84.1399C324.047 84.792 324.606 85.5463 324.953 86.3595C325.3 87.1726 325.429 88.0288 325.331 88.879C325.234 89.7292 324.912 90.5567 324.385 91.3143C323.858 92.0718 323.135 92.7445 322.258 93.2939C321.382 93.8433 320.368 94.2586 319.276 94.516L300.012 102.838C294.166 105.365 287.287 106.223 280.654 105.255L261.254 102.424C260.881 102.369 260.527 102.257 260.216 102.094C259.906 101.931 259.644 101.721 259.45 101.478C259.341 101.343 259.255 101.199 259.192 101.048Z" fill="#CCCCCC"/>
<path d="M367.376 128.157C366.858 128.296 366.295 128.314 365.763 128.209L360.799 127.226C360.262 127.119 359.782 126.891 359.425 126.574C359.067 126.257 358.849 125.866 358.799 125.453L357.118 111.063L339.68 88.1835C339.285 87.3826 339.106 86.5315 339.153 85.679C339.201 84.8265 339.473 83.9893 339.955 83.2153C340.437 82.4413 341.119 81.7457 341.963 81.1682C342.806 80.5907 343.794 80.1426 344.87 79.8497C345.946 79.5568 347.089 79.4247 348.233 79.461C349.378 79.4972 350.502 79.7012 351.54 80.0612C352.579 80.4212 353.512 80.9301 354.286 81.5589C355.061 82.1877 355.661 82.924 356.053 83.7257L368.037 97.7058C371.675 101.948 373.121 107.031 372.104 112.008L369.133 126.564C369.076 126.844 368.94 127.112 368.735 127.35C368.529 127.588 368.259 127.792 367.941 127.947C367.765 128.033 367.575 128.104 367.376 128.157V128.157Z" fill="#CCCCCC"/>
<path d="M312.467 80.1548C315.004 78.083 318.132 76.4618 321.623 75.4108C325.113 74.3598 328.875 73.9058 332.632 74.0824C332.879 74.0938 333.125 74.1066 333.37 74.1209H333.37C336.931 74.3306 340.391 75.1041 343.519 76.3897C346.646 77.6753 349.369 79.4434 351.505 81.5758C353.677 83.7379 355.204 86.2204 355.984 88.8574C356.764 91.4944 356.78 94.2251 356.03 96.8668C353.166 106.963 353.891 117.441 358.132 127.264L362.094 136.426C362.221 136.72 362.256 137.031 362.196 137.336C362.136 137.642 361.982 137.932 361.747 138.187C361.513 138.441 361.203 138.651 360.841 138.802C360.48 138.953 360.077 139.04 359.663 139.056L339.409 139.867L334.226 133.199V140.075L309.609 141.06C309.56 141.062 309.511 141.063 309.463 141.063C309.089 141.063 308.719 141.006 308.377 140.894C308.035 140.782 307.728 140.619 307.475 140.414C307.221 140.21 307.028 139.969 306.906 139.706C306.784 139.443 306.736 139.164 306.766 138.886L309.549 113.189L306.059 95.7355C305.494 92.9468 305.776 90.0993 306.885 87.4027C307.995 84.7062 309.902 82.2294 312.467 80.1548V80.1548Z" fill="#05C59A"/>
<path d="M338.884 71.1219C337.517 71.7079 332.112 72.0964 331.727 70.957L331.719 70.932C331.451 70.0971 331.673 69.2254 331.75 68.369C331.827 67.5125 331.715 66.5717 330.932 65.942C329.472 64.7682 326.874 65.3904 324.763 65.0936C323.527 64.888 322.433 64.3539 321.687 63.5912C320.941 62.8285 320.594 61.8895 320.711 60.9499C320.741 60.7718 320.788 60.5936 320.841 60.4155C320.973 59.9643 320.963 59.4963 320.811 59.0485C320.659 58.6007 320.37 58.1851 319.967 57.8344C319.563 57.4838 319.056 57.2075 318.485 57.0274C317.914 56.8473 317.295 56.7683 316.676 56.7964C314.542 56.8873 312.239 57.3687 310.474 56.1918C309.109 55.2817 308.776 52.9126 309.376 51.6233C310.384 49.4565 316.84 48.3222 319.659 47.6986C323.146 46.9484 326.813 46.7862 330.394 47.2238C333.975 47.6615 337.38 48.688 340.362 50.2287C342.142 51.1634 343.805 52.3379 344.564 53.8587C345.323 55.3795 344.957 57.2982 343.245 58.3022C344.572 59.3482 345.506 60.6354 345.954 62.035C346.402 63.4345 346.349 64.8972 345.799 66.2765C344.953 68.3049 340.919 70.2497 338.884 71.1219Z" fill="#2F2E41"/>
<path d="M135.062 71.6862H40.503C39.2844 71.6852 38.1161 71.3238 37.2548 70.6817C36.3936 70.0395 35.9099 69.1689 35.9099 68.2613C35.9099 67.3536 36.3936 66.4831 37.2548 65.8409C38.1161 65.1987 39.2844 64.8374 40.503 64.8364H135.062C136.28 64.8374 137.449 65.1987 138.31 65.8409C139.171 66.4831 139.655 67.3536 139.655 68.2613C139.655 69.1689 139.171 70.0395 138.31 70.6817C137.449 71.3238 136.28 71.6852 135.062 71.6862Z" fill="#D7D7D7"/>
<path d="M193.441 74.607H31.0943C30.9349 74.607 30.7819 74.5598 30.6692 74.4758C30.5564 74.3918 30.493 74.2779 30.493 74.1591C30.493 74.0404 30.5564 73.9265 30.6692 73.8425C30.7819 73.7585 30.9349 73.7113 31.0943 73.7113H193.441C193.601 73.7113 193.754 73.7585 193.867 73.8425C193.979 73.9265 194.043 74.0404 194.043 74.1591C194.043 74.2779 193.979 74.3918 193.867 74.4758C193.754 74.5598 193.601 74.607 193.441 74.607Z" fill="#B5B5BE"/>
<path d="M135.062 100.37H87.7824H40.5031C39.2835 100.37 38.1138 100.009 37.2515 99.3666C36.3891 98.7244 35.9046 97.8532 35.9046 96.9449C35.9046 96.0365 36.3891 95.1654 37.2515 94.5231C38.1138 93.8808 39.2835 93.52 40.5031 93.52H135.062C136.28 93.521 137.449 93.8823 138.31 94.5245C139.171 95.1667 139.655 96.0372 139.655 96.9449C139.655 97.8525 139.171 98.7231 138.31 99.3652C137.449 100.007 136.28 100.369 135.062 100.37Z" fill="#D7D7D7"/>
<path d="M193.441 103.291H31.0943C30.9349 103.291 30.7819 103.244 30.6692 103.16C30.5564 103.076 30.493 102.962 30.493 102.843C30.493 102.724 30.5564 102.61 30.6692 102.526C30.7819 102.442 30.9349 102.395 31.0943 102.395H193.441C193.601 102.395 193.754 102.442 193.867 102.526C193.979 102.61 194.043 102.724 194.043 102.843C194.043 102.962 193.979 103.076 193.867 103.16C193.754 103.244 193.601 103.291 193.441 103.291Z" fill="#B5B5BE"/>
<path d="M135.062 129.053H40.5031C39.2835 129.053 38.1138 128.693 37.2515 128.05C36.3891 127.408 35.9046 126.537 35.9046 125.629C35.9046 124.72 36.3891 123.849 37.2515 123.207C38.1138 122.564 39.2835 122.204 40.5031 122.204H135.062C136.28 122.205 137.449 122.566 138.31 123.208C139.171 123.85 139.655 124.721 139.655 125.629C139.655 126.536 139.171 127.407 138.31 128.049C137.449 128.691 136.28 129.052 135.062 129.053Z" fill="#D7D7D7"/>
<path d="M193.441 131.974H31.0943C30.9349 131.974 30.7819 131.927 30.6692 131.843C30.5564 131.759 30.493 131.645 30.493 131.526C30.493 131.408 30.5564 131.294 30.6692 131.21C30.7819 131.126 30.9349 131.078 31.0943 131.078H193.441C193.601 131.078 193.754 131.126 193.867 131.21C193.979 131.294 194.043 131.408 194.043 131.526C194.043 131.645 193.979 131.759 193.867 131.843C193.754 131.927 193.601 131.974 193.441 131.974Z" fill="#B5B5BE"/>
</g>
<defs>
<clipPath id="clip0_1516_3888">
<rect width="444" height="226" fill="white"/>
</clipPath>
</defs>
</svg>
