<svg width="450" height="200" viewBox="0 0 1571 724" fill="none" xmlns="http://www.w3.org/2000/svg">
<g clip-path="url(#clip0_1515_3849)">
<path d="M1309.96 1.6308e-08H18.5514C13.6325 0.00302013 8.91641 1.32203 5.4383 3.6675C1.96019 6.01297 0.00432073 9.19324 0 12.5102V602.612C0.00431511 605.929 1.96019 609.109 5.4383 611.455C8.91641 613.8 13.6325 615.119 18.5514 615.122H1309.96C1312.64 615.122 1315.29 614.73 1317.73 613.972C1320.16 613.214 1322.32 612.109 1324.06 610.732C1324.21 610.624 1324.35 610.509 1324.47 610.388C1325.57 609.475 1326.47 608.454 1327.13 607.361C1328.06 605.857 1328.54 604.242 1328.53 602.612V12.5103C1328.52 9.19097 1326.57 6.00888 1323.08 3.66312C1319.6 1.31737 1314.88 -0.000169253 1309.96 1.6308e-08ZM1323.23 602.612C1323.24 604.358 1322.47 606.064 1321.04 607.519C1319.77 608.799 1318.04 609.844 1316.02 610.56C1314.15 611.213 1312.07 611.553 1309.96 611.55H18.5514C15.0374 611.547 11.6685 610.605 9.18377 608.929C6.699 607.253 5.30119 604.982 5.29692 602.612V12.5103C5.30119 10.1407 6.699 7.86894 9.18377 6.19338C11.6685 4.51782 15.0374 3.57521 18.5514 3.57234H1309.96C1313.47 3.57203 1316.85 4.51313 1319.34 6.18896C1321.83 7.86479 1323.23 10.1383 1323.23 12.5103V602.612Z" fill="#D7D7D7"/>
<path d="M1325.87 50.1401H2.64355V53.7165H1325.87V50.1401Z" fill="#D7D7D7"/>
<path d="M47.7235 37.5515C56.5107 37.5515 63.6341 32.7479 63.6341 26.8225C63.6341 20.897 56.5107 16.0935 47.7235 16.0935C38.9364 16.0935 31.813 20.897 31.813 26.8225C31.813 32.7479 38.9364 37.5515 47.7235 37.5515Z" fill="#E0F55C"/>
<path d="M93.4662 37.5515C102.253 37.5515 109.377 32.7479 109.377 26.8225C109.377 20.897 102.253 16.0935 93.4662 16.0935C84.6791 16.0935 77.5557 20.897 77.5557 26.8225C77.5557 32.7479 84.6791 37.5515 93.4662 37.5515Z" fill="#05C59A"/>
<path d="M139.209 37.5515C147.997 37.5515 155.12 32.7479 155.12 26.8225C155.12 20.897 147.997 16.0935 139.209 16.0935C130.422 16.0935 123.299 20.897 123.299 26.8225C123.299 32.7479 130.422 37.5515 139.209 37.5515Z" fill="#FF0000"/>
<path d="M856.992 251.582C848.503 251.582 840.205 249.884 833.146 246.704C826.088 243.524 820.587 239.004 817.338 233.715C814.089 228.426 813.239 222.607 814.896 216.992C816.552 211.378 820.639 206.221 826.642 202.173C832.645 198.125 840.293 195.369 848.618 194.252C856.944 193.135 865.574 193.708 873.417 195.899C881.26 198.09 887.963 201.799 892.679 206.559C897.396 211.319 899.913 216.914 899.913 222.639C899.9 230.312 895.374 237.669 887.328 243.095C879.281 248.521 868.371 251.573 856.992 251.582V251.582ZM856.992 196.439C849.307 196.439 841.795 197.975 835.406 200.854C829.017 203.733 824.037 207.825 821.096 212.613C818.155 217.4 817.386 222.668 818.885 227.75C820.384 232.833 824.085 237.501 829.518 241.165C834.952 244.829 841.875 247.325 849.412 248.335C856.949 249.346 864.761 248.828 871.86 246.845C878.96 244.862 885.028 241.503 889.297 237.195C893.567 232.886 895.845 227.821 895.845 222.639C895.834 215.693 891.736 209.033 884.452 204.121C877.169 199.21 867.293 196.447 856.992 196.439V196.439Z" fill="#05C59A"/>
<path d="M852.94 233.156C852.02 233.157 851.125 232.957 850.389 232.585L850.343 232.562L840.734 227.605C839.835 227.14 839.247 226.454 839.099 225.697C838.95 224.94 839.254 224.174 839.943 223.568C840.632 222.962 841.65 222.565 842.773 222.465C843.896 222.365 845.031 222.57 845.93 223.034L852.154 226.253L866.862 213.314C867.203 213.014 867.628 212.762 868.113 212.573C868.599 212.384 869.134 212.261 869.69 212.212C870.246 212.162 870.811 212.187 871.352 212.285C871.894 212.382 872.401 212.551 872.846 212.781L872.847 212.782L872.756 212.867L872.85 212.782C873.747 213.247 874.335 213.933 874.483 214.69C874.631 215.446 874.327 216.212 873.639 216.818L856.34 232.03C855.94 232.381 855.425 232.664 854.836 232.859C854.247 233.054 853.6 233.154 852.944 233.153L852.94 233.156Z" fill="#05C59A"/>
<path d="M979.802 251.582C971.313 251.582 963.015 249.884 955.957 246.704C948.898 243.524 943.397 239.004 940.149 233.715C936.9 228.426 936.05 222.607 937.706 216.992C939.362 211.378 943.45 206.221 949.453 202.173C955.455 198.125 963.103 195.369 971.429 194.252C979.755 193.135 988.385 193.708 996.228 195.899C1004.07 198.09 1010.77 201.799 1015.49 206.559C1020.21 211.319 1022.72 216.914 1022.72 222.639C1022.71 230.312 1018.18 237.669 1010.14 243.095C1002.09 248.521 991.182 251.573 979.802 251.582V251.582ZM979.802 196.439C972.118 196.439 964.606 197.975 958.217 200.854C951.827 203.733 946.847 207.825 943.907 212.613C940.966 217.4 940.196 222.668 941.696 227.75C943.195 232.833 946.895 237.501 952.329 241.165C957.763 244.829 964.686 247.325 972.223 248.335C979.759 249.346 987.571 248.828 994.671 246.845C1001.77 244.862 1007.84 241.503 1012.11 237.195C1016.38 232.886 1018.66 227.821 1018.66 222.639C1018.64 215.693 1014.55 209.033 1007.26 204.121C999.979 199.209 990.104 196.447 979.802 196.439V196.439Z" fill="#E6E6E6"/>
<path d="M995.252 232.653C994.736 233 994.038 233.195 993.309 233.195C992.581 233.195 991.883 233 991.367 232.653L981.068 225.708C980.838 225.553 980.526 225.467 980.202 225.467C979.877 225.467 979.566 225.553 979.336 225.708L969.037 232.653C968.522 233.001 967.823 233.196 967.094 233.196C966.365 233.196 965.666 233.001 965.151 232.653C964.636 232.306 964.346 231.834 964.346 231.343C964.346 230.852 964.636 230.38 965.151 230.033L975.451 223.088C975.68 222.933 975.809 222.723 975.809 222.504C975.809 222.285 975.68 222.075 975.451 221.921L965.151 214.975C964.636 214.628 964.346 214.156 964.346 213.665C964.346 213.174 964.636 212.703 965.151 212.355C965.666 212.008 966.365 211.813 967.093 211.813C967.822 211.813 968.521 212.008 969.036 212.355L979.336 219.301C979.565 219.455 979.877 219.542 980.201 219.542C980.526 219.542 980.837 219.455 981.067 219.301L991.366 212.356C991.881 212.008 992.58 211.813 993.309 211.813C994.037 211.813 994.736 212.008 995.252 212.356C995.767 212.703 996.056 213.174 996.056 213.666C996.056 214.157 995.767 214.628 995.251 214.976L984.952 221.921C984.723 222.076 984.594 222.286 984.594 222.505C984.594 222.724 984.723 222.933 984.952 223.088L995.252 230.034C995.766 230.381 996.055 230.852 996.055 231.343C996.055 231.834 995.766 232.306 995.252 232.653V232.653Z" fill="#E6E6E6"/>
<path d="M856.992 343.471C848.503 343.471 840.205 341.773 833.146 338.593C826.088 335.413 820.587 330.893 817.338 325.604C814.089 320.315 813.239 314.496 814.896 308.881C816.552 303.267 820.639 298.11 826.642 294.062C832.645 290.014 840.293 287.258 848.618 286.141C856.944 285.024 865.574 285.597 873.417 287.788C881.26 289.979 887.963 293.688 892.679 298.448C897.396 303.208 899.913 308.804 899.913 314.528C899.9 322.201 895.374 329.558 887.328 334.984C879.281 340.41 868.371 343.462 856.992 343.471V343.471ZM856.992 288.328C849.307 288.328 841.795 289.865 835.406 292.743C829.017 295.622 824.037 299.714 821.096 304.502C818.155 309.289 817.386 314.557 818.885 319.639C820.384 324.722 824.085 329.39 829.518 333.054C834.952 336.718 841.875 339.214 849.412 340.225C856.949 341.236 864.761 340.717 871.86 338.734C878.96 336.751 885.028 333.392 889.297 329.084C893.567 324.775 895.845 319.71 895.845 314.528C895.834 307.582 891.736 300.922 884.452 296.01C877.169 291.099 867.293 288.336 856.992 288.328V288.328Z" fill="#05C59A"/>
<path d="M852.94 325.046C852.02 325.047 851.125 324.846 850.389 324.474L850.343 324.451L840.734 319.494C839.835 319.029 839.247 318.343 839.099 317.586C838.95 316.829 839.254 316.063 839.943 315.457C840.632 314.851 841.65 314.454 842.773 314.354C843.896 314.254 845.031 314.459 845.93 314.924L852.154 318.142L866.862 305.203C867.203 304.903 867.628 304.652 868.113 304.462C868.599 304.273 869.134 304.15 869.69 304.101C870.246 304.051 870.811 304.076 871.352 304.174C871.894 304.272 872.401 304.44 872.846 304.67L872.847 304.671L872.756 304.756L872.85 304.671C873.747 305.136 874.335 305.822 874.483 306.579C874.631 307.336 874.327 308.101 873.639 308.707L856.34 323.919C855.94 324.27 855.425 324.553 854.836 324.748C854.247 324.943 853.6 325.044 852.944 325.042L852.94 325.046Z" fill="#05C59A"/>
<path d="M979.802 343.471C971.313 343.471 963.015 341.773 955.957 338.593C948.898 335.413 943.397 330.893 940.149 325.604C936.9 320.315 936.05 314.496 937.706 308.881C939.362 303.267 943.45 298.11 949.453 294.062C955.455 290.014 963.103 287.258 971.429 286.141C979.755 285.024 988.385 285.597 996.228 287.788C1004.07 289.979 1010.77 293.688 1015.49 298.448C1020.21 303.208 1022.72 308.804 1022.72 314.528C1022.71 322.201 1018.18 329.558 1010.14 334.984C1002.09 340.41 991.182 343.462 979.802 343.471ZM979.802 288.328C972.118 288.328 964.606 289.865 958.217 292.743C951.827 295.622 946.847 299.714 943.907 304.502C940.966 309.289 940.196 314.557 941.696 319.639C943.195 324.722 946.895 329.39 952.329 333.054C957.763 336.718 964.686 339.214 972.223 340.225C979.759 341.236 987.571 340.717 994.671 338.734C1001.77 336.751 1007.84 333.392 1012.11 329.084C1016.38 324.775 1018.66 319.71 1018.66 314.528C1018.64 307.582 1014.55 300.922 1007.26 296.01C999.979 291.099 990.104 288.336 979.802 288.328V288.328Z" fill="#E6E6E6"/>
<path d="M995.252 324.542C994.737 324.889 994.038 325.084 993.31 325.084C992.582 325.084 991.883 324.889 991.367 324.542L981.068 317.597C980.838 317.442 980.527 317.355 980.202 317.355C979.878 317.355 979.566 317.442 979.337 317.597L969.037 324.542C968.522 324.889 967.823 325.085 967.094 325.085C966.366 325.085 965.667 324.889 965.152 324.542C964.636 324.195 964.347 323.723 964.347 323.232C964.347 322.741 964.636 322.269 965.152 321.922L975.451 314.977C975.68 314.822 975.809 314.612 975.809 314.393C975.809 314.174 975.68 313.964 975.451 313.809L965.151 306.864C964.636 306.517 964.347 306.045 964.347 305.554C964.347 305.063 964.636 304.592 965.151 304.244C965.666 303.897 966.365 303.702 967.094 303.702C967.822 303.702 968.521 303.897 969.036 304.244L979.336 311.19C979.566 311.344 979.877 311.431 980.202 311.431C980.526 311.431 980.837 311.344 981.067 311.19L991.366 304.244C991.882 303.897 992.58 303.702 993.309 303.702C994.038 303.702 994.737 303.897 995.252 304.244C995.767 304.592 996.057 305.063 996.057 305.555C996.057 306.046 995.767 306.517 995.252 306.865L984.953 313.81C984.723 313.965 984.595 314.175 984.595 314.394C984.595 314.612 984.724 314.822 984.953 314.977L995.252 321.922C995.767 322.27 996.055 322.741 996.055 323.232C996.056 323.723 995.767 324.194 995.252 324.542V324.542Z" fill="#E6E6E6"/>
<path d="M856.992 435.36C848.503 435.36 840.205 433.663 833.146 430.482C826.088 427.302 820.587 422.782 817.338 417.493C814.089 412.205 813.239 406.385 814.896 400.771C816.552 395.156 820.639 389.999 826.642 385.951C832.645 381.904 840.293 379.147 848.618 378.03C856.944 376.913 865.574 377.487 873.417 379.677C881.26 381.868 887.963 385.578 892.679 390.337C897.396 395.097 899.913 400.693 899.913 406.417C899.9 414.091 895.374 421.447 887.328 426.873C879.281 432.299 868.371 435.352 856.992 435.36V435.36ZM856.992 380.217C849.307 380.217 841.795 381.754 835.406 384.633C829.017 387.512 824.037 391.603 821.096 396.391C818.155 401.178 817.386 406.446 818.885 411.529C820.384 416.611 824.085 421.279 829.518 424.943C834.952 428.608 841.875 431.103 849.412 432.114C856.949 433.125 864.761 432.606 871.86 430.623C878.96 428.64 885.028 425.282 889.297 420.973C893.567 416.665 895.845 411.599 895.845 406.417C895.834 399.471 891.736 392.811 884.452 387.9C877.169 382.988 867.293 380.225 856.992 380.217V380.217Z" fill="#E6E6E6"/>
<path d="M852.94 416.935C852.02 416.936 851.125 416.735 850.389 416.363L850.343 416.34L840.734 411.383C839.835 410.919 839.247 410.232 839.099 409.475C838.95 408.718 839.254 407.952 839.943 407.346C840.632 406.74 841.65 406.343 842.773 406.243C843.896 406.143 845.031 406.348 845.93 406.813L852.154 410.031L866.862 397.092C867.203 396.792 867.628 396.541 868.113 396.352C868.599 396.162 869.134 396.04 869.69 395.99C870.246 395.941 870.811 395.965 871.352 396.063C871.894 396.161 872.401 396.329 872.846 396.559L872.847 396.56L872.756 396.645L872.85 396.56C873.747 397.025 874.335 397.711 874.483 398.468C874.631 399.225 874.327 399.99 873.639 400.596L856.34 415.808C855.94 416.159 855.425 416.443 854.836 416.637C854.247 416.832 853.6 416.933 852.944 416.931L852.94 416.935Z" fill="#E6E6E6"/>
<path d="M979.802 435.36C971.313 435.36 963.015 433.663 955.957 430.482C948.898 427.302 943.397 422.782 940.149 417.493C936.9 412.205 936.05 406.385 937.706 400.771C939.362 395.156 943.45 389.999 949.453 385.951C955.455 381.904 963.103 379.147 971.429 378.03C979.755 376.913 988.385 377.487 996.228 379.677C1004.07 381.868 1010.77 385.578 1015.49 390.337C1020.21 395.097 1022.72 400.693 1022.72 406.417C1022.71 414.091 1018.18 421.448 1010.14 426.874C1002.09 432.3 991.182 435.352 979.802 435.36ZM979.802 380.217C972.118 380.217 964.606 381.754 958.217 384.633C951.827 387.512 946.847 391.603 943.907 396.391C940.966 401.178 940.196 406.446 941.696 411.529C943.195 416.611 946.895 421.279 952.329 424.943C957.763 428.608 964.686 431.103 972.223 432.114C979.759 433.125 987.571 432.606 994.671 430.623C1001.77 428.64 1007.84 425.282 1012.11 420.973C1016.38 416.665 1018.66 411.599 1018.66 406.417C1018.64 399.471 1014.55 392.811 1007.26 387.9C999.979 382.988 990.104 380.225 979.802 380.217V380.217Z" fill="#E6E6E6"/>
<path d="M995.253 416.431C994.737 416.778 994.038 416.973 993.31 416.973C992.582 416.973 991.883 416.778 991.368 416.431L981.068 409.486C980.838 409.332 980.527 409.245 980.202 409.245C979.878 409.245 979.566 409.331 979.337 409.486L969.037 416.431C968.522 416.779 967.823 416.974 967.094 416.974C966.366 416.974 965.667 416.779 965.152 416.431C964.636 416.084 964.347 415.612 964.347 415.121C964.347 414.63 964.636 414.158 965.152 413.811L975.451 406.866C975.68 406.711 975.809 406.501 975.809 406.282C975.809 406.063 975.68 405.854 975.451 405.699L965.151 398.753C964.636 398.406 964.347 397.934 964.347 397.443C964.347 396.952 964.636 396.481 965.151 396.133C965.666 395.786 966.365 395.591 967.094 395.591C967.822 395.591 968.521 395.786 969.036 396.133L979.336 403.079C979.566 403.234 979.877 403.32 980.202 403.32C980.526 403.32 980.837 403.233 981.067 403.079L991.366 396.134C991.882 395.787 992.58 395.593 993.308 395.594C994.036 395.594 994.734 395.789 995.248 396.136C995.763 396.483 996.052 396.954 996.053 397.444C996.054 397.935 995.766 398.406 995.252 398.754L984.953 405.699C984.723 405.854 984.595 406.064 984.595 406.283C984.595 406.502 984.724 406.712 984.953 406.866L995.252 413.812C995.767 414.159 996.056 414.63 996.056 415.122C996.056 415.613 995.767 416.084 995.253 416.431V416.431Z" fill="#E6E6E6"/>
<path d="M1568.87 723.577H758.287C757.722 723.577 757.181 723.426 756.782 723.157C756.383 722.888 756.159 722.523 756.159 722.142C756.159 721.762 756.383 721.397 756.782 721.128C757.181 720.859 757.722 720.708 758.287 720.708H1568.87C1569.44 720.708 1569.98 720.859 1570.38 721.128C1570.78 721.397 1571 721.762 1571 722.142C1571 722.523 1570.78 722.888 1570.38 723.157C1569.98 723.426 1569.44 723.577 1568.87 723.577Z" fill="#D7D7D7"/>
<path d="M873.686 332.039C876.362 333.13 879.361 333.812 882.471 334.037C885.581 334.263 888.726 334.025 891.685 333.342C894.644 332.659 897.345 331.547 899.597 330.083C901.85 328.62 903.599 326.842 904.722 324.873L980.707 326.579L960.066 303.863L891.075 305.726C886.046 304.673 880.619 304.9 875.822 306.365C871.025 307.83 867.191 310.431 865.048 313.674C862.905 316.918 862.6 320.579 864.192 323.963C865.784 327.348 869.162 330.221 873.686 332.039V332.039Z" fill="#FFB8B8"/>
<path d="M1302.11 443.024C1304.18 441.438 1305.7 439.566 1306.57 437.541C1307.44 435.516 1307.65 433.386 1307.17 431.302C1306.69 429.218 1305.54 427.23 1303.8 425.478C1302.05 423.727 1299.76 422.254 1297.09 421.163L1312.88 371.015L1276.1 380.74L1266.74 426.871C1264.32 430.025 1263.7 433.668 1265 437.109C1266.3 440.551 1269.43 443.551 1273.79 445.542C1278.15 447.533 1283.44 448.376 1288.66 447.912C1293.88 447.448 1298.67 445.709 1302.11 443.024V443.024Z" fill="#FFB8B8"/>
<path d="M1124.12 704.378L1098.03 704.377L1085.63 636.535L1124.12 636.536L1124.12 704.378Z" fill="#FFB8B8"/>
<path d="M1130.77 721.427L1046.67 721.425V720.708C1046.67 717.809 1047.51 714.939 1049.16 712.26C1050.8 709.582 1053.21 707.149 1056.25 705.099C1059.29 703.049 1062.9 701.423 1066.87 700.314C1070.84 699.205 1075.1 698.634 1079.4 698.634H1079.4L1130.77 698.636L1130.77 721.427Z" fill="#2F2E41"/>
<path d="M1251.77 704.378L1225.68 704.377L1213.28 636.535L1251.77 636.536L1251.77 704.378Z" fill="#FFB8B8"/>
<path d="M1258.42 721.427L1174.32 721.425V720.708C1174.32 717.809 1175.16 714.939 1176.81 712.26C1178.45 709.582 1180.86 707.149 1183.9 705.099C1186.94 703.049 1190.55 701.423 1194.52 700.314C1198.5 699.205 1202.75 698.634 1207.05 698.634H1207.05L1258.42 698.636L1258.42 721.427Z" fill="#2F2E41"/>
<path d="M1126.83 668.953L1089.91 667.957C1087.39 667.883 1085.02 667.145 1083.3 665.902C1081.58 664.658 1080.66 663.008 1080.72 661.309L1091.13 431.221L1091.81 431.055C1156.52 415.27 1210.05 416.464 1255.47 434.699L1255.98 434.904L1262.21 659C1262.23 659.858 1262 660.711 1261.53 661.508C1261.06 662.305 1260.36 663.031 1259.47 663.644C1258.58 664.256 1257.51 664.743 1256.34 665.075C1255.17 665.407 1253.91 665.578 1252.64 665.578H1221.5C1219.28 665.575 1217.14 665.055 1215.42 664.105C1213.71 663.155 1212.54 661.834 1212.11 660.367L1169.69 514.88C1169.55 514.377 1169.14 513.926 1168.54 513.608C1167.95 513.29 1167.2 513.125 1166.44 513.144C1165.69 513.163 1164.96 513.364 1164.4 513.711C1163.84 514.058 1163.49 514.528 1163.39 515.037L1136.72 663.28C1136.43 664.843 1135.3 666.281 1133.55 667.326C1131.8 668.37 1129.55 668.95 1127.21 668.957C1127.09 668.957 1126.96 668.956 1126.83 668.953Z" fill="#2F2E41"/>
<path d="M1162.75 229.44C1191.61 229.44 1215.01 213.664 1215.01 194.204C1215.01 174.743 1191.61 158.967 1162.75 158.967C1133.89 158.967 1110.5 174.743 1110.5 194.204C1110.5 213.664 1133.89 229.44 1162.75 229.44Z" fill="#FFB8B8"/>
<path d="M917.095 323.713C916.514 322.458 916.512 321.114 917.092 319.86L922.506 308.162C923.097 306.897 924.249 305.784 925.808 304.975C927.367 304.165 929.257 303.698 931.223 303.637L999.778 301.593L1111 263.146C1114.86 262.315 1118.93 262.004 1122.97 262.233C1127.01 262.462 1130.94 263.226 1134.54 264.481C1138.14 265.735 1141.34 267.456 1143.96 269.546C1146.57 271.635 1148.55 274.051 1149.78 276.656C1151.01 279.261 1151.46 282.004 1151.12 284.728C1150.77 287.451 1149.63 290.102 1147.77 292.529C1145.9 294.956 1143.35 297.111 1140.24 298.871C1137.14 300.631 1133.56 301.961 1129.69 302.786L1061.53 329.446C1040.84 337.54 1016.5 340.291 993.034 337.188L924.391 328.119C923.071 327.944 921.82 327.584 920.721 327.062C919.621 326.54 918.697 325.868 918.007 325.089C917.624 324.656 917.318 324.194 917.095 323.713Z" fill="#CCCCCC"/>
<path d="M1299.88 410.557C1298.05 411.002 1296.06 411.06 1294.17 410.723L1276.61 407.574C1274.71 407.23 1273.01 406.501 1271.75 405.485C1270.48 404.469 1269.71 403.216 1269.54 401.894L1263.59 355.794L1201.88 282.499C1200.49 279.933 1199.86 277.207 1200.02 274.476C1200.19 271.745 1201.15 269.063 1202.86 266.583C1204.57 264.104 1206.98 261.875 1209.96 260.025C1212.95 258.175 1216.44 256.74 1220.25 255.802C1224.06 254.863 1228.1 254.44 1232.15 254.556C1236.2 254.672 1240.18 255.326 1243.85 256.479C1247.53 257.632 1250.83 259.263 1253.57 261.277C1256.31 263.291 1258.43 265.65 1259.82 268.219L1302.22 313.004C1315.09 326.596 1320.21 342.878 1316.61 358.821L1306.1 405.454C1305.9 406.35 1305.42 407.208 1304.69 407.971C1303.96 408.734 1303.01 409.386 1301.88 409.883C1301.26 410.16 1300.59 410.386 1299.88 410.557V410.557Z" fill="#CCCCCC"/>
<path d="M1105.6 256.779C1114.57 250.142 1125.64 244.949 1137.99 241.582C1150.34 238.215 1163.66 236.76 1176.95 237.326C1177.82 237.363 1178.69 237.404 1179.56 237.449H1179.56C1192.16 238.121 1204.4 240.599 1215.47 244.718C1226.53 248.836 1236.17 254.5 1243.73 261.331C1251.41 268.258 1256.81 276.211 1259.57 284.658C1262.34 293.106 1262.39 301.854 1259.74 310.317C1249.6 342.66 1252.17 376.226 1267.17 407.696L1281.19 437.047C1281.64 437.988 1281.77 438.985 1281.55 439.963C1281.34 440.941 1280.8 441.872 1279.97 442.686C1279.14 443.5 1278.04 444.175 1276.76 444.657C1275.48 445.14 1274.06 445.419 1272.59 445.472L1200.93 448.07L1182.59 426.708V448.735L1095.48 451.892C1095.31 451.899 1095.14 451.902 1094.97 451.902C1093.65 451.902 1092.34 451.717 1091.13 451.359C1089.92 451.002 1088.83 450.479 1087.93 449.823C1087.04 449.168 1086.35 448.395 1085.92 447.552C1085.49 446.71 1085.32 445.816 1085.43 444.928L1095.27 362.605L1082.92 306.693C1080.93 297.759 1081.93 288.637 1085.85 279.998C1089.77 271.36 1096.52 263.425 1105.6 256.779V256.779Z" fill="#05C59A"/>
<path d="M1199.07 227.842C1194.23 229.719 1175.11 230.964 1173.75 227.314L1173.72 227.233C1172.77 224.559 1173.56 221.766 1173.83 219.023C1174.1 216.279 1173.7 213.265 1170.93 211.248C1165.77 207.487 1156.58 209.481 1149.11 208.53C1144.73 207.871 1140.86 206.16 1138.22 203.717C1135.58 201.274 1134.35 198.265 1134.77 195.255C1134.87 194.685 1135.04 194.114 1135.23 193.544C1135.69 192.098 1135.66 190.599 1135.12 189.164C1134.58 187.73 1133.56 186.398 1132.13 185.275C1130.71 184.152 1128.91 183.267 1126.89 182.69C1124.87 182.113 1122.68 181.859 1120.49 181.95C1112.94 182.241 1104.79 183.783 1098.55 180.013C1093.72 177.097 1092.54 169.508 1094.66 165.377C1098.23 158.436 1121.07 154.802 1131.05 152.805C1143.38 150.401 1156.36 149.881 1169.03 151.283C1181.7 152.685 1193.75 155.974 1204.3 160.91C1210.6 163.904 1216.48 167.667 1219.17 172.539C1221.85 177.411 1220.56 183.557 1214.5 186.773C1219.19 190.124 1222.5 194.248 1224.08 198.732C1225.67 203.215 1225.48 207.901 1223.53 212.319C1220.54 218.818 1206.27 225.048 1199.07 227.842Z" fill="#2F2E41"/>
<path d="M477.888 229.65H143.312C139 229.646 134.866 228.489 131.819 226.431C128.771 224.374 127.06 221.585 127.06 218.678C127.06 215.77 128.771 212.981 131.819 210.924C134.866 208.867 139 207.709 143.312 207.706H477.888C482.2 207.709 486.333 208.867 489.381 210.924C492.428 212.981 494.14 215.77 494.14 218.678C494.14 221.585 492.428 224.374 489.381 226.431C486.333 228.489 482.2 229.646 477.888 229.65Z" fill="#D7D7D7"/>
<path d="M684.452 239.007H110.021C109.456 239.007 108.915 238.855 108.516 238.586C108.117 238.317 107.893 237.952 107.893 237.572C107.893 237.191 108.117 236.826 108.516 236.557C108.915 236.288 109.456 236.137 110.021 236.137H684.452C685.016 236.137 685.557 236.288 685.956 236.557C686.355 236.826 686.579 237.191 686.579 237.572C686.579 237.952 686.355 238.317 685.956 238.586C685.557 238.855 685.016 239.007 684.452 239.007Z" fill="#D7D7D7"/>
<path d="M477.888 321.539H310.6H143.312C138.996 321.539 134.858 320.383 131.807 318.325C128.755 316.267 127.041 313.477 127.041 310.567C127.041 307.657 128.755 304.866 131.807 302.809C134.858 300.751 138.996 299.595 143.312 299.595H477.888C482.2 299.598 486.333 300.756 489.381 302.813C492.428 304.87 494.14 307.659 494.14 310.567C494.14 313.475 492.428 316.263 489.381 318.321C486.333 320.378 482.2 321.535 477.888 321.539Z" fill="#D7D7D7"/>
<path d="M684.452 330.896H110.021C109.456 330.896 108.915 330.745 108.516 330.476C108.117 330.206 107.893 329.842 107.893 329.461C107.893 329.081 108.117 328.716 108.516 328.447C108.915 328.178 109.456 328.026 110.021 328.026H684.452C685.016 328.026 685.557 328.178 685.956 328.447C686.355 328.716 686.579 329.081 686.579 329.461C686.579 329.842 686.355 330.206 685.956 330.476C685.557 330.745 685.016 330.896 684.452 330.896Z" fill="#D7D7D7"/>
<path d="M477.888 413.428H143.312C138.996 413.428 134.858 412.272 131.807 410.214C128.755 408.157 127.041 405.366 127.041 402.456C127.041 399.546 128.755 396.755 131.807 394.698C134.858 392.64 138.996 391.484 143.312 391.484H477.888C482.2 391.487 486.333 392.645 489.381 394.702C492.428 396.759 494.14 399.548 494.14 402.456C494.14 405.364 492.428 408.152 489.381 410.21C486.333 412.267 482.2 413.424 477.888 413.428Z" fill="#D7D7D7"/>
<path d="M684.452 422.784H110.021C109.456 422.784 108.915 422.633 108.516 422.364C108.117 422.095 107.893 421.73 107.893 421.35C107.893 420.969 108.117 420.604 108.516 420.335C108.915 420.066 109.456 419.915 110.021 419.915H684.452C685.016 419.915 685.557 420.066 685.956 420.335C686.355 420.604 686.579 420.969 686.579 421.35C686.579 421.73 686.355 422.095 685.956 422.364C685.557 422.633 685.016 422.784 684.452 422.784Z" fill="#D7D7D7"/>
</g>
<defs>
<clipPath id="clip0_1515_3849">
<rect width="1571" height="724" fill="white"/>
</clipPath>
</defs>
</svg>
