<svg width="469" height="421" viewBox="0 0 469 421" fill="none" xmlns="http://www.w3.org/2000/svg">
<g clip-path="url(#clip0_1083_3890)">
<path opacity="0.1" d="M452.998 245.324C452.998 245.642 452.998 245.959 452.998 246.272C452.948 251.748 452.653 257.211 452.115 262.66C452.117 262.693 452.117 262.726 452.115 262.759C452.072 263.211 452.025 263.659 451.978 264.112C451.897 264.877 451.812 265.637 451.718 266.403C450.617 275.717 448.794 284.911 446.271 293.884C442.891 306.009 438.113 317.605 432.053 328.388C430.189 331.685 428.203 334.876 426.096 337.962C424.972 339.596 423.824 341.194 422.639 342.767C421.807 343.867 420.96 344.95 420.097 346.015L419.559 346.671C415.019 352.165 410.125 357.29 404.915 362.007C396.413 369.774 387.258 376.531 377.957 382.799C377.428 383.158 376.894 383.512 376.361 383.84C376.323 383.87 376.284 383.896 376.242 383.918C363.602 392.341 350.494 399.942 336.988 406.028C322.203 412.707 306.936 417.564 291.272 419.688C269.439 422.645 247.342 420.239 225.641 416.106C207.593 412.688 189.764 407.994 172.263 402.05L169.382 401.056C167.889 400.532 166.398 399.998 164.909 399.453C155.912 396.173 147.015 392.529 138.22 388.52C116.129 378.493 95.026 366.006 75.2385 351.252C72.7192 349.385 70.2361 347.476 67.7892 345.526C64.3693 342.812 60.9902 340.018 57.6522 337.144L55.5926 335.385C46.8568 327.846 38.6722 319.562 31.1144 310.61C20.949 298.418 12.2621 284.665 6.5511 268.964C5.65045 266.496 4.82537 263.982 4.07588 261.421L4.00502 261.166C3.62713 259.864 3.27757 258.563 2.95636 257.209C2.48399 255.273 2.06988 253.312 1.71403 251.327C1.63845 250.947 1.57232 250.567 1.51091 250.181C0.381888 243.501 -0.116758 236.709 0.0229393 229.915C0.141082 223.962 0.77377 218.036 1.91242 212.215C3.07786 206.182 4.87383 200.317 7.26438 194.739C9.42472 189.724 12.1773 185.045 15.4506 180.824C17.7507 177.874 20.3374 175.21 23.1644 172.88C28.2896 168.674 33.9722 165.743 39.8627 163.426C42.6308 162.333 45.4367 161.375 48.2567 160.485C50.2548 159.85 52.2624 159.246 54.2605 158.653L60.1557 156.898C63.9347 155.764 67.7136 154.597 71.4359 153.338C81.5824 149.923 91.5258 145.789 100.723 139.625C102.178 138.652 103.661 137.585 105.144 136.44C107.034 134.992 108.895 133.42 110.737 131.723C112.598 130.005 114.422 128.167 116.16 126.221C116.429 125.919 116.694 125.617 116.958 125.31C118.375 123.664 119.75 121.941 121.025 120.151C121.649 119.276 122.254 118.386 122.83 117.48C123.628 116.225 124.384 114.95 125.083 113.638C128.588 107.079 130.752 99.8427 130.496 92.2162C130.459 90.9596 130.357 89.7064 130.189 88.4628C129.575 83.8661 128.985 79.3787 128.55 74.9902C126.727 56.8375 127.497 40.3767 139.859 24.9103C155.23 5.68522 179.354 1.76524 201.314 3.30096C264.806 7.72589 322.605 47.6753 373.399 95.2355C377.792 99.3447 382.131 103.509 386.417 107.729C387.498 108.791 388.579 109.86 389.663 110.936C397.693 118.906 405.6 127.173 412.965 136.028C413.56 136.747 414.155 137.465 414.741 138.189C415.1 138.636 415.463 139.079 415.818 139.532C418.113 142.395 420.341 145.328 422.502 148.33C428.289 156.299 433.399 164.838 437.769 173.838C444.459 187.962 448.989 203.207 451.175 218.957C451.997 224.676 452.537 230.441 452.795 236.224C452.875 237.927 452.927 239.634 452.955 241.337C452.955 241.883 452.955 242.425 452.955 242.971C453.003 243.763 453.003 244.533 452.998 245.324Z" fill="#305B54"/>
<path opacity="0.1" d="M452.998 245.324C452.998 245.642 452.998 245.959 452.998 246.272C452.948 251.748 452.653 257.211 452.115 262.66C452.117 262.693 452.117 262.726 452.115 262.759C452.072 263.211 452.025 263.659 451.978 264.112C451.897 264.877 451.812 265.637 451.718 266.403C450.617 275.717 448.794 284.911 446.271 293.884C442.891 306.009 438.113 317.605 432.053 328.388C430.189 331.685 428.203 334.876 426.096 337.962C424.972 339.596 423.824 341.194 422.639 342.767C421.807 343.867 420.96 344.95 420.097 346.015L419.559 346.671C415.019 352.165 410.125 357.29 404.915 362.007C396.413 369.774 387.258 376.531 377.957 382.799C377.428 383.158 376.894 383.512 376.361 383.84C376.323 383.87 376.284 383.896 376.242 383.918C363.602 392.341 350.494 399.942 336.988 406.028C322.203 412.707 306.936 417.564 291.272 419.688C269.439 422.645 247.342 420.239 225.641 416.106C207.593 412.688 189.764 407.994 172.263 402.05L169.382 401.056C167.889 400.532 166.398 399.998 164.909 399.453C155.912 396.173 147.015 392.529 138.22 388.52C116.129 378.493 95.026 366.006 75.2385 351.252C72.7192 349.385 70.2361 347.476 67.7892 345.526C64.3693 342.812 60.9902 340.018 57.6522 337.144L55.5926 335.385C46.8568 327.846 38.6722 319.562 31.1144 310.61C20.949 298.418 12.2621 284.665 6.5511 268.964C5.65045 266.496 4.82537 263.982 4.07588 261.421L4.00502 261.166C3.62713 259.864 3.27757 258.563 2.95636 257.209C2.48399 255.273 2.06988 253.312 1.71403 251.327C1.63845 250.947 1.57232 250.567 1.51091 250.181C0.381888 243.501 -0.116758 236.709 0.0229393 229.915C0.141082 223.962 0.77377 218.036 1.91242 212.215C3.07786 206.182 4.87383 200.317 7.26438 194.739C9.42472 189.724 12.1773 185.045 15.4506 180.824C17.7507 177.874 20.3374 175.21 23.1644 172.88C28.2896 168.674 33.9722 165.743 39.8627 163.426C42.6308 162.333 45.4367 161.375 48.2567 160.485C50.2548 159.85 52.2624 159.246 54.2605 158.653L60.1557 156.898C63.9347 155.764 67.7136 154.597 71.4359 153.338C81.5824 149.923 91.5258 145.789 100.723 139.625C102.178 138.652 103.661 137.585 105.144 136.44C107.034 134.992 108.895 133.42 110.737 131.723C112.598 130.005 114.422 128.167 116.16 126.221C116.429 125.919 116.694 125.617 116.958 125.31C118.375 123.664 119.75 121.941 121.025 120.151C121.649 119.276 122.254 118.386 122.83 117.48C123.628 116.225 124.384 114.95 125.083 113.638C128.588 107.079 130.752 99.8427 130.496 92.2162C130.459 90.9596 130.357 89.7064 130.189 88.4628C129.575 83.8661 128.985 79.3787 128.55 74.9902C126.727 56.8375 127.497 40.3767 139.859 24.9103C155.23 5.68522 179.354 1.76524 201.314 3.30096C264.806 7.72589 322.605 47.6753 373.399 95.2355C377.792 99.3447 382.131 103.509 386.417 107.729C387.498 108.791 388.579 109.86 389.663 110.936C397.693 118.906 405.6 127.173 412.965 136.028C413.56 136.747 414.155 137.465 414.741 138.189C415.1 138.636 415.463 139.079 415.818 139.532C418.113 142.395 420.341 145.328 422.502 148.33C428.289 156.299 433.399 164.838 437.769 173.838C444.459 187.962 448.989 203.207 451.175 218.957C451.997 224.676 452.537 230.441 452.795 236.224C452.875 237.927 452.927 239.634 452.955 241.337C452.955 241.883 452.955 242.425 452.955 242.971C453.003 243.763 453.003 244.533 452.998 245.324Z" fill="#305B54"/>
<path d="M187.993 235.258L180.359 384.564L187.993 384.674L194.196 233.161L187.993 235.258Z" fill="#3F3D56"/>
<path d="M159.84 310.904H65.3619V333.448H159.84V310.904Z" fill="#3F3D56"/>
<path d="M166.044 330.821V344.976H68.4492C64.9945 342.243 61.5812 339.43 58.2092 336.536V330.821H166.044Z" fill="#3F3D56"/>
<path d="M185.531 298.605C185.264 299.963 184.915 301.305 184.548 302.642C183.465 306.506 182.162 310.317 181.909 314.333C181.571 319.639 182.864 325.809 179.523 329.663C178.665 330.659 177.543 331.403 176.775 332.468C176.657 332.634 176.548 332.81 176.451 332.992C175.763 334.24 175.682 335.76 175.673 337.186C175.681 340.227 175.861 343.265 176.212 346.282C177.343 356.662 179.576 367.064 176.641 376.862C176.11 378.562 175.49 380.226 174.785 381.848C173.354 385.308 171.793 388.721 171.326 392.47C170.982 395.248 171.087 398.111 171.068 400.936C169.56 400.409 168.054 399.87 166.549 399.322C157.461 396.019 148.474 392.349 139.59 388.312C139.613 388.171 139.637 388.024 139.656 387.882C140.339 383.216 139.404 378.445 138.268 373.895C135.882 364.254 132.504 354.707 130.504 344.997C129.699 341.205 129.171 337.348 128.925 333.464C128.868 332.593 128.834 331.718 128.83 330.842C128.806 329.699 128.83 328.556 128.873 327.403C128.973 325.102 129.063 322.37 127.389 320.97C126.468 320.21 125.251 320.079 124.177 319.618C122.106 318.732 120.689 316.677 119.048 315.03C118.265 314.196 117.309 313.583 116.262 313.245C115.215 312.907 114.11 312.854 113.04 313.091C102.314 315.791 94.4308 325.788 84.4485 330.842C84.062 331.042 83.6755 331.23 83.2842 331.409C81.993 331.928 80.764 332.618 79.6244 333.464C78.8236 334.074 78.2428 334.974 77.9829 336.006C77.73 337.118 77.9495 338.282 78.0736 339.424C78.2744 341.283 78.2019 343.164 77.8589 344.997C77.7295 345.708 77.5589 346.408 77.3483 347.094C76.9666 348.337 76.456 349.553 75.9693 350.764C73.4244 348.884 70.9161 346.962 68.4444 344.997C64.9898 342.264 61.5764 339.451 58.2045 336.557L56.1574 334.748C47.333 327.156 39.0653 318.814 31.4308 309.798C32.4471 306.653 33.9168 303.727 34.623 300.503C35.0238 298.652 35.1718 296.728 35.7253 294.93C36.3636 293.066 37.2513 291.317 38.3592 289.74C42.4168 283.523 47.3713 278.076 53.0272 273.614C58.9393 268.958 65.7675 265.225 71.0879 259.941C73.247 257.864 75.1083 255.441 76.6087 252.753C76.6994 252.591 76.7853 252.418 76.8616 252.229C77.2769 251.28 77.5646 250.27 77.7157 249.23C78.0975 246.881 78.0402 244.302 78.2311 242.048C84.7123 243.28 91.3197 243.499 97.8568 242.698C105.468 241.759 112.911 239.437 120.522 238.535C121.095 238.462 121.672 238.404 122.249 238.352C124.688 238.137 127.131 238.089 129.579 238.121C131.626 238.121 133.673 238.22 135.72 238.294L158.256 239.133C160.752 239.227 163.3 239.332 165.624 240.333C168.382 241.523 170.591 243.893 172.361 246.499C172.586 246.834 172.81 247.17 173.02 247.516C174.476 249.85 175.645 252.387 176.493 255.06C176.584 255.332 176.67 255.584 176.751 255.883C176.966 256.612 177.152 257.346 177.319 258.09C177.448 258.672 177.562 259.254 177.667 259.841C178.192 262.746 178.502 265.713 179.333 268.518C179.39 268.722 179.452 268.927 179.519 269.126C180.516 272.198 182.172 274.95 183.422 277.902C184.323 280.039 185.011 282.276 185.474 284.576C186.408 289.194 186.428 293.978 185.531 298.605Z" fill="#35323E"/>
<path d="M117.029 110.987C115.016 109.225 112.095 110.515 109.738 111.653C107.762 112.612 105.727 113.419 103.65 114.069C103.224 114.249 102.763 114.302 102.314 114.221C101.359 113.97 100.958 112.727 100.247 111.972C99.0115 110.667 96.9884 110.976 95.3946 111.684C93.8009 112.392 92.2263 113.414 90.518 113.257C88.6952 113.1 87.1111 111.621 85.2692 111.574C82.0245 111.49 79.2999 115.883 76.2317 114.719C74.3612 114.012 72.8916 111.338 71.0497 112.098C69.6182 112.696 69.4894 114.872 68.6257 116.292C67.6094 117.949 65.6291 118.416 63.9352 119.15C58.5957 121.467 55.0599 128.004 55.7566 134.264C56.1431 137.719 57.6653 140.886 58.6721 144.183C61.6591 153.772 60.6332 164.588 64.398 173.836C64.8752 173.343 65.1424 173.159 65.6053 172.672C64.4149 175.384 64.1853 178.486 64.9611 181.374C65.3571 182.827 66.0013 184.179 66.488 185.6C66.9936 187.194 67.4017 188.822 67.7096 190.476L71.8609 210.597C73.4832 218.461 75.1104 226.325 75.3919 234.378C75.5672 239.614 75.2022 244.855 74.304 250.001C81.8241 248.632 88.7048 244.968 96.3251 245.015C99.1213 245.015 101.894 245.539 104.666 245.959C112.749 247.201 120.902 247.809 129.063 247.778C130.333 247.857 131.604 247.661 132.804 247.201C133.854 246.708 134.713 245.833 135.705 245.198C137.648 243.94 140 243.626 142.238 243.626C152.444 243.421 162.279 247.526 172.418 248.973C176.422 239.741 176.66 228.679 173.588 219.027C172.676 216.159 171.45 213.365 171.087 210.351C170.942 208.497 170.903 206.636 170.973 204.778C170.957 200.02 170.177 195.302 168.668 190.843C168.076 189.097 167.365 187.32 167.427 185.458C167.489 183.597 168.324 181.862 169.145 180.216C170.81 176.861 172.485 173.474 174.838 170.643C177.247 167.717 180.263 165.489 183.245 163.303L190.608 157.872C189.601 150.883 188.303 143.523 185.607 137.095C182.911 130.668 178.879 124.759 173.425 121C171.586 119.785 169.662 118.733 167.671 117.855C164.884 116.565 161.983 115.427 158.962 115.233C155.527 115.018 152.144 116.03 148.751 116.659C138.072 118.636 125.504 118.395 117.029 110.987Z" fill="#525289"/>
<path d="M197.537 232.26L194.034 237.12L187.43 246.278L179.796 256.863L177.663 259.82H173.526L71.0832 259.951L6.92843 260.03H4.06545C3.68372 258.719 3.33061 257.409 3.00614 256.045C2.52898 254.095 2.11067 252.12 1.7512 250.121C1.67486 249.739 1.60805 249.356 1.54602 248.968L24.8221 232.249L33.5733 232.197L60.3422 232.029L75.2918 231.935H78.0211H79.7342L89.6974 231.877L165.633 231.4L169.517 231.374H171.202L175.663 231.347L192.264 231.243L195.451 229.911L195.685 230.184L197.537 232.26Z" fill="#3F3D56"/>
<path d="M196.105 229.638L195.709 230.163L193.104 233.534L187.74 240.491L176.494 255.06L76.8617 252.265L1.73215 250.168C1.65581 249.786 1.589 249.403 1.52697 249.015C0.386496 242.287 -0.11721 235.447 0.0239045 228.605L8.35519 223.919L10.2638 222.839L25.118 214.45L38.1541 207.111L72.1568 211.965L79.6865 213.04L83.0934 213.522L88.0798 214.235L88.4997 214.298L166.693 225.439L175.334 226.671L180.406 227.394L196.038 229.628L196.105 229.638Z" fill="#939393"/>
<path d="M179.881 254.803L179.8 256.863L179.323 268.497L176.756 332.457L176.212 346.282L174.781 381.848L173.974 401.938L171.063 400.936C169.556 400.409 168.049 399.87 166.545 399.322L173.526 259.867L173.674 256.942L176.746 255.893L179.881 254.803Z" fill="#3F3D56"/>
<path d="M7.14793 254.651L6.93321 260.035L6.61828 267.899C5.70849 265.414 4.87504 262.882 4.11794 260.302L4.04637 260.046C3.66463 258.735 3.31153 257.424 2.98706 256.061L7.14793 254.651Z" fill="#3F3D56"/>
<path d="M131.926 175.382C144.049 175.382 153.876 160.829 153.876 142.878C153.876 124.926 144.049 110.373 131.926 110.373C119.804 110.373 109.977 124.926 109.977 142.878C109.977 160.829 119.804 175.382 131.926 175.382Z" fill="#FBBEBE"/>
<path opacity="0.1" d="M131.926 175.382C144.049 175.382 153.876 160.829 153.876 142.878C153.876 124.926 144.049 110.373 131.926 110.373C119.804 110.373 109.977 124.926 109.977 142.878C109.977 160.829 119.804 175.382 131.926 175.382Z" fill="black"/>
<path d="M135.028 156.771C151.894 156.771 165.566 141.749 165.566 123.218C165.566 104.687 151.894 89.6649 135.028 89.6649C118.162 89.6649 104.489 104.687 104.489 123.218C104.489 141.749 118.162 156.771 135.028 156.771Z" fill="#FBBEBE"/>
<path d="M135.634 71.5044C133.77 71.6677 131.918 71.9778 130.094 72.4323C125.265 73.722 121.09 76.5845 117.025 79.3946C115.202 80.658 113.327 81.974 112.196 83.8298C110.163 87.1589 110.95 91.395 109.81 95.091C109.218 96.9889 108.13 98.6927 107.209 100.46C104.676 105.304 103.349 110.625 102.046 115.894C101.779 116.984 101.703 118.463 102.786 118.882C103.41 119.025 104.059 118.944 104.637 118.651C108.059 117.409 112.406 117.052 114.944 119.574C117.483 122.096 117.268 126.568 120.288 128.487C123.748 130.704 129.149 128.025 132.289 130.641C133.635 131.763 134.121 133.562 135.224 134.914C137.791 138.06 142.729 137.908 146.838 137.273C149.195 136.906 152.087 136.66 153.518 138.479C154.205 139.339 154.401 140.519 155.198 141.294C156.629 142.699 159.249 141.986 160.647 140.545C162.045 139.103 162.713 137.153 163.877 135.533C166.144 132.387 170.128 130.673 172.466 127.564C174.423 124.943 175.014 121.661 175.549 118.494L177.539 106.756C178.345 101.996 179.08 96.7949 176.641 92.6008C175.773 91.0909 174.528 89.7907 173.778 88.2284C173.277 87.1799 172.996 86.0737 172.414 85.0828C171.723 84.0506 170.899 83.1356 169.966 82.3672L165.256 78.0839C163.646 76.5353 161.924 75.1327 160.108 73.8898C153.384 69.5856 143.316 70.718 135.634 71.5044Z" fill="#464353"/>
<path d="M35.0478 157.935C33.9169 159.256 32.8719 160.682 31.6599 161.919C30.5937 162.961 29.4788 163.941 28.3197 164.855C26.4493 166.393 24.6201 167.985 22.8324 169.631C20.9672 171.251 19.2795 173.104 17.8031 175.152C15.255 178.911 14.0478 183.587 11.6619 187.472C9.55288 190.916 6.58015 193.637 4.43768 197.055C3.49777 198.492 2.79964 200.103 2.37633 201.81C2.06035 203.463 1.91786 205.15 1.95165 206.838C1.90871 209.606 1.87054 212.406 2.38587 215.116C2.90121 217.827 4.03209 220.49 5.96938 222.267C7.76828 223.919 10.0921 224.679 12.3682 225.308C13.542 225.628 14.8112 225.927 15.9278 225.418C16.7448 224.965 17.454 224.307 17.9987 223.499L23.8058 216.16C27.6899 211.231 31.7267 206.198 37.0566 203.315C38.7267 202.419 40.4874 201.742 42.1623 200.872C49.2625 197.113 54.2823 189.417 56.2291 181.029C56.7063 178.979 57.0116 176.887 57.3218 174.795L58.1616 169.06C58.2261 168.772 58.2261 168.472 58.1616 168.184C58.0301 167.861 57.8184 167.585 57.5508 167.387C53.506 163.798 49.7188 159.872 46.223 155.644C45.3927 154.637 44.6149 153.258 43.6558 152.414C42.4534 151.366 42.544 151.444 41.0982 152.414C38.8741 153.961 36.8406 155.817 35.0478 157.935Z" fill="#FBBEBE"/>
<path d="M74.7716 196.101C74.7233 195.979 74.6532 195.87 74.5653 195.778C74.4774 195.687 74.3737 195.616 74.2603 195.57C74.1469 195.524 74.0262 195.504 73.9054 195.51C73.7847 195.517 73.6664 195.55 73.5576 195.608C73.4488 195.666 73.3519 195.748 73.2725 195.848C73.1932 195.948 73.133 196.065 73.0958 196.191C73.0585 196.317 73.0449 196.451 73.0558 196.583C73.0666 196.715 73.1016 196.844 73.1588 196.961L72.6816 197.218L86.9107 229.261L89.4826 227.882L75.2536 195.818L74.7716 196.101Z" fill="#3F3D56"/>
<path opacity="0.04" d="M35.0478 157.935C33.9169 159.256 32.8719 160.682 31.6599 161.919C30.5937 162.961 29.4788 163.941 28.3197 164.855C26.4493 166.393 24.6201 167.985 22.8324 169.631C20.9672 171.251 19.2795 173.104 17.8031 175.152C15.255 178.911 14.0478 183.587 11.6619 187.472C9.55288 190.916 6.58015 193.637 4.43768 197.055C3.49777 198.492 2.79964 200.103 2.37633 201.81C2.06035 203.463 1.91786 205.15 1.95165 206.838C1.90871 209.606 1.87054 212.406 2.38587 215.116C2.90121 217.827 4.03209 220.49 5.96938 222.267C7.76828 223.919 10.0921 224.679 12.3682 225.308C13.542 225.628 14.8112 225.927 15.9278 225.418C16.7448 224.965 17.454 224.307 17.9987 223.499L23.8058 216.16C27.6899 211.231 31.7267 206.198 37.0566 203.315C38.7267 202.419 40.4874 201.742 42.1623 200.872C49.2625 197.113 54.2823 189.417 56.2291 181.029C56.7063 178.979 57.0116 176.887 57.3218 174.795L58.1616 169.06C58.2261 168.772 58.2261 168.472 58.1616 168.184C58.0301 167.861 57.8184 167.585 57.5508 167.387C53.506 163.798 49.7188 159.872 46.223 155.644C45.3927 154.637 44.6149 153.258 43.6558 152.414C42.4534 151.366 42.544 151.444 41.0982 152.414C38.8741 153.961 36.8406 155.817 35.0478 157.935Z" fill="black"/>
<path d="M199.545 216.988C199.498 220.333 199.378 223.777 198.114 226.828C197.57 228.149 196.725 229.45 195.461 229.885C194.696 230.079 193.904 230.111 193.127 229.979C183.766 229.075 174.333 229.897 165.218 232.412C167.652 227.064 166.254 220.652 166.926 214.718C167.113 213.098 167.451 211.504 167.58 209.879C168.057 204.112 165.81 198.513 164.779 192.819C163.884 187.891 163.884 182.817 164.779 177.888C164.955 176.62 165.352 175.4 165.948 174.297C166.647 173.224 167.566 172.345 168.63 171.733C172.495 169.316 177.052 169.039 181.394 169.358C184.319 169.573 190.183 169.269 192.622 171.246C195.289 173.411 196.134 180.682 196.854 184.043C197.933 189.197 198.667 194.431 199.049 199.703C199.517 205.449 199.617 211.221 199.545 216.988Z" fill="#FBBEBE"/>
<path d="M28.6204 228.595L45.7983 241.177L123.099 238.032L72.0423 228.595H28.6204Z" fill="white"/>
<path d="M51.2713 128.623C48.4513 131.354 46.0607 134.573 43.3886 137.483C39.7239 141.478 35.5583 144.875 31.4117 148.257C32.8985 148.713 34.2518 149.586 35.3392 150.79C36.4266 151.994 37.2107 153.488 37.6149 155.125C37.7962 155.895 37.8869 156.697 38.092 157.452C38.5692 159.24 39.619 160.781 40.7451 162.171C45.5835 168.163 52.3545 172.598 55.2079 179.996C55.301 180.356 55.503 180.67 55.7805 180.887C56.0127 181 56.2706 181.033 56.5201 180.981C59.1016 180.682 61.0771 178.397 62.7233 176.174C66.1589 171.455 69.1411 166.244 70.8351 160.488C72.529 154.731 72.801 148.367 70.9544 142.663C70.0334 139.821 68.6115 137.21 67.1991 134.626C65.9616 132.365 64.7274 130.107 63.4963 127.852C62.8521 126.662 62.0314 124.245 60.7669 123.658C58.0375 122.369 53.0225 126.699 51.2713 128.623Z" fill="#525289"/>
<path d="M191.815 162.506L195.876 172.991C191.455 171.294 186.731 170.778 182.093 171.484C177.454 172.191 173.036 174.1 169.202 177.055C166.888 178.874 164.765 181.16 163.72 184.064C163.204 184.172 162.671 184.117 162.182 183.907C161.693 183.696 161.269 183.338 160.957 182.874C160.346 181.933 159.992 180.82 159.936 179.665C159.559 175.639 160.947 171.691 162.322 167.927C162.961 166.166 163.62 164.367 164.755 162.936C165.891 161.505 167.399 160.561 168.907 159.67C173.717 156.747 178.755 154.301 183.961 152.362C186.156 151.581 188.456 151.596 189.687 153.851C191.114 156.54 190.699 159.644 191.815 162.506Z" fill="#525289"/>
<path d="M28.7206 193.967C29.7369 194.859 30.6292 195.912 31.6742 196.762C32.7794 197.605 33.9554 198.33 35.1861 198.927L39.891 201.412C41.3489 202.244 42.8746 202.925 44.4479 203.446C46.4615 204.038 48.5754 204.096 50.5985 204.647C53.1514 205.339 55.4847 206.78 57.9994 207.614C60.514 208.447 63.4581 208.584 65.5577 206.848C66.8699 205.763 67.8624 203.97 69.4895 203.703C70.5392 203.551 71.5508 204.107 72.4861 204.647L84.7301 211.719C86.3811 212.673 88.1275 213.732 88.9912 215.551C89.8549 217.37 89.2727 220.133 87.4547 220.605C86.8211 220.685 86.1838 220.725 85.5461 220.726C84.9162 220.81 84.2291 221.219 84.1432 221.916C84.14 222.349 84.2439 222.775 84.4438 223.148C84.9925 224.532 85.1548 226.189 84.5154 227.531C83.876 228.873 82.3061 229.706 81.0512 229.103C81.2659 231.132 79.257 232.553 77.4677 233.093C72.9537 234.451 68.1677 233.617 63.5536 232.758C61.7403 232.422 59.8985 232.076 58.2475 231.185C57.4554 230.76 56.7206 230.215 55.9189 229.822C53.7192 228.747 51.2189 228.889 48.814 228.936C37.6913 229.151 26.664 226.886 15.7274 224.632C13.6994 224.212 11.6142 223.766 9.88213 222.534C6.54198 220.144 5.30135 215.237 5.85009 210.896C6.39883 206.555 8.40292 202.623 10.3736 198.806L12.9264 193.862C13.2602 193.105 13.7272 192.428 14.3007 191.87C18.056 188.719 25.5045 191.126 28.7206 193.967Z" fill="#FBBEBE"/>
<path opacity="0.04" d="M28.7206 193.967C29.7369 194.859 30.6292 195.912 31.6742 196.762C32.7794 197.605 33.9554 198.33 35.1861 198.927L39.891 201.412C41.3489 202.244 42.8746 202.925 44.4479 203.446C46.4615 204.038 48.5754 204.096 50.5985 204.647C53.1514 205.339 55.4847 206.78 57.9994 207.614C60.514 208.447 63.4581 208.584 65.5577 206.848C66.8699 205.763 67.8624 203.97 69.4895 203.703C70.5392 203.551 71.5508 204.107 72.4861 204.647L84.7301 211.719C86.3811 212.673 88.1275 213.732 88.9912 215.551C89.8549 217.37 89.2727 220.133 87.4547 220.605C86.8211 220.685 86.1838 220.725 85.5461 220.726C84.9162 220.81 84.2291 221.219 84.1432 221.916C84.14 222.349 84.2439 222.775 84.4438 223.148C84.9925 224.532 85.1548 226.189 84.5154 227.531C83.876 228.873 82.3061 229.706 81.0512 229.103C81.2659 231.132 79.257 232.553 77.4677 233.093C72.9537 234.451 68.1677 233.617 63.5536 232.758C61.7403 232.422 59.8985 232.076 58.2475 231.185C57.4554 230.76 56.7206 230.215 55.9189 229.822C53.7192 228.747 51.2189 228.889 48.814 228.936C37.6913 229.151 26.664 226.886 15.7274 224.632C13.6994 224.212 11.6142 223.766 9.88213 222.534C6.54198 220.144 5.30135 215.237 5.85009 210.896C6.39883 206.555 8.40292 202.623 10.3736 198.806L12.9264 193.862C13.2602 193.105 13.7272 192.428 14.3007 191.87C18.056 188.719 25.5045 191.126 28.7206 193.967Z" fill="black"/>
<path d="M174.38 203.027C171.894 204.316 169.04 204.442 166.444 205.433C163.849 206.424 161.644 208.206 159.263 209.659C153.06 213.465 145.903 214.901 138.874 216.269C134.613 217.108 130.285 217.947 125.99 217.748C120.179 217.475 114.596 215.347 108.965 213.743C103.335 212.138 97.3272 211.058 91.7491 212.862C88.8363 213.836 86.1735 215.551 83.9765 217.867C81.7796 220.184 80.1104 223.036 79.1043 226.194C77.9352 229.963 77.773 234.026 77.9973 238C79.1711 238.949 80.8125 237.633 81.4519 236.192C82.0913 234.75 82.4397 232.983 83.6803 232.144C85.8323 232.946 86.3572 236.097 88.1322 237.654C89.2392 238.629 90.7184 238.886 92.1261 239.106L99.379 240.239C101.125 240.511 103.153 240.695 104.418 239.342C105.033 238.687 105.372 237.77 105.935 237.067C107.09 235.662 109.018 235.421 110.735 235.61C116.099 236.197 121.128 240.019 126.453 239.112C128.286 238.802 129.989 237.943 131.735 237.266C142.085 233.25 153.585 235.693 164.354 233.392C168.463 232.516 172.419 230.965 176.326 229.329C178.45 228.443 180.597 227.515 182.41 226.016C184.128 224.564 185.483 222.658 186.347 220.475C187.212 218.292 187.558 215.903 187.354 213.533C186.954 209.921 185.314 206.612 182.768 204.285C181.928 203.498 180.826 201.994 179.819 201.501C177.896 200.573 176.012 202.182 174.38 203.027Z" fill="#FBBEBE"/>
<g opacity="0.1">
<path opacity="0.1" d="M160.437 136.052C159.64 135.276 159.444 134.096 158.757 133.237C157.326 131.417 154.434 131.664 152.077 132.031C147.969 132.665 143.011 132.812 140.463 129.672C139.361 128.319 138.874 126.526 137.528 125.399C134.389 122.777 128.987 125.462 125.528 123.244C122.507 121.31 122.703 116.822 120.183 114.332C117.664 111.841 113.298 112.166 109.877 113.409C109.298 113.701 108.649 113.782 108.025 113.64C106.942 113.22 107.018 111.742 107.286 110.651C108.588 105.382 109.915 100.061 112.448 95.2169C113.369 93.4501 114.457 91.7462 115.049 89.8484C116.084 86.5246 115.555 82.7656 116.915 79.62C115.455 80.6685 114.052 81.8114 113.15 83.2898C111.117 86.6189 111.905 90.855 110.764 94.551C110.172 96.4489 109.084 98.1527 108.164 99.9195C105.63 104.764 104.303 110.085 103.001 115.354C102.733 116.444 102.657 117.923 103.74 118.342C104.364 118.485 105.013 118.404 105.592 118.111C109.013 116.869 113.36 116.512 115.898 119.034C118.437 121.556 118.222 126.028 121.243 127.947C124.702 130.164 130.104 127.485 133.243 130.101C134.589 131.223 135.076 133.022 136.178 134.374C138.745 137.52 143.684 137.368 147.792 136.733C150.149 136.366 153.041 136.12 154.472 137.939C155.159 138.799 155.355 139.979 156.152 140.754C157.583 142.16 160.203 141.447 161.601 140.005C162.498 138.979 163.265 137.826 163.882 136.576C162.641 136.99 161.32 136.927 160.437 136.052Z" fill="black"/>
<path opacity="0.1" d="M169.131 130.285C168.824 130.72 168.538 131.173 168.277 131.643C170.109 130.206 172.051 128.864 173.421 127.034C173.776 126.561 174.095 126.056 174.375 125.525C172.471 127.024 170.486 128.403 169.131 130.285Z" fill="black"/>
</g>
<path d="M265.532 234.1L266.964 384.564L273.644 383.515L272.213 234.1H265.532Z" fill="#3F3D56"/>
<path d="M305.614 261.362L307.046 411.825L313.726 410.777L312.294 261.362H305.614Z" fill="#3F3D56"/>
<path d="M430.407 337.369L430.378 334.481V332.761L430.125 306.296L429.729 264.921L429.663 261.351H422.982L423.016 264.79L423.226 286.951L423.316 296.545L423.393 304.315L423.517 317.746L423.593 325.668V326.507L423.693 336.919L423.779 346.098L424.323 345.438C425.198 344.365 426.054 343.274 426.89 342.166L430.407 337.369Z" fill="#3F3D56"/>
<path d="M298.218 285.74L294.401 292.01L298.218 320.577L330.665 330.334H383.153L414.646 332.425L429.648 321.143L427.052 301.766L415.601 285.74H298.218Z" fill="#3F3D56"/>
<path d="M294.401 292.01L292.492 309.426C292.492 309.426 282.472 343.571 363.113 341.48C443.753 339.388 429.916 332.42 429.916 332.42L429.438 312.215C429.438 312.215 432.249 321.778 391.265 320.483C350.282 319.188 312.056 315.004 312.056 315.004C312.056 315.004 297.741 317.788 294.401 292.01Z" fill="#3F3D56"/>
<path d="M361.586 135.905C356.986 138.207 353.502 142.668 351.169 147.601C348.836 152.535 347.523 157.95 346.23 163.329C344.866 169.002 343.496 174.69 342.79 180.504C341.53 190.843 342.475 201.711 346.798 210.995C351.121 220.28 359.109 227.772 368.461 229.56C372.074 230.257 375.786 230.115 379.436 229.701C386.034 228.934 392.534 227.36 398.814 225.009C405.375 222.571 412.203 218.817 415.123 211.902C416.817 207.892 416.96 203.32 416.879 198.906C416.654 186.875 415 174.927 411.96 163.366C411.077 160.011 410.051 156.629 408.181 153.803C406.31 150.978 403.753 148.907 401.142 146.988C389.982 138.731 375.314 129.048 361.586 135.905Z" fill="#FBBEBE"/>
<path opacity="0.05" d="M361.586 135.905C356.986 138.207 353.502 142.668 351.169 147.601C348.836 152.535 347.523 157.95 346.23 163.329C344.866 169.002 343.496 174.69 342.79 180.504C341.53 190.843 342.475 201.711 346.798 210.995C351.121 220.28 359.109 227.772 368.461 229.56C372.074 230.257 375.786 230.115 379.436 229.701C386.034 228.934 392.534 227.36 398.814 225.009C405.375 222.571 412.203 218.817 415.123 211.902C416.817 207.892 416.96 203.32 416.879 198.906C416.654 186.875 415 174.927 411.96 163.366C411.077 160.011 410.051 156.629 408.181 153.803C406.31 150.978 403.753 148.907 401.142 146.988C389.982 138.731 375.314 129.048 361.586 135.905Z" fill="black"/>
<path d="M356.418 201.894C357.749 203.905 359.359 205.674 361.19 207.137C365.732 210.587 371.563 211.053 377.079 211.242C381.507 211.389 386.584 211.111 389.361 207.315C390.611 205.606 391.175 203.425 391.68 201.302C394.802 188.264 397.019 174.985 398.313 161.578L410.948 161.625C416.417 187.351 415.968 214.094 415.491 240.512L414.799 279.034L406.659 278.086C387.329 275.836 367.97 273.587 348.535 273.199C337.148 272.969 325.757 273.382 314.408 274.437L332.135 216.526C334.435 208.998 336.759 201.37 337.298 193.459C338.076 181.983 335.146 169.867 339.207 159.251C339.531 158.396 339.941 157.51 340.681 157.064C341.421 156.619 342.356 156.729 343.205 156.849C344.808 157.085 349.709 156.849 350.873 157.977C352.591 159.612 351.455 159.859 350.849 162.496C349.766 167.214 348.74 171.581 348.755 176.499C348.769 185.427 351.288 194.853 356.418 201.894Z" fill="white"/>
<path d="M430.407 337.369C432.535 334.266 434.541 331.052 436.424 327.728C435.47 325.484 434.42 323.293 433.585 321.002C432.306 317.489 431.571 313.767 430.846 310.071C430.598 308.813 430.351 307.554 430.106 306.296C427.434 292.608 424.924 278.725 424.404 264.848C424.357 263.694 424.326 262.541 424.314 261.388C424.314 261.22 424.314 261.057 424.314 260.863C424.314 259.6 424.314 258.336 424.314 257.078C424.371 253.933 424.552 250.761 424.881 247.605C424.943 246.986 425.015 246.368 425.091 245.749C425.091 245.613 425.12 245.482 425.139 245.345L457.586 244.045L460.316 243.935C462.191 243.862 464.176 243.746 465.722 242.577C468.322 240.616 468.628 236.595 468.585 233.14C468.427 224.408 467.526 215.711 465.894 207.163C464.663 200.736 462.907 194.167 458.965 189.228C455.73 185.17 451.044 182.219 449.36 177.17C448.735 175.293 448.577 173.233 447.766 171.44C446.955 169.647 445.614 168.331 444.35 166.947C439.899 162.102 436.208 156.483 433.423 150.317C431.49 146.039 429.395 141.321 426.871 138.364C426.747 138.212 426.623 138.07 426.494 137.934C424.347 135.601 421.89 134.579 418.979 136.167C418.455 136.456 417.957 136.796 417.49 137.184C416.453 138.055 415.504 139.046 414.661 140.141C411.72 143.855 409.141 147.897 406.964 152.199C405.433 155.228 404.119 158.383 403.032 161.636C402.174 164.206 401.465 166.832 400.909 169.5C400.498 171.476 400.174 173.474 399.916 175.477C398.962 183.005 398.962 190.68 399.095 198.303C399.239 205.307 399.52 212.327 400.097 219.305C400.241 220.993 400.4 222.68 400.575 224.364C400.925 227.695 401.357 231.015 401.873 234.325C402.078 235.589 402.288 236.852 402.521 238.11C402.579 238.446 402.641 238.781 402.703 239.112L402.731 239.253C403.362 242.178 403.851 245.137 404.196 248.119C404.235 248.493 404.263 248.865 404.282 249.235C404.363 250.949 404.35 252.666 404.244 254.378C404.134 256.402 403.963 258.42 403.877 260.444C403.877 260.801 403.877 261.152 403.843 261.493C403.819 262.515 403.843 263.537 403.843 264.56C403.94 267.005 404.205 269.44 404.635 271.842C405.44 276.309 406.83 280.625 408.763 284.655C408.944 285.032 409.13 285.404 409.316 285.771C411.736 290.521 414.789 294.878 417.027 299.738C418.958 304.111 420.4 308.725 421.322 313.479C421.64 315.048 421.942 316.621 422.228 318.197C422.672 320.713 423.068 323.251 423.474 325.788C423.512 326.04 423.555 326.313 423.598 326.543C424.137 329.909 424.705 333.259 425.435 336.546C425.86 338.46 426.337 340.347 426.895 342.203L430.407 337.369Z" fill="#525289"/>
<path d="M424.032 296.047C424.032 296.519 424.003 296.99 423.984 297.468C423.899 299.768 423.707 302.062 423.407 304.341C423.012 307.451 422.319 310.507 421.341 313.458C420.692 315.398 419.868 317.262 418.879 319.02C418.002 320.582 416.975 322.035 415.815 323.356C412.952 326.627 408.83 327.67 404.841 329.049C403.005 329.633 401.231 330.429 399.549 331.424C399.248 331.608 398.952 331.807 398.666 332.017L393.675 335.65C392.119 336.777 390.53 337.946 389.462 339.618C389.286 339.903 389.127 340.199 388.984 340.504C388.309 342.044 387.815 343.672 387.515 345.349C384.919 357.228 382.318 369.119 380.539 381.177C380.419 381.974 380.305 382.776 380.181 383.578L380.138 383.83C380.116 383.77 380.091 383.712 380.061 383.657C367.292 392.139 354.051 399.793 340.409 405.922L337.446 378.66C337.137 376.444 337.035 374.199 337.14 371.96C337.422 368.432 338.729 365.087 339.083 361.569C339.417 358.125 338.825 354.649 337.379 351.572C336.816 350.376 336.11 349.202 335.981 347.865C335.852 346.528 336.554 345.307 337.775 345.17C338.729 344.007 338.806 342.418 338.524 340.845C338.375 340.024 338.151 339.222 337.856 338.449C337.045 336.258 336.019 333.872 336.716 331.634C336.9 331.228 336.982 330.776 336.954 330.323C336.959 330.296 336.959 330.267 336.954 330.239C336.792 329.652 336.158 329.395 335.828 328.897C335.208 327.969 335.828 326.706 336.21 325.636C336.581 324.487 336.797 323.284 336.849 322.066C336.902 321.39 336.94 320.708 337.007 320.037C337.1 319.129 337.248 318.229 337.451 317.342C338.61 312.32 341.397 307.936 345.29 305.012C347.147 303.638 349.213 302.637 351.107 301.342C353.048 299.905 354.9 298.328 356.652 296.623C360.854 292.779 365.223 289.154 369.759 285.75C374.637 282.09 379.69 278.72 384.895 275.653C386.008 274.992 387.122 274.349 388.235 273.724C389.447 273.025 390.667 272.362 391.895 271.737C395.827 269.676 400.288 270.447 404.635 271.821C406.458 272.392 408.257 273.074 409.994 273.692C411.69 274.298 413.322 275.103 414.861 276.093C418.712 278.578 421.894 282.248 423.216 286.883C423.218 286.912 423.218 286.942 423.216 286.972C424.056 289.876 424.108 292.99 424.032 296.047Z" fill="#2A9D8F"/>
<path opacity="0.1" d="M424.032 296.047C424.032 296.519 424.003 296.99 423.984 297.468C423.899 299.768 423.707 302.062 423.407 304.341C423.012 307.451 422.319 310.507 421.341 313.458C420.692 315.398 419.868 317.262 418.879 319.02C418.002 320.582 416.975 322.035 415.815 323.356C412.952 326.627 408.83 327.67 404.841 329.049C403.005 329.633 401.231 330.429 399.549 331.424C399.248 331.608 398.952 331.807 398.666 332.017L393.675 335.65C392.119 336.777 390.53 337.946 389.462 339.618C389.286 339.903 389.127 340.199 388.984 340.504C388.309 342.044 387.815 343.672 387.515 345.349C384.919 357.228 382.318 369.119 380.539 381.177C380.419 381.974 380.305 382.776 380.181 383.578L380.138 383.83C380.116 383.77 380.091 383.712 380.061 383.657C367.292 392.139 354.051 399.793 340.409 405.922L337.446 378.66C337.137 376.444 337.035 374.199 337.14 371.96C337.422 368.432 338.729 365.087 339.083 361.569C339.417 358.125 338.825 354.649 337.379 351.572C336.816 350.376 336.11 349.202 335.981 347.865C335.852 346.528 336.554 345.307 337.775 345.17C338.729 344.007 338.806 342.418 338.524 340.845C338.375 340.024 338.151 339.222 337.856 338.449C337.045 336.258 336.019 333.872 336.716 331.634C336.9 331.228 336.982 330.776 336.954 330.323C336.959 330.296 336.959 330.267 336.954 330.239C336.792 329.652 336.158 329.395 335.828 328.897C335.208 327.969 335.828 326.706 336.21 325.636C336.581 324.487 336.797 323.284 336.849 322.066C336.902 321.39 336.94 320.708 337.007 320.037C337.1 319.129 337.248 318.229 337.451 317.342C338.61 312.32 341.397 307.936 345.29 305.012C347.147 303.638 349.213 302.637 351.107 301.342C353.048 299.905 354.9 298.328 356.652 296.623C360.854 292.779 365.223 289.154 369.759 285.75C374.637 282.09 379.69 278.72 384.895 275.653C386.008 274.992 387.122 274.349 388.235 273.724C389.447 273.025 390.667 272.362 391.895 271.737C395.827 269.676 400.288 270.447 404.635 271.821C406.458 272.392 408.257 273.074 409.994 273.692C411.69 274.298 413.322 275.103 414.861 276.093C418.712 278.578 421.894 282.248 423.216 286.883C423.218 286.912 423.218 286.942 423.216 286.972C424.056 289.876 424.108 292.99 424.032 296.047Z" fill="#2A9D8F"/>
<path d="M378.725 209.208C378.677 209.086 378.607 208.976 378.519 208.885C378.431 208.794 378.327 208.723 378.214 208.677C378.1 208.631 377.98 208.61 377.859 208.617C377.738 208.623 377.62 208.657 377.511 208.715C377.402 208.773 377.305 208.854 377.226 208.954C377.147 209.055 377.087 209.171 377.049 209.298C377.012 209.424 376.999 209.557 377.009 209.69C377.02 209.822 377.055 209.95 377.112 210.067L376.635 210.324L390.864 242.367L393.436 240.989L379.207 208.925L378.725 209.208Z" fill="#3F3D56"/>
<path d="M396.514 175.644C413.38 175.644 427.053 160.622 427.053 142.091C427.053 123.561 413.38 108.538 396.514 108.538C379.648 108.538 365.975 123.561 365.975 142.091C365.975 160.622 379.648 175.644 396.514 175.644Z" fill="#FBBEBE"/>
<path d="M436.82 121.32C436.677 118.653 436.316 116.005 435.742 113.409C433.948 104.932 430.669 96.5852 425.025 90.4985C424.677 89.0104 424.261 87.5423 423.779 86.1C423.77 86.0642 423.759 86.0292 423.746 85.9951C422.062 80.9139 419.628 76.1722 416.541 71.9605C414.751 69.5175 412.432 67.1059 409.579 67.0115C408.777 66.98 407.928 67.1321 407.193 66.7284C406.653 66.3445 406.198 65.8321 405.862 65.229C404.449 63.2671 402.575 61.7667 400.442 60.8898C398.309 60.013 395.999 59.793 393.761 60.2537L393.465 60.3219C393.298 60.3586 393.131 60.4005 392.988 60.4477C392.845 60.4949 392.587 60.5735 392.387 60.6417C392.606 61.0401 392.821 61.4438 393.031 61.8527C393.597 62.9607 394.122 64.0931 394.605 65.25C395.006 66.2146 395.377 67.195 395.717 68.1911C390.831 68.8045 386.851 72.6159 383.215 76.2438L374.655 84.7788C374.64 84.7932 374.625 84.809 374.612 84.826L374.364 85.0881C374.302 85.1563 374.24 85.2244 374.183 85.2978C374.16 85.3197 374.139 85.3443 374.121 85.3712C374.049 85.4551 373.982 85.5442 373.916 85.6334C373.796 85.7985 373.69 85.9738 373.596 86.1576C373.549 86.2363 373.508 86.3187 373.472 86.404C373.459 86.4292 373.448 86.4555 373.438 86.4827C373.407 86.5542 373.38 86.6277 373.357 86.7029C373.355 86.7132 373.355 86.724 373.357 86.7343C373.344 86.7773 373.333 86.821 373.324 86.8654C373.226 87.2343 373.255 87.6297 373.405 87.9768L379.05 88.045H379.713C379.742 88.8733 379.766 89.7069 379.794 90.5352C378.899 91.2718 378.038 92.0593 377.218 92.8944C376.322 93.8048 375.482 94.7785 374.703 95.8093C369.612 102.567 366.954 111.296 366.687 120.083C366.687 120.355 366.687 120.607 366.687 120.89C366.687 121.692 366.687 122.494 366.687 123.291C366.687 123.816 366.729 124.34 366.768 124.864C366.77 125.547 366.935 126.217 367.245 126.809C367.285 126.875 367.33 126.938 367.378 126.998C367.665 127.339 368.008 127.617 368.39 127.816L368.8 128.036C369.006 128.146 369.201 128.251 369.392 128.371C371.191 129.488 372.255 131.643 373.892 133.027C373.987 133.106 374.083 133.184 374.178 133.252L374.393 133.41L374.526 133.504L374.708 133.619C374.827 133.698 374.949 133.77 375.075 133.834L375.304 133.96H375.342C375.533 134.054 375.724 134.144 375.92 134.222L376.192 134.327L376.273 134.359C376.349 134.385 376.43 134.416 376.511 134.437C376.674 134.49 376.833 134.537 376.988 134.579L377.466 134.694C377.652 134.731 377.843 134.767 378.033 134.794L378.315 134.836L378.601 134.867C379.056 134.912 379.514 134.939 379.976 134.946C381.423 134.936 382.869 134.826 384.303 134.615L396.481 133.043C399.243 132.691 402.063 132.34 404.788 132.959C407.098 133.483 409.226 134.689 411.468 135.543C411.974 135.737 412.48 135.916 412.991 136.068C413.177 136.125 413.367 136.188 413.558 136.241L413.821 136.314L414.432 136.477C414.651 136.534 414.871 136.592 415.09 136.639C415.4 136.712 415.706 136.775 416.016 136.838C416.226 136.885 416.44 136.922 416.655 136.964H416.698L417.309 137.069H417.457L417.91 137.137C418.13 137.174 418.349 137.205 418.573 137.231C419.06 137.298 419.547 137.356 420.033 137.404C420.821 137.488 421.613 137.551 422.419 137.604L423.211 137.656L424.003 137.698L426.389 137.813H426.494H426.828C427.82 137.889 428.817 137.833 429.796 137.646C429.968 137.609 430.135 137.567 430.302 137.515C430.469 137.462 430.607 137.41 430.779 137.347C432.569 136.592 433.876 134.857 434.783 133.001C434.973 132.607 435.15 132.214 435.312 131.811C435.475 131.407 435.622 130.998 435.756 130.589C435.923 130.065 436.066 129.567 436.19 129.042C436.228 128.901 436.262 128.759 436.29 128.613C436.319 128.466 436.386 128.177 436.424 127.957C436.543 127.354 436.634 126.746 436.701 126.133C436.701 125.939 436.744 125.74 436.763 125.546C436.806 125.021 436.839 124.534 436.858 124.02C436.858 123.632 436.858 123.239 436.858 122.846C436.853 122.421 436.82 121.86 436.82 121.32ZM424.586 90.0215C424.199 89.623 423.803 89.2403 423.402 88.8786C423.848 89.1878 424.246 89.5737 424.581 90.0215H424.586Z" fill="#464353"/>
<path d="M337.904 140.246C334.311 139.758 330.746 138.028 327.201 138.878C324.982 139.402 323.074 140.917 321.299 142.474C314.693 148.291 309.076 155.346 304.708 163.314C303.967 164.505 303.446 165.844 303.176 167.256C302.947 168.892 303.352 170.554 303.834 172.121C307.098 182.717 314.079 191.566 317.257 202.193C320.597 213.37 319.438 225.586 316.975 237.036C313.923 251.171 308.963 264.725 302.26 277.247C301.35 279.109 300.21 280.824 298.872 282.342C297.135 284.177 294.802 285.488 293.771 287.889C293.294 288.938 293.155 290.133 292.817 291.255C291.862 294.401 289.553 297.095 289.329 300.414C289.162 302.946 290.254 305.342 290.918 307.754C292.036 311.897 291.917 316.325 290.579 320.388C288.16 327.676 281.832 334.302 283.669 341.794C287.768 340.499 292.311 338.816 294.243 334.638C294.926 333.159 295.265 331.398 296.414 330.318C298.71 328.174 302.618 330.113 305.056 328.142C306.898 326.643 306.965 323.571 306.144 321.211C305.323 318.852 303.911 316.776 303.281 314.349C302.183 309.971 303.939 305.342 303.615 300.818C303.462 298.721 302.875 296.713 302.832 294.626C302.751 290.573 304.793 286.762 307.509 284.01C310.224 281.257 313.578 279.433 316.88 277.635L329.363 270.819C333.891 268.355 338.853 265.351 340.337 260.046C340.9 258.059 340.905 255.941 340.934 253.864C341.359 222.141 348.592 191.058 355.783 160.33C356.9 155.57 358.035 150.789 359.696 146.217C361.356 141.646 364.606 137.976 366.262 133.729C356.656 132.492 347.881 141.619 337.904 140.246Z" fill="#525289"/>
<path d="M406.716 339.262C407.818 346.602 408.491 354.099 409.016 361.559C400.427 369.381 391.179 376.186 381.784 382.498C381.25 382.86 380.71 383.216 380.171 383.547L380.128 383.798C380.107 383.739 380.081 383.681 380.052 383.625C379.323 381.895 378.048 380.513 376.464 379.735C372.942 371.609 369.424 363.483 365.909 355.357C364 350.969 362.091 346.539 361.137 341.805C361.137 341.705 361.094 341.6 361.08 341.501C360.355 337.831 360.188 334.019 359.706 330.302C359.461 328.173 359.025 326.076 358.403 324.043C357.83 322.234 357.043 320.478 356.346 318.711C355.487 316.53 354.767 314.323 354.734 311.969C354.734 311.219 354.776 310.396 354.442 309.767C354.085 309.225 353.644 308.757 353.14 308.383C352.51 307.769 352.032 306.99 351.752 306.117C351.471 305.245 351.397 304.309 351.537 303.397C348.674 303.56 347.061 306.941 345.911 309.809C344.865 312.614 343.492 315.257 341.826 317.673C340.612 319.398 339.068 320.81 337.303 321.809C337.145 321.893 336.988 321.977 336.826 322.05C332.841 323.98 328.189 323.298 323.871 322.428C320.096 321.668 316.193 320.724 313.158 318.145L312.834 317.861C311.935 317.041 311.134 316.101 310.448 315.062C307.905 311.245 306.778 306.218 306.153 301.431C306.096 300.98 306.039 300.529 305.986 300.078C305.553 296.696 305.433 293.274 305.629 289.866C305.686 289.027 305.767 288.188 305.867 287.354C305.934 286.83 306.005 286.264 306.087 285.719C306.084 285.703 306.084 285.687 306.087 285.672C306.211 284.807 306.344 283.936 306.478 283.05C306.955 280.078 307.432 277.027 308.864 274.468C309.806 272.876 310.994 271.478 312.376 270.337C312.891 269.891 313.421 269.467 313.955 269.058C314.823 268.397 315.716 267.768 316.622 267.176C318.903 265.676 321.298 264.395 323.78 263.348C324.372 263.097 324.973 262.861 325.574 262.635C327.911 261.722 330.426 261.503 332.865 262.001C335.026 262.345 337.21 262.485 339.393 262.42C344.99 262.3 350.611 261.126 356.198 260.365C363.957 259.317 372.293 259.191 379.059 263.511C379.384 263.715 379.699 263.93 380.014 264.156C383.354 266.557 386.045 269.923 388.216 273.682C388.693 274.473 389.108 275.286 389.519 276.109C390.465 277.998 391.32 279.941 392.081 281.928C392.532 282.904 392.775 283.98 392.792 285.074C392.781 285.282 392.756 285.489 392.716 285.693C392.587 286.437 392.329 287.161 392.239 287.915C391.938 290.773 394.147 293.158 394.973 295.879C395.507 297.651 395.45 299.549 395.751 301.415C396.185 304.037 397.354 306.396 398.404 308.755C400.062 312.553 401.481 316.471 402.65 320.483C403.481 323.277 404.192 326.113 404.817 328.976C405.02 329.895 405.213 330.816 405.394 331.739C405.914 334.276 406.339 336.761 406.716 339.262Z" fill="#2A9D8F"/>
<path d="M457.591 261.624V265.293L456.975 265.283L456.288 265.272L448.616 265.168L429.71 264.895L424.404 264.822L423.03 264.801L415.066 264.691L403.843 264.528L380.033 264.187L338.715 263.6L323.804 263.39L317.82 263.307L312.314 263.228L308.883 263.175L305.633 263.128L281.541 262.787L274.861 262.693L273.406 262.672L272.461 259.993L265.594 240.538L264.339 236.983L265.294 232.789L269.588 235.935L272.232 236.296L315.754 242.242L323.923 243.358L341.244 245.728L358.212 248.045L364.864 248.952L404.225 254.331L415.224 255.836L424.328 257.078L456.699 261.503L457.591 261.624Z" fill="#3F3D56"/>
<path d="M265.294 232.789L273.883 257.429L457.591 261.624V234.886L265.294 232.789Z" fill="#939393"/>
<path d="M274.837 260.051L276.269 410.515L282.949 409.466L281.517 260.051H274.837Z" fill="#3F3D56"/>
<path d="M456.975 265.278H456.288C455.176 274.659 453.335 283.918 450.787 292.954L448.616 265.168L448.525 263.983L456.551 262.966L456.818 262.934L456.975 265.278Z" fill="#3F3D56"/>
<path d="M430.87 247.468L360.965 249.041L339.254 241.177L397.468 237.507L430.87 247.468Z" fill="white"/>
<path d="M343.181 216.893C342.44 217.206 341.783 217.72 341.273 218.388C340.873 219.111 340.63 219.925 340.562 220.768L339.388 228.459C339.209 229.162 339.241 229.91 339.478 230.592C339.784 231.237 340.671 231.573 341.115 231.038C341.058 232.543 341.177 234.147 341.974 235.374C342.771 236.6 344.441 237.245 345.567 236.391C345.744 236.707 345.981 236.977 346.262 237.183C346.543 237.388 346.861 237.524 347.195 237.581C347.528 237.638 347.869 237.614 348.194 237.512C348.518 237.41 348.819 237.231 349.074 236.988C348.397 237.24 348.349 238.378 348.831 238.954C349.371 239.478 350.058 239.78 350.778 239.809C359.163 241.108 367.712 239.926 375.543 236.386C376.282 236.05 374.335 226.031 374.14 225.004C373.663 222.587 373.424 219.635 371.568 218.01C367.13 214.12 359.247 213.355 353.841 213.816C350.147 214.123 346.535 215.166 343.181 216.893Z" fill="#FBBEBE"/>
<path opacity="0.1" d="M414.307 218.057C397.048 218.419 379.431 218.728 362.96 213.051C364.533 219.75 364.424 226.792 362.645 233.429L443.343 240.768C446.764 241.078 460.95 242.839 464.286 241.953C467.621 241.067 436.3 229.733 437.564 226.225C441.043 216.563 452.695 210.901 444.302 210.539C433.709 210.078 424.982 217.837 414.307 218.057Z" fill="black"/>
<path d="M414.785 219.106C397.526 219.468 379.909 219.777 363.437 214.099C365.01 220.798 364.901 227.841 363.122 234.477L443.82 241.817C447.241 242.126 461.427 243.914 464.763 243.002C468.098 242.09 467.316 237.597 468.58 234.089C472.059 224.427 453.172 211.95 444.779 211.588C434.186 211.127 425.459 218.886 414.785 219.106Z" fill="#525289"/>
<path d="M387.343 220.563C388.084 220.875 388.741 221.389 389.251 222.057C389.65 222.781 389.895 223.595 389.967 224.438L391.141 232.129C391.318 232.832 391.286 233.58 391.05 234.262C390.745 234.907 389.853 235.243 389.414 234.708C389.466 236.213 389.352 237.817 388.555 239.044C387.758 240.27 386.088 240.915 384.957 240.061C384.78 240.377 384.543 240.647 384.262 240.853C383.981 241.058 383.663 241.194 383.329 241.251C382.996 241.308 382.655 241.284 382.33 241.182C382.006 241.08 381.705 240.901 381.45 240.658C382.127 240.91 382.18 242.048 381.698 242.624C381.156 243.148 380.467 243.45 379.746 243.479C371.363 244.778 362.816 243.596 354.986 240.055C354.247 239.72 356.189 229.701 356.389 228.674C356.866 226.257 357.105 223.305 358.961 221.68C363.394 217.79 371.281 217.025 376.688 217.486C380.38 217.793 383.99 218.836 387.343 220.563Z" fill="#FBBEBE"/>
<path d="M273.301 203.865C271.716 206.109 270.128 208.4 269.106 211.016C267.155 216.007 267.441 221.659 267.766 227.08C267.856 228.653 267.971 230.257 268.72 231.562C269.368 232.548 270.222 233.349 271.211 233.895C275.343 236.475 280.181 237.245 284.905 237.822C292.139 238.703 299.398 239.239 306.683 239.432C324.729 239.914 343.053 238.294 360.631 242.787C358.455 239.154 358.46 234.346 359.677 230.204C360.894 226.063 363.237 222.456 365.532 218.907C357.487 216.107 348.86 220.479 340.433 220.044C331.782 219.599 323.775 214.104 315.115 214.11C313.254 214.11 311.359 214.366 309.551 213.874C307.742 213.381 305.991 211.881 305.824 209.842C308.134 210.413 310.324 208.243 311.278 205.863C312.232 203.483 312.404 200.793 313.33 198.397C315.635 192.436 321.862 189.674 325.736 184.767C326.347 183.991 326.924 183.073 326.905 182.046C326.814 181.175 326.481 180.357 325.951 179.702C322.73 174.984 317.877 172.362 313.845 168.693C312.442 167.413 309.613 162.59 308.038 162.144C305.118 161.321 302.641 165.956 300.742 168.215C291.155 179.662 282.007 191.545 273.301 203.865Z" fill="#525289"/>
<path opacity="0.07" d="M369.249 202.534C370.458 203.519 371.533 204.69 372.441 206.01C372.893 206.673 373.216 207.431 373.387 208.238C373.559 209.045 373.576 209.882 373.438 210.697C373.29 209.177 373.598 207.646 374.316 206.337C375.034 205.028 376.121 204.013 377.413 203.446L369.249 202.534Z" fill="black"/>
<g opacity="0.1">
<path opacity="0.1" d="M395.712 65.0507C395.151 63.4121 394.504 61.8104 393.775 60.2537C393.304 60.3532 392.838 60.4845 392.382 60.6469C393.2 62.1409 393.938 63.6866 394.591 65.2761C394.958 65.1713 395.331 65.0979 395.712 65.0507Z" fill="black"/>
<path opacity="0.1" d="M423.397 85.7224C423.527 85.838 423.651 85.9694 423.775 86.0903C423.766 86.0562 423.755 86.0228 423.742 85.9904C423.633 85.9028 423.519 85.8135 423.397 85.7224Z" fill="black"/>
<path opacity="0.1" d="M379.04 88.0292C379.288 87.8142 379.517 87.5888 379.785 87.3791L379.708 84.8888L374.612 84.8312C373.787 85.6648 372.909 86.8601 373.395 87.9768L379.04 88.0292Z" fill="black"/>
<path opacity="0.1" d="M434.754 129.949C433.847 131.805 432.54 133.546 430.751 134.295C429.372 134.872 427.854 134.82 426.38 134.746C421.35 134.521 416.235 134.274 411.483 132.445C409.259 131.585 407.131 130.384 404.802 129.855C402.078 129.236 399.258 129.588 396.495 129.944L384.318 131.517C380.725 131.978 376.721 132.324 373.853 129.902C372.212 128.518 371.153 126.363 369.354 125.252C368.595 124.78 367.693 124.476 367.202 123.679C366.892 123.087 366.727 122.417 366.725 121.734C366.686 121.184 366.663 120.633 366.644 120.083C366.592 121.682 366.619 123.283 366.725 124.88C366.727 125.563 366.892 126.233 367.202 126.825C367.679 127.616 368.595 127.92 369.354 128.397C371.153 129.509 372.217 131.664 373.853 133.048C376.716 135.47 380.725 135.145 384.318 134.662L396.495 133.09C399.258 132.733 402.078 132.382 404.802 133.001C407.112 133.525 409.24 134.731 411.483 135.59C416.254 137.42 421.35 137.687 426.38 137.892C427.854 137.96 429.372 138.018 430.751 137.441C432.54 136.691 433.847 134.951 434.754 133.095C436.51 129.504 437.001 125.43 436.815 121.325C436.713 124.331 436.009 127.276 434.754 129.949Z" fill="black"/>
</g>
<path opacity="0.1" d="M395.574 68.4218L402.254 75.2372C402.254 75.2372 396.528 72.6159 395.574 68.4218Z" fill="black"/>
</g>
<defs>
<clipPath id="clip0_1083_3890">
<rect width="469" height="421" fill="white"/>
</clipPath>
</defs>
</svg>
