<svg width="718" height="307" viewBox="0 0 718 307" fill="none" xmlns="http://www.w3.org/2000/svg">
<g clip-path="url(#clip0_1084_3969)">
<path d="M97.6875 245.447H637.677V3.93555H97.6875V245.447Z" fill="white"/>
<path d="M642.131 249.383H93.2329V0H642.131V249.383ZM102.142 241.512H633.222V7.87073H102.142V241.512Z" fill="#E5E5E5"/>
<path d="M349.713 55.0284V137H214.836L189.919 163.414L192.764 137H180.64V55.0284H349.713Z" fill="#00BFA6"/>
<path d="M431.336 59.8918V112.449H517.813L533.789 129.383L531.966 112.449H539.739V59.8918H431.336Z" fill="#F0F0F0"/>
<path d="M74.4424 299.248H82.2445L85.9564 272.662H74.4417L74.4424 299.248Z" fill="#FFB7B7"/>
<path d="M72.4526 296.998L87.8176 296.997H87.8182C90.415 296.997 92.9055 297.909 94.7417 299.531C96.578 301.153 97.6097 303.354 97.6099 305.648V305.929L72.4531 305.93L72.4526 296.998Z" fill="#2F2E41"/>
<path d="M168.177 299.021L175.753 297.374L172.167 270.775L160.985 273.206L168.177 299.021Z" fill="#FFB7B7"/>
<path d="M165.636 297.257L180.556 294.013L180.557 294.012C183.078 293.464 185.743 293.824 187.965 295.011C190.187 296.199 191.784 298.118 192.404 300.345L192.48 300.618L168.052 305.93L165.636 297.257Z" fill="#2F2E41"/>
<path d="M69.6445 292.909L71.2653 285.583C71.2653 285.583 74.2486 257.296 95.6593 229.066L102.628 198.399C102.628 198.399 100.559 175.186 120.535 162.621L126.694 158.873L148.287 159.967L153.274 184.088L163.322 241.162C163.322 241.162 165.915 241.377 166.888 247.977C168.864 250.749 170.033 253.909 170.291 257.177C170.291 257.177 175.434 269.711 176.811 278.939L176.649 287.968L165.79 293.079L143.158 236.532L126.97 204.918C126.97 204.918 119.179 227.192 107.245 246.273C107.245 246.273 90.9 277.529 87.6346 283.879L84.069 294.272L69.6445 292.909Z" fill="#2F2E41"/>
<path d="M141.841 110.336C150.365 110.336 157.275 104.231 157.275 96.7003C157.275 89.1698 150.365 83.0651 141.841 83.0651C133.317 83.0651 126.407 89.1698 126.407 96.7003C126.407 104.231 133.317 110.336 141.841 110.336Z" fill="#FFB7B7"/>
<path d="M141.841 110.336C150.365 110.336 157.275 104.231 157.275 96.7003C157.275 89.1698 150.365 83.0651 141.841 83.0651C133.317 83.0651 126.407 89.1698 126.407 96.7003C126.407 104.231 133.317 110.336 141.841 110.336Z" fill="#FFB8B8"/>
<path d="M120.58 162.767L125.675 151.523C122.076 141.223 122.296 130.175 126.305 119.993L127.28 119.283C135.772 113.105 143.225 114.23 150.141 121.788C151.255 123.016 152.558 124.101 154.012 125.012C157.062 126.902 161.902 137.175 155.512 143.197L150.4 169.541C150.938 184.086 138.991 178.609 120.58 162.767Z" fill="#3F3D56"/>
<path d="M193.634 147.475C192.975 147.034 192.215 146.727 191.407 146.575C190.599 146.422 189.764 146.428 188.958 146.591C188.153 146.755 187.399 147.073 186.748 147.522C186.097 147.971 185.565 148.541 185.19 149.191L172.317 148.306L169.799 155.086L187.999 156.111C189.278 156.595 190.713 156.648 192.032 156.259C193.352 155.871 194.464 155.069 195.159 154.004C195.853 152.939 196.082 151.687 195.801 150.483C195.52 149.28 194.749 148.21 193.634 147.475H193.634Z" fill="#FFB7B7"/>
<path d="M181.309 158.474L144.625 152.423L132.694 134.75C131.927 132.872 132.037 130.802 132.998 128.995C133.958 127.189 135.692 125.793 137.818 125.116C139.944 124.438 142.287 124.535 144.332 125.384C146.377 126.233 147.956 127.765 148.723 129.643L154.319 143.315L183.33 147.557L181.309 158.474Z" fill="#CCCCCC"/>
<path d="M114.33 93.7139C122.508 93.7139 129.137 87.8572 129.137 80.6325C129.137 73.4079 122.508 67.5512 114.33 67.5512C106.153 67.5512 99.5234 73.4079 99.5234 80.6325C99.5234 87.8572 106.153 93.7139 114.33 93.7139Z" fill="#2F2E41"/>
<path d="M101.558 91.4648C103.475 92.6885 105.695 93.489 108.034 93.7992C110.372 94.1094 112.761 93.9203 114.999 93.2478C117.238 92.5753 119.262 91.4389 120.902 89.9336C122.541 88.4284 123.749 86.5982 124.424 84.596C124.169 86.3902 123.495 88.1182 122.446 89.6709C121.396 91.2235 119.994 92.5671 118.327 93.6167C116.66 94.6663 114.765 95.3993 112.761 95.7692C110.758 96.1391 108.689 96.138 106.686 95.766C104.683 95.3939 102.789 94.659 101.123 93.6077C99.4577 92.5563 98.0571 91.2113 97.0098 89.6575C95.9624 88.1038 95.2911 86.3751 95.0381 84.5806C94.7851 82.786 94.956 80.9646 95.54 79.2314C95.2083 81.56 95.5921 83.9245 96.651 86.077C97.7099 88.2294 99.405 90.0904 101.558 91.4648Z" fill="#2F2E41"/>
<path d="M159.993 91.4793C157.408 87.3909 156.419 85.683 153.086 83.1969C150.139 80.9982 146.513 80.3525 143.589 82.4358C140.13 81.1154 136.281 80.816 132.614 81.5821C128.947 82.3482 125.657 84.1389 123.234 86.6882C120.811 89.2375 119.383 92.4095 119.162 95.7329C118.942 99.0562 119.941 102.354 122.011 105.136C124.08 107.918 127.111 110.035 130.652 111.175C134.192 112.314 138.055 112.413 141.665 111.459C145.275 110.505 148.44 108.547 150.69 105.876C152.94 103.206 154.155 99.9657 154.155 96.6366C154.153 96.052 154.113 95.468 154.036 94.8873C156.578 94.5719 157.451 91.7947 159.993 91.4793Z" fill="#2F2E41"/>
<path d="M615.175 189.344C615.223 188.442 615.495 187.56 615.971 186.76C616.447 185.961 617.115 185.263 617.929 184.717C618.743 184.17 619.683 183.788 620.683 183.597C621.682 183.406 622.717 183.411 623.714 183.612L632.962 172.097L642.254 175.355L628.934 191.455C628.442 192.913 627.362 194.16 625.898 194.96C624.435 195.761 622.689 196.059 620.993 195.799C619.297 195.539 617.768 194.738 616.696 193.548C615.623 192.359 615.082 190.863 615.175 189.344Z" fill="#A0616A"/>
<path d="M625.321 179.441L641.765 155.007L635.065 139.223L644.19 117.725L644.527 117.853C644.747 117.936 649.932 119.98 650.7 127.3L661.186 156.416L633.201 188.491L625.321 179.441Z" fill="#3F3D56"/>
<path d="M536.011 89.6138C537.025 89.7262 537.999 90.0337 538.865 90.5147C539.73 90.9958 540.466 91.6386 541.02 92.3979C541.573 93.1573 541.932 94.0147 542.07 94.9097C542.208 95.8047 542.123 96.7156 541.819 97.5783L554.1 106.615L549.704 114.548L532.565 101.571C530.958 101.024 529.634 99.9761 528.844 98.625C528.053 97.274 527.852 95.7137 528.276 94.2399C528.701 92.766 529.723 91.4811 531.149 90.6285C532.574 89.7758 534.304 89.4148 536.011 89.6138Z" fill="#A0616A"/>
<path d="M546.402 99.3162L572.705 115.69L591.035 111.009L614.591 120.708L614.421 120.995C614.309 121.183 611.602 125.592 603.282 125.703L569.614 132.688L535.58 105.557L546.402 99.3162Z" fill="#3F3D56"/>
<path d="M594.531 298.428H585.387L581.037 267.267L594.533 267.268L594.531 298.428Z" fill="#A0616A"/>
<path d="M578.856 296.12H596.491V305.929H567.752C567.752 304.641 568.039 303.365 568.597 302.175C569.155 300.985 569.973 299.904 571.004 298.993C572.035 298.082 573.259 297.359 574.606 296.866C575.954 296.373 577.397 296.12 578.856 296.12Z" fill="#2F2E41"/>
<path d="M631.079 298.428H621.934L617.584 267.267L631.08 267.268L631.079 298.428Z" fill="#A0616A"/>
<path d="M615.403 296.12H633.038V305.929H604.299C604.299 304.641 604.586 303.365 605.144 302.175C605.702 300.985 606.52 299.904 607.551 298.993C608.583 298.082 609.807 297.359 611.154 296.866C612.501 296.373 613.945 296.12 615.403 296.12Z" fill="#2F2E41"/>
<path d="M634.331 184.69L633.585 230.817L632.839 291.439L616.43 290.121L608.225 206.436L597.783 290.121H580.843L579.136 205.776L585.104 187.326L634.331 184.69Z" fill="#2F2E41"/>
<path d="M583.468 187.607L580.969 187.512L592.58 131.001L587.826 113.92C587.578 113.032 587.709 112.094 588.192 111.285C588.676 110.475 589.478 109.851 590.448 109.529L599.002 106.695L602.024 99.3531L625.867 101.623L626.453 107.361C629.037 108.093 650.314 114.353 648.846 121.487C647.397 128.527 638.842 150.678 638.407 151.8L636.909 183.567L636.725 183.648C636.503 183.746 620.068 190.885 602.214 190.884C595.773 190.979 589.383 189.862 583.468 187.607Z" fill="#3F3D56"/>
<path d="M613.011 95.7196C622.492 95.7196 630.178 88.9292 630.178 80.5528C630.178 72.1764 622.492 65.386 613.011 65.386C603.53 65.386 595.844 72.1764 595.844 80.5528C595.844 88.9292 603.53 95.7196 613.011 95.7196Z" fill="#A0616A"/>
<path d="M626.916 95.2346C623.645 98.3136 617.569 96.6607 617.142 92.4545C617.109 92.1279 617.111 91.7993 617.15 91.4731C617.37 89.6099 618.588 87.9184 618.296 85.9511C618.23 85.4615 618.024 84.9949 617.697 84.5955C615.089 81.5112 608.969 85.975 606.509 83.1829C605 81.4708 606.774 78.7752 605.616 76.8617C604.088 74.3361 599.562 75.582 596.723 74.1989C593.565 72.66 593.754 68.3794 595.833 65.7757C598.368 62.6003 602.813 60.906 607.203 60.6618C611.593 60.4176 615.952 61.4659 620.05 62.8769C624.706 64.4801 629.324 66.6956 632.189 70.3128C635.674 74.7116 636.009 80.6255 634.266 85.7691C633.206 88.8981 629.588 92.7204 626.916 95.2346Z" fill="#2F2E41"/>
<path d="M440.917 294.238L443.468 288.442L419.378 276.993L415.614 285.547L440.917 294.238Z" fill="#FFB8B8"/>
<path d="M454.582 279.119C453.501 278.747 452.347 278.567 451.187 278.589C450.027 278.611 448.884 278.835 447.822 279.248C446.76 279.661 445.801 280.255 444.999 280.996C444.197 281.736 443.568 282.609 443.148 283.565L441.428 287.472L438.775 293.503L438.127 294.981L446.627 297.903L454.849 279.212L454.582 279.119Z" fill="#2F2E41"/>
<path d="M438.776 283.084L437.667 285.683L434.899 292.169L434.832 292.331C427.779 293.132 420.048 291.562 412.896 289.124C410.035 288.149 407.233 287.044 404.5 285.814C400.456 284.009 396.835 282.103 393.946 280.474C389.597 278.008 386.907 276.156 386.907 276.156C386.907 276.156 386.197 276.723 384.911 277.696C383.188 278.998 380.435 281.032 376.947 283.427C375.616 284.347 374.188 285.309 372.661 286.313C361.408 293.687 346.967 274.01 346.967 274.01C346.967 274.01 351.028 271.726 352.089 271.282C355.506 269.854 363.533 266.484 370.457 263.49C374.025 261.944 377.296 260.496 379.492 259.466C387.269 255.808 396.936 262.73 396.936 262.73L438.776 283.084Z" fill="#2F2E41"/>
<path opacity="0.14" d="M438.776 283.084L437.667 285.683L434.899 292.169L434.832 292.331C427.779 293.132 420.048 291.562 412.896 289.124C410.035 288.149 407.233 287.044 404.5 285.814C400.456 284.009 396.835 282.103 393.946 280.474C389.597 278.008 386.907 276.156 386.907 276.156C386.907 276.156 386.197 276.723 384.911 277.696C383.188 278.998 380.435 281.032 376.947 283.427C375.616 284.347 374.188 285.309 372.661 286.313C361.408 293.687 346.967 274.01 346.967 274.01C346.967 274.01 351.028 271.726 352.089 271.282C355.506 269.854 363.533 266.484 370.457 263.49C374.025 261.944 377.296 260.496 379.492 259.466C387.269 255.808 396.936 262.73 396.936 262.73L438.776 283.084Z" fill="black"/>
<path d="M326.216 228.533H292.918C292.233 228.532 291.576 228.292 291.092 227.864C290.608 227.436 290.335 226.856 290.334 226.251V213.57C290.334 209.064 292.361 204.742 295.968 201.556C299.574 198.369 304.466 196.579 309.567 196.579C314.668 196.579 319.56 198.369 323.167 201.556C326.774 204.742 328.8 209.064 328.8 213.57V226.251C328.799 226.856 328.527 227.436 328.042 227.864C327.558 228.292 326.901 228.532 326.216 228.533Z" fill="#2F2E41"/>
<path d="M357.883 244.46C357.108 244.581 356.372 244.85 355.727 245.248C355.082 245.647 354.544 246.166 354.151 246.768C353.758 247.37 353.519 248.041 353.451 248.734C353.383 249.427 353.488 250.124 353.758 250.777L344.703 258.135L348.422 264.086L361.044 253.538C362.255 253.064 363.228 252.214 363.778 251.149C364.328 250.084 364.416 248.878 364.027 247.759C363.637 246.64 362.797 245.686 361.664 245.078C360.532 244.47 359.186 244.251 357.883 244.46V244.46Z" fill="#FFB8B8"/>
<path d="M330.638 277.912C330.229 277.912 329.82 277.896 329.41 277.865C326.967 277.685 324.616 276.959 322.578 275.757C320.54 274.554 318.881 272.914 317.756 270.99L303.25 246.323C302.3 244.706 302.091 242.828 302.668 241.08C303.245 239.331 304.562 237.846 306.347 236.934C308.131 236.022 310.245 235.752 312.248 236.181C314.252 236.611 315.991 237.706 317.103 239.239L330.486 265.768L348.697 252.697L359.241 256.323L341.434 273.691C340.065 275.018 338.398 276.079 336.539 276.806C334.681 277.532 332.671 277.909 330.638 277.912Z" fill="#00BFA6"/>
<path d="M438.882 302.39L441.929 296.784L418.906 283.734L414.409 292.007L438.882 302.39Z" fill="#FFB8B8"/>
<path d="M453.822 288.242C452.776 287.798 451.641 287.541 450.483 287.484C449.325 287.427 448.165 287.573 447.07 287.913C445.976 288.252 444.968 288.779 444.104 289.463C443.24 290.147 442.537 290.975 442.035 291.899L439.98 295.678L436.811 301.511L436.036 302.941L444.257 306.431L454.08 288.354L453.822 288.242Z" fill="#2F2E41"/>
<path d="M437.718 291.123L436.386 293.639L433.062 299.918L432.981 300.075C425.88 300.395 418.307 298.305 411.389 295.389C408.621 294.223 405.923 292.931 403.306 291.519C399.43 289.444 395.986 287.299 393.247 285.478C389.125 282.724 386.605 280.695 386.605 280.695C386.605 280.695 385.847 281.212 384.481 282.095C382.649 283.277 379.727 285.118 376.041 287.268C374.635 288.095 373.127 288.957 371.517 289.855C359.656 296.444 342.789 304.468 328.442 306.162C303.244 309.139 309.175 279.432 309.175 279.432L329.228 270.231L337.742 271.758L347.221 273.452L350.579 274.056C350.579 274.056 351.217 273.843 352.313 273.472C355.844 272.281 364.14 269.465 371.305 266.95C374.996 265.651 378.384 264.429 380.663 263.551C388.735 260.432 397.771 267.99 397.771 267.99L437.718 291.123Z" fill="#2F2E41"/>
<path d="M272.479 306.871C273.246 306.716 273.965 306.414 274.586 305.986C275.206 305.558 275.713 305.016 276.071 304.396C276.428 303.777 276.628 303.096 276.655 302.401C276.682 301.706 276.537 301.014 276.229 300.374L284.841 292.613L280.779 286.839L268.791 297.951C267.609 298.479 266.687 299.372 266.2 300.461C265.713 301.55 265.696 302.758 266.15 303.858C266.605 304.958 267.5 305.872 268.667 306.427C269.833 306.982 271.189 307.14 272.479 306.871H272.479Z" fill="#FFB8B8"/>
<path d="M314.282 229.099C321.697 229.099 327.708 223.789 327.708 217.238C327.708 210.687 321.697 205.376 314.282 205.376C306.867 205.376 300.855 210.687 300.855 217.238C300.855 223.789 306.867 229.099 314.282 229.099Z" fill="#FFB8B8"/>
<path d="M296.815 250.164L308.51 279.458L308.44 279.561C306.813 281.937 306.282 283.853 306.903 285.103C307.066 285.421 307.306 285.703 307.605 285.931C307.904 286.159 308.256 286.327 308.636 286.424L336.313 269.332L335.344 262.482L335.398 262.406C338.073 258.624 338.939 255.2 337.973 252.227C337.097 249.823 335.207 247.808 332.694 246.602L332.597 246.535L318.793 231.692L300.34 234.588L296.815 250.164Z" fill="#00BFA6"/>
<path d="M279.029 301.583L271.194 293.063L290.081 265.517L298.887 241.469L299.161 241.547L298.887 241.469C299.369 240.155 300.163 238.948 301.217 237.928C302.271 236.909 303.56 236.1 304.997 235.558C306.434 235.016 307.987 234.752 309.549 234.785C311.112 234.817 312.648 235.145 314.055 235.747C315.462 236.348 316.706 237.209 317.705 238.271C318.703 239.334 319.432 240.573 319.842 241.905C320.253 243.237 320.335 244.632 320.084 245.995C319.833 247.358 319.254 248.657 318.386 249.806L302.22 271.204L279.029 301.583Z" fill="#00BFA6"/>
<path d="M333.35 214.839H312.989L312.78 212.256L311.736 214.839H308.601L308.187 209.72L306.118 214.839H300.052V214.585C300.056 211.021 301.66 207.605 304.513 205.085C307.365 202.565 311.232 201.148 315.265 201.144H318.136C322.17 201.148 326.037 202.565 328.889 205.085C331.741 207.605 333.345 211.021 333.35 214.585V214.839Z" fill="#2F2E41"/>
<path d="M312.822 230.9C312.669 230.9 312.516 230.888 312.365 230.864L297.456 228.54V206.771H313.868L313.462 207.19C307.808 213.015 312.067 222.46 315.109 227.572C315.333 227.946 315.433 228.369 315.398 228.791C315.362 229.213 315.192 229.618 314.907 229.959C314.668 230.25 314.355 230.488 313.993 230.651C313.63 230.815 313.229 230.9 312.822 230.9Z" fill="#2F2E41"/>
<path d="M535.573 191.899V222.568H381.791L359.585 246.106L362.121 222.568H351.317V191.899H535.573Z" fill="#F0F0F0"/>
<path d="M415.251 212.743C418.725 212.743 421.542 210.254 421.542 207.184C421.542 204.115 418.725 201.626 415.251 201.626C411.776 201.626 408.959 204.115 408.959 207.184C408.959 210.254 411.776 212.743 415.251 212.743Z" fill="white"/>
<path d="M394.017 212.743C397.492 212.743 400.309 210.254 400.309 207.184C400.309 204.115 397.492 201.626 394.017 201.626C390.543 201.626 387.726 204.115 387.726 207.184C387.726 210.254 390.543 212.743 394.017 212.743Z" fill="white"/>
<path d="M372.784 212.743C376.259 212.743 379.075 210.254 379.075 207.184C379.075 204.115 376.259 201.626 372.784 201.626C369.309 201.626 366.493 204.115 366.493 207.184C366.493 210.254 369.309 212.743 372.784 212.743Z" fill="white"/>
<path d="M717.214 306.537H0.786418C0.577847 306.537 0.377818 306.464 0.230336 306.334C0.082854 306.204 0 306.027 0 305.843C0 305.658 0.082854 305.482 0.230336 305.351C0.377818 305.221 0.577847 305.148 0.786418 305.148H717.214C717.422 305.148 717.622 305.221 717.77 305.351C717.917 305.482 718 305.658 718 305.843C718 306.027 717.917 306.204 717.77 306.334C717.622 306.464 717.422 306.537 717.214 306.537Z" fill="#CACACA"/>
</g>
<defs>
<clipPath id="clip0_1084_3969">
<rect width="718" height="307" fill="white"/>
</clipPath>
</defs>
</svg>
